NotoSerifTamilSlanted-Light.ufo
<glyph name="exclam" format="2">
  <advance width="297.0909090909091"/>
  <unicode hex="0021"/>
  <outline>
    <contour>
      <point x="107.0" y="185.54545454545456" type="line"/>
      <point x="147.36363636363637" y="185.54545454545456" type="line"/>
      <point x="278.72727272727275" y="714.0" type="line"/>
      <point x="201.8181818181818" y="714.0" type="line"/>
    </contour>
    <contour>
      <point x="92.81818181818181" y="-8.454545454545455" type="curve" smooth="yes"/>
      <point x="121.18181818181819" y="-8.454545454545455"/>
      <point x="147.0909090909091" y="13.363636363636363"/>
      <point x="147.0909090909091" y="60.54545454545455" type="curve" smooth="yes"/>
      <point x="147.0909090909091" y="87.72727272727272"/>
      <point x="129.54545454545456" y="101.72727272727272"/>
      <point x="105.63636363636364" y="101.72727272727272" type="curve" smooth="yes"/>
      <point x="78.54545454545455" y="101.72727272727272"/>
      <point x="50.45454545454545" y="79.0"/>
      <point x="50.45454545454545" y="34.72727272727273" type="curve" smooth="yes"/>
      <point x="50.45454545454545" y="6.545454545454546"/>
      <point x="67.54545454545455" y="-8.454545454545455"/>
    </contour>
  </outline>
</glyph>
<glyph name="quotedbl" format="2">
  <advance width="349.8181818181818"/>
  <unicode hex="0022"/>
  <outline>
    <contour>
      <point x="116.45454545454545" y="488.09090909090907" type="line"/>
      <point x="150.63636363636363" y="488.09090909090907" type="line"/>
      <point x="217.45454545454544" y="714.0" type="line"/>
      <point x="146.0" y="714.0" type="line"/>
    </contour>
    <contour>
      <point x="278.0909090909091" y="488.09090909090907" type="line"/>
      <point x="312.27272727272725" y="488.09090909090907" type="line"/>
      <point x="379.0909090909091" y="714.0" type="line"/>
      <point x="307.6363636363636" y="714.0" type="line"/>
    </contour>
  </outline>
</glyph>
<glyph name="numbersign" format="2">
  <advance width="559.0"/>
  <unicode hex="0023"/>
  <outline>
    <contour>
      <point x="63.72727272727273" y="0.0" type="line"/>
      <point x="109.18181818181819" y="0.0" type="line"/>
      <point x="170.45454545454547" y="210.27272727272728" type="line"/>
      <point x="333.54545454545456" y="210.27272727272728" type="line"/>
      <point x="272.27272727272725" y="0.0" type="line"/>
      <point x="317.72727272727275" y="0.0" type="line"/>
      <point x="379.0" y="210.27272727272728" type="line"/>
      <point x="497.72727272727275" y="210.27272727272728" type="line"/>
      <point x="503.8181818181818" y="253.8181818181818" type="line"/>
      <point x="392.54545454545456" y="253.8181818181818" type="line"/>
      <point x="455.45454545454544" y="469.3636363636364" type="line"/>
      <point x="564.3636363636364" y="469.3636363636364" type="line"/>
      <point x="569.9090909090909" y="512.9090909090909" type="line"/>
      <point x="468.3636363636364" y="512.9090909090909" type="line"/>
      <point x="527.2727272727273" y="714.0" type="line"/>
      <point x="481.8181818181818" y="714.0" type="line"/>
      <point x="422.90909090909093" y="512.9090909090909" type="line"/>
      <point x="259.8181818181818" y="512.9090909090909" type="line"/>
      <point x="318.72727272727275" y="714.0" type="line"/>
      <point x="272.72727272727275" y="714.0" type="line"/>
      <point x="214.36363636363637" y="512.9090909090909" type="line"/>
      <point x="94.81818181818181" y="512.9090909090909" type="line"/>
      <point x="89.27272727272727" y="469.3636363636364" type="line"/>
      <point x="201.45454545454547" y="469.3636363636364" type="line"/>
      <point x="138.0" y="253.8181818181818" type="line"/>
      <point x="28.181818181818183" y="253.8181818181818" type="line"/>
      <point x="22.09090909090909" y="210.27272727272728" type="line"/>
      <point x="125.0" y="210.27272727272728" type="line"/>
    </contour>
    <contour>
      <point x="184.0" y="253.8181818181818" type="line"/>
      <point x="246.9090909090909" y="469.3636363636364" type="line"/>
      <point x="410.0" y="469.3636363636364" type="line"/>
      <point x="347.09090909090907" y="253.8181818181818" type="line"/>
    </contour>
  </outline>
</glyph>
<glyph name="percent" format="2">
  <advance width="870.5454545454545"/>
  <unicode hex="0025"/>
  <outline>
    <contour>
      <point x="168.36363636363637" y="0.0" type="line"/>
      <point x="221.45454545454547" y="0.0" type="line"/>
      <point x="714.9090909090909" y="714.0" type="line"/>
      <point x="664.0" y="714.0" type="line"/>
    </contour>
    <contour>
      <point x="189.0909090909091" y="281.90909090909093" type="curve" smooth="yes"/>
      <point x="325.8181818181818" y="281.90909090909093"/>
      <point x="385.3636363636364" y="456.8181818181818"/>
      <point x="385.3636363636364" y="562.1818181818181" type="curve" smooth="yes"/>
      <point x="385.3636363636364" y="657.6363636363636"/>
      <point x="347.6363636363636" y="722.0909090909091"/>
      <point x="263.72727272727275" y="722.0909090909091" type="curve" smooth="yes"/>
      <point x="127.27272727272727" y="722.0909090909091"/>
      <point x="66.9090909090909" y="551.0"/>
      <point x="66.9090909090909" y="443.1818181818182" type="curve"/>
      <point x="66.9090909090909" y="335.1818181818182"/>
      <point x="113.72727272727273" y="281.90909090909093"/>
    </contour>
    <contour>
      <point x="191.27272727272728" y="315.1818181818182" type="curve" smooth="yes"/>
      <point x="144.0" y="315.1818181818182"/>
      <point x="122.27272727272728" y="356.8181818181818"/>
      <point x="122.27272727272728" y="435.0" type="curve" smooth="yes"/>
      <point x="122.27272727272728" y="521.6363636363636"/>
      <point x="167.54545454545456" y="689.3636363636364"/>
      <point x="261.54545454545456" y="689.3636363636364" type="curve" smooth="yes"/>
      <point x="305.1818181818182" y="689.3636363636364"/>
      <point x="327.8181818181818" y="648.1818181818181"/>
      <point x="327.8181818181818" y="570.9090909090909" type="curve" smooth="yes"/>
      <point x="327.8181818181818" y="482.90909090909093"/>
      <point x="283.90909090909093" y="315.1818181818182"/>
    </contour>
    <contour>
      <point x="627.0" y="-7.090909090909091" type="curve" smooth="yes"/>
      <point x="762.8181818181819" y="-7.090909090909091"/>
      <point x="822.3636363636364" y="167.8181818181818"/>
      <point x="822.3636363636364" y="273.1818181818182" type="curve" smooth="yes"/>
      <point x="822.3636363636364" y="368.6363636363636"/>
      <point x="784.6363636363636" y="433.09090909090907"/>
      <point x="700.7272727272727" y="433.09090909090907" type="curve" smooth="yes"/>
      <point x="564.2727272727273" y="433.09090909090907"/>
      <point x="503.90909090909093" y="262.0"/>
      <point x="503.90909090909093" y="154.1818181818182" type="curve"/>
      <point x="503.90909090909093" y="47.54545454545455"/>
      <point x="549.8181818181819" y="-7.090909090909091"/>
    </contour>
    <contour>
      <point x="629.1818181818181" y="26.18181818181818" type="curve" smooth="yes"/>
      <point x="581.0" y="26.18181818181818"/>
      <point x="559.2727272727273" y="67.81818181818181"/>
      <point x="559.2727272727273" y="146.0" type="curve" smooth="yes"/>
      <point x="559.2727272727273" y="232.63636363636363"/>
      <point x="602.2727272727273" y="400.3636363636364"/>
      <point x="698.5454545454545" y="400.3636363636364" type="curve" smooth="yes"/>
      <point x="742.1818181818181" y="400.3636363636364"/>
      <point x="764.8181818181819" y="359.1818181818182"/>
      <point x="764.8181818181819" y="281.90909090909093" type="curve" smooth="yes"/>
      <point x="764.8181818181819" y="193.9090909090909"/>
      <point x="720.9090909090909" y="26.18181818181818"/>
    </contour>
  </outline>
</glyph>
<glyph name="quotesingle" format="2">
  <advance width="179.54545454545456"/>
  <unicode hex="0027"/>
  <outline>
    <contour>
      <point x="111.54545454545455" y="502.1818181818182" type="line"/>
      <point x="145.72727272727272" y="502.1818181818182" type="line"/>
      <point x="209.36363636363637" y="714.0" type="line"/>
      <point x="137.9090909090909" y="714.0" type="line"/>
    </contour>
  </outline>
</glyph>
<glyph name="parenleft" format="2">
  <advance width="314.6363636363636"/>
  <unicode hex="0028"/>
  <outline>
    <contour>
      <point x="189.45454545454547" y="-121.63636363636364" type="curve"/>
      <point x="197.63636363636363" y="-85.18181818181819" type="line"/>
      <point x="131.27272727272728" y="-34.81818181818182"/>
      <point x="106.0" y="66.27272727272727"/>
      <point x="106.0" y="166.72727272727272" type="curve" smooth="yes"/>
      <point x="106.0" y="329.72727272727275"/>
      <point x="172.9090909090909" y="615.0909090909091"/>
      <point x="369.3636363636364" y="716.8181818181819" type="curve"/>
      <point x="377.54545454545456" y="752.7272727272727" type="line"/>
      <point x="145.54545454545456" y="677.2727272727273"/>
      <point x="42.0" y="417.1818181818182"/>
      <point x="42.0" y="191.9090909090909" type="curve" smooth="yes"/>
      <point x="42.0" y="49.72727272727273"/>
      <point x="85.81818181818181" y="-66.72727272727273"/>
    </contour>
  </outline>
</glyph>
<glyph name="parenright" format="2">
  <advance width="314.6363636363636"/>
  <unicode hex="0029"/>
  <outline>
    <contour>
      <point x="-53.09090909090909" y="-126.0" type="line"/>
      <point x="178.9090909090909" y="-50.54545454545455"/>
      <point x="282.45454545454544" y="209.54545454545453"/>
      <point x="282.45454545454544" y="434.8181818181818" type="curve" smooth="yes"/>
      <point x="282.45454545454544" y="577.0"/>
      <point x="238.63636363636363" y="693.4545454545455"/>
      <point x="135.0" y="748.3636363636364" type="curve"/>
      <point x="126.81818181818181" y="711.9090909090909" type="line"/>
      <point x="193.1818181818182" y="661.5454545454545"/>
      <point x="218.45454545454547" y="560.4545454545455"/>
      <point x="218.45454545454547" y="460.0" type="curve" smooth="yes"/>
      <point x="218.45454545454547" y="297.0"/>
      <point x="151.54545454545456" y="11.636363636363637"/>
      <point x="-44.90909090909091" y="-90.0909090909091" type="curve"/>
    </contour>
  </outline>
</glyph>
<glyph name="asterisk" format="2">
  <advance width="448.1818181818182"/>
  <unicode hex="002A"/>
  <outline>
    <contour>
      <point x="289.6363636363636" y="374.8181818181818" type="line"/>
      <point x="303.3636363636364" y="541.6363636363636" type="line"/>
      <point x="427.1818181818182" y="424.09090909090907" type="line"/>
      <point x="465.3636363636364" y="476.1818181818182" type="line"/>
      <point x="318.0909090909091" y="564.1818181818181" type="line"/>
      <point x="489.0909090909091" y="584.4545454545455" type="line"/>
      <point x="475.1818181818182" y="649.8181818181819" type="line"/>
      <point x="313.72727272727275" y="590.7272727272727" type="line"/>
      <point x="368.27272727272725" y="748.8181818181819" type="line"/>
      <point x="302.8181818181818" y="762.7272727272727" type="line"/>
      <point x="288.45454545454544" y="595.8181818181819" type="line"/>
      <point x="166.1818181818182" y="717.3636363636364" type="line"/>
      <point x="126.0909090909091" y="662.8181818181819" type="line"/>
      <point x="272.3636363636364" y="573.8181818181819" type="line"/>
      <point x="102.36363636363636" y="552.5454545454545" type="line"/>
      <point x="117.18181818181819" y="488.09090909090907" type="line"/>
      <point x="277.1818181818182" y="547.2727272727273" type="line"/>
      <point x="223.27272727272728" y="389.1818181818182" type="line"/>
    </contour>
  </outline>
</glyph>
<glyph name="comma" format="2">
  <advance width="218.63636363636363"/>
  <unicode hex="002C"/>
  <outline>
    <contour>
      <point x="-36.63636363636364" y="-143.27272727272728" type="line"/>
      <point x="73.27272727272728" y="-118.72727272727273"/>
      <point x="113.45454545454545" y="-48.63636363636363"/>
      <point x="113.45454545454545" y="31.90909090909091" type="curve" smooth="yes"/>
      <point x="113.45454545454545" y="76.63636363636364"/>
      <point x="87.45454545454545" y="103.0"/>
      <point x="55.45454545454545" y="103.0" type="curve" smooth="yes"/>
      <point x="27.81818181818182" y="103.0"/>
      <point x="8.0" y="85.72727272727272"/>
      <point x="8.0" y="56.72727272727273" type="curve" smooth="yes"/>
      <point x="8.0" y="13.727272727272727"/>
      <point x="59.36363636363636" y="14.181818181818182"/>
      <point x="59.36363636363636" y="-20.90909090909091" type="curve" smooth="yes"/>
      <point x="59.36363636363636" y="-60.90909090909091"/>
      <point x="28.90909090909091" y="-94.9090909090909"/>
      <point x="-35.81818181818182" y="-111.27272727272727" type="curve"/>
    </contour>
  </outline>
</glyph>
<glyph name="hyphen" format="2">
  <advance width="310.0"/>
  <unicode hex="002D"/>
  <outline>
    <contour>
      <point x="18.09090909090909" y="249.0909090909091" type="line"/>
      <point x="278.09090909090907" y="249.0909090909091" type="line"/>
      <point x="289.09090909090907" y="301.8181818181818" type="line"/>
      <point x="29.09090909090909" y="301.8181818181818" type="line"/>
    </contour>
  </outline>
</glyph>
<glyph name="period" format="2">
  <advance width="218.63636363636363"/>
  <unicode hex="002E"/>
  <outline>
    <contour>
      <point x="58.36363636363636" y="-6.636363636363637" type="curve" smooth="yes"/>
      <point x="85.81818181818181" y="-6.636363636363637"/>
      <point x="112.63636363636364" y="13.363636363636363"/>
      <point x="112.63636363636364" y="64.54545454545455" type="curve" smooth="yes"/>
      <point x="112.63636363636364" y="89.54545454545455"/>
      <point x="95.0909090909091" y="103.54545454545455"/>
      <point x="71.18181818181819" y="103.54545454545455" type="curve" smooth="yes"/>
      <point x="44.54545454545455" y="103.54545454545455"/>
      <point x="16.0" y="81.72727272727272"/>
      <point x="16.0" y="34.36363636363636" type="curve" smooth="yes"/>
      <point x="16.0" y="8.363636363636363"/>
      <point x="33.09090909090909" y="-6.636363636363637"/>
    </contour>
  </outline>
</glyph>
<glyph name="zero" format="2">
  <advance width="537.1818181818181"/>
  <unicode hex="0030"/>
  <outline>
    <contour>
      <point x="218.45454545454547" y="-11.0" type="curve" smooth="yes"/>
      <point x="432.72727272727275" y="-11.0"/>
      <point x="512.7272727272727" y="289.0"/>
      <point x="512.7272727272727" y="493.27272727272725" type="curve" smooth="yes"/>
      <point x="512.7272727272727" y="658.1818181818181"/>
      <point x="434.6363636363636" y="724.0909090909091"/>
      <point x="335.45454545454544" y="724.0909090909091" type="curve" smooth="yes"/>
      <point x="128.0909090909091" y="724.0909090909091"/>
      <point x="40.45454545454545" y="428.90909090909093"/>
      <point x="40.45454545454545" y="225.54545454545453" type="curve" smooth="yes"/>
      <point x="40.45454545454545" y="69.81818181818181"/>
      <point x="110.27272727272728" y="-11.0"/>
    </contour>
    <contour>
      <point x="225.0909090909091" y="30.363636363636363" type="curve" smooth="yes"/>
      <point x="151.0909090909091" y="30.363636363636363"/>
      <point x="106.0909090909091" y="86.45454545454545"/>
      <point x="106.0909090909091" y="210.63636363636363" type="curve" smooth="yes"/>
      <point x="106.0909090909091" y="387.0"/>
      <point x="167.36363636363637" y="683.2727272727273"/>
      <point x="329.54545454545456" y="683.2727272727273" type="curve" smooth="yes"/>
      <point x="400.54545454545456" y="683.2727272727273"/>
      <point x="447.09090909090907" y="633.0909090909091"/>
      <point x="447.09090909090907" y="501.3636363636364" type="curve" smooth="yes"/>
      <point x="447.09090909090907" y="322.1818181818182"/>
      <point x="388.72727272727275" y="30.363636363636363"/>
    </contour>
  </outline>
</glyph>
<glyph name="one" format="2">
  <advance width="537.1818181818181"/>
  <unicode hex="0031"/>
  <outline>
    <contour>
      <point x="38.90909090909091" y="0.0" type="line"/>
      <point x="383.1818181818182" y="0.0" type="line"/>
      <point x="390.3636363636364" y="32.0" type="line"/>
      <point x="320.0" y="32.0" type="line" smooth="yes"/>
      <point x="279.8181818181818" y="32.0"/>
      <point x="260.27272727272725" y="37.09090909090909"/>
      <point x="260.27272727272725" y="63.36363636363636" type="curve" smooth="yes"/>
      <point x="260.27272727272725" y="72.0909090909091"/>
      <point x="262.27272727272725" y="85.18181818181819"/>
      <point x="264.72727272727275" y="96.36363636363636" type="curve" smooth="yes"/>
      <point x="396.45454545454544" y="718.0" type="line"/>
      <point x="357.90909090909093" y="718.0" type="line"/>
      <point x="284.6363636363636" y="670.5454545454545" type="line" smooth="yes"/>
      <point x="208.63636363636363" y="621.0909090909091"/>
      <point x="170.27272727272728" y="605.0909090909091"/>
      <point x="124.27272727272727" y="594.0" type="curve"/>
      <point x="124.27272727272727" y="572.0909090909091"/>
      <point x="132.1818181818182" y="555.9090909090909"/>
      <point x="157.45454545454547" y="555.9090909090909" type="curve" smooth="yes"/>
      <point x="195.45454545454547" y="555.9090909090909"/>
      <point x="241.45454545454547" y="592.1818181818181"/>
      <point x="316.6363636363636" y="657.1818181818181" type="curve"/>
      <point x="319.27272727272725" y="657.1818181818181" type="line"/>
      <point x="309.0" y="616.0909090909091"/>
      <point x="296.45454545454544" y="564.4545454545455"/>
      <point x="279.09090909090907" y="482.0" type="curve" smooth="yes"/>
      <point x="197.45454545454547" y="98.54545454545455" type="line" smooth="yes"/>
      <point x="184.9090909090909" y="38.27272727272727"/>
      <point x="159.9090909090909" y="32.0"/>
      <point x="108.54545454545455" y="32.0" type="curve" smooth="yes"/>
      <point x="45.54545454545455" y="32.0" type="line"/>
    </contour>
  </outline>
</glyph>
<glyph name="two" format="2">
  <advance width="537.1818181818181"/>
  <unicode hex="0032"/>
  <outline>
    <contour>
      <point x="-9.727272727272727" y="0.0" type="line"/>
      <point x="400.09090909090907" y="0.0" type="line"/>
      <point x="434.6363636363636" y="152.36363636363637" type="line"/>
      <point x="402.6363636363636" y="152.36363636363637" type="line"/>
      <point x="392.90909090909093" y="121.81818181818181" type="line" smooth="yes"/>
      <point x="377.27272727272725" y="77.9090909090909"/>
      <point x="363.09090909090907" y="55.0"/>
      <point x="304.3636363636364" y="55.0" type="curve" smooth="yes"/>
      <point x="56.45454545454545" y="55.0" type="line"/>
      <point x="287.8181818181818" y="267.45454545454544" type="line" smooth="yes"/>
      <point x="423.72727272727275" y="392.6363636363636"/>
      <point x="487.6363636363636" y="474.09090909090907"/>
      <point x="487.6363636363636" y="574.3636363636364" type="curve" smooth="yes"/>
      <point x="487.6363636363636" y="666.1818181818181"/>
      <point x="423.6363636363636" y="724.0"/>
      <point x="309.09090909090907" y="724.0" type="curve" smooth="yes"/>
      <point x="179.63636363636363" y="724.0"/>
      <point x="108.81818181818181" y="650.0909090909091"/>
      <point x="108.81818181818181" y="586.5454545454545" type="curve" smooth="yes"/>
      <point x="108.81818181818181" y="554.7272727272727"/>
      <point x="128.8181818181818" y="540.7272727272727"/>
      <point x="158.9090909090909" y="540.7272727272727" type="curve"/>
      <point x="166.0" y="617.5454545454545"/>
      <point x="213.0909090909091" y="685.3636363636364"/>
      <point x="306.3636363636364" y="685.3636363636364" type="curve" smooth="yes"/>
      <point x="376.72727272727275" y="685.3636363636364"/>
      <point x="419.27272727272725" y="640.7272727272727"/>
      <point x="419.27272727272725" y="571.6363636363636" type="curve" smooth="yes"/>
      <point x="419.27272727272725" y="475.6363636363636"/>
      <point x="374.45454545454544" y="399.90909090909093"/>
      <point x="245.8181818181818" y="281.6363636363636" type="curve" smooth="yes"/>
      <point x="5.818181818181818" y="60.09090909090909" type="line"/>
    </contour>
  </outline>
</glyph>
<glyph name="three" format="2">
  <advance width="537.1818181818181"/>
  <unicode hex="0033"/>
  <outline>
    <contour>
      <point x="189.1818181818182" y="-10.0" type="curve" smooth="yes"/>
      <point x="320.90909090909093" y="-10.0"/>
      <point x="441.0" y="58.0"/>
      <point x="441.0" y="225.0" type="curve" smooth="yes"/>
      <point x="441.0" y="311.90909090909093"/>
      <point x="379.8181818181818" y="367.3636363636364"/>
      <point x="299.6363636363636" y="375.54545454545456" type="curve"/>
      <point x="428.1818181818182" y="394.54545454545456"/>
      <point x="492.0" y="479.3636363636364"/>
      <point x="492.0" y="576.4545454545455" type="curve" smooth="yes"/>
      <point x="492.0" y="667.4545454545455"/>
      <point x="420.72727272727275" y="724.0"/>
      <point x="318.0" y="724.0" type="curve" smooth="yes"/>
      <point x="200.0909090909091" y="724.0"/>
      <point x="115.72727272727273" y="660.0909090909091"/>
      <point x="115.72727272727273" y="581.7272727272727" type="curve" smooth="yes"/>
      <point x="115.72727272727273" y="544.5454545454545"/>
      <point x="139.0909090909091" y="531.3636363636364"/>
      <point x="167.9090909090909" y="531.3636363636364" type="curve"/>
      <point x="177.1818181818182" y="611.7272727272727"/>
      <point x="213.0" y="685.3636363636364"/>
      <point x="315.3636363636364" y="685.3636363636364" type="curve" smooth="yes"/>
      <point x="386.1818181818182" y="685.3636363636364"/>
      <point x="423.09090909090907" y="639.1818181818181"/>
      <point x="423.09090909090907" y="577.0909090909091" type="curve" smooth="yes"/>
      <point x="423.09090909090907" y="461.8181818181818"/>
      <point x="336.0" y="392.27272727272725"/>
      <point x="223.54545454545453" y="392.27272727272725" type="curve" smooth="yes"/>
      <point x="191.54545454545453" y="392.27272727272725" type="line"/>
      <point x="182.45454545454547" y="353.09090909090907" type="line"/>
      <point x="224.54545454545453" y="353.09090909090907" type="line" smooth="yes"/>
      <point x="316.72727272727275" y="353.09090909090907"/>
      <point x="371.0" y="299.1818181818182"/>
      <point x="371.0" y="218.54545454545453" type="curve" smooth="yes"/>
      <point x="371.0" y="92.9090909090909"/>
      <point x="295.6363636363636" y="31.363636363636363"/>
      <point x="193.9090909090909" y="31.363636363636363" type="curve" smooth="yes"/>
      <point x="96.18181818181819" y="31.363636363636363"/>
      <point x="55.27272727272727" y="86.18181818181819"/>
      <point x="55.27272727272727" y="153.54545454545456" type="curve"/>
      <point x="24.636363636363637" y="153.54545454545456"/>
      <point x="2.454545454545454" y="132.9090909090909"/>
      <point x="2.454545454545454" y="100.9090909090909" type="curve" smooth="yes"/>
      <point x="2.454545454545454" y="43.63636363636363"/>
      <point x="54.36363636363636" y="-10.0"/>
    </contour>
  </outline>
</glyph>
<glyph name="four" format="2">
  <advance width="537.1818181818181"/>
  <unicode hex="0034"/>
  <outline>
    <contour>
      <point x="127.0909090909091" y="0.0" type="line"/>
      <point x="438.1818181818182" y="0.0" type="line"/>
      <point x="445.3636363636364" y="32.0" type="line"/>
      <point x="405.0909090909091" y="32.0" type="line" smooth="yes"/>
      <point x="362.1818181818182" y="32.0"/>
      <point x="343.0909090909091" y="36.63636363636364"/>
      <point x="343.0909090909091" y="67.45454545454545" type="curve" smooth="yes"/>
      <point x="343.0909090909091" y="73.45454545454545"/>
      <point x="345.0909090909091" y="87.45454545454545"/>
      <point x="347.54545454545456" y="98.18181818181819" type="curve" smooth="yes"/>
      <point x="477.8181818181818" y="714.0" type="line"/>
      <point x="408.1818181818182" y="714.0" type="line"/>
      <point x="5.909090909090908" y="234.27272727272728" type="line"/>
      <point x="-0.8181818181818183" y="204.1818181818182" type="line"/>
      <point x="495.3636363636364" y="204.1818181818182" type="line"/>
      <point x="504.1818181818182" y="246.0909090909091" type="line"/>
      <point x="46.27272727272727" y="246.0909090909091" type="line"/>
      <point x="54.45454545454545" y="228.8181818181818" type="line"/>
      <point x="317.3636363636364" y="545.7272727272727" type="line" smooth="yes"/>
      <point x="344.27272727272725" y="578.3636363636364"/>
      <point x="387.90909090909093" y="632.1818181818181"/>
      <point x="406.27272727272725" y="659.8181818181819" type="curve"/>
      <point x="388.1818181818182" y="597.8181818181819"/>
      <point x="373.3636363636364" y="532.4545454545455"/>
      <point x="360.0" y="469.45454545454544" type="curve" smooth="yes"/>
      <point x="283.0" y="100.36363636363636" type="line" smooth="yes"/>
      <point x="270.45454545454544" y="39.63636363636364"/>
      <point x="246.36363636363637" y="32.0"/>
      <point x="197.72727272727272" y="32.0" type="curve" smooth="yes"/>
      <point x="133.72727272727272" y="32.0" type="line"/>
    </contour>
  </outline>
</glyph>
<glyph name="five" format="2">
  <advance width="537.1818181818181"/>
  <unicode hex="0035"/>
  <outline>
    <contour>
      <point x="189.8181818181818" y="-10.0" type="curve" smooth="yes"/>
      <point x="353.1818181818182" y="-10.0"/>
      <point x="449.27272727272725" y="98.0909090909091"/>
      <point x="449.27272727272725" y="240.27272727272728" type="curve" smooth="yes"/>
      <point x="449.27272727272725" y="358.3636363636364"/>
      <point x="370.0" y="423.3636363636364"/>
      <point x="252.45454545454547" y="423.3636363636364" type="curve" smooth="yes"/>
      <point x="210.1818181818182" y="423.3636363636364"/>
      <point x="179.8181818181818" y="414.3636363636364"/>
      <point x="158.72727272727272" y="407.3636363636364" type="curve"/>
      <point x="234.72727272727272" y="659.0" type="line"/>
      <point x="418.27272727272725" y="659.0" type="line" smooth="yes"/>
      <point x="455.6363636363636" y="659.0"/>
      <point x="462.45454545454544" y="652.1818181818181"/>
      <point x="462.45454545454544" y="635.9090909090909" type="curve" smooth="yes"/>
      <point x="462.45454545454544" y="627.9090909090909"/>
      <point x="460.45454545454544" y="606.8181818181819"/>
      <point x="458.09090909090907" y="581.6363636363636" type="curve"/>
      <point x="490.09090909090907" y="581.6363636363636" type="line"/>
      <point x="516.1818181818181" y="714.0" type="line"/>
      <point x="210.8181818181818" y="714.0" type="line"/>
      <point x="106.0909090909091" y="368.8181818181818" type="line"/>
      <point x="129.1818181818182" y="360.0" type="line"/>
      <point x="159.0" y="371.0"/>
      <point x="186.72727272727272" y="382.0"/>
      <point x="239.54545454545453" y="382.0" type="curve" smooth="yes"/>
      <point x="324.3636363636364" y="382.0"/>
      <point x="379.8181818181818" y="327.45454545454544"/>
      <point x="379.8181818181818" y="236.45454545454547" type="curve" smooth="yes"/>
      <point x="379.8181818181818" y="102.63636363636364"/>
      <point x="301.72727272727275" y="31.363636363636363"/>
      <point x="194.27272727272728" y="31.363636363636363" type="curve" smooth="yes"/>
      <point x="104.63636363636364" y="31.363636363636363"/>
      <point x="70.81818181818181" y="89.18181818181819"/>
      <point x="69.81818181818181" y="150.1818181818182" type="curve"/>
      <point x="33.72727272727273" y="150.1818181818182"/>
      <point x="17.545454545454547" y="132.0"/>
      <point x="17.545454545454547" y="104.0909090909091" type="curve" smooth="yes"/>
      <point x="17.545454545454547" y="50.45454545454545"/>
      <point x="65.81818181818181" y="-10.0"/>
    </contour>
  </outline>
</glyph>
<glyph name="six" format="2">
  <advance width="537.1818181818181"/>
  <unicode hex="0036"/>
  <outline>
    <contour>
      <point x="243.9090909090909" y="-10.0" type="curve" smooth="yes"/>
      <point x="397.09090909090907" y="-10.0"/>
      <point x="471.54545454545456" y="119.0909090909091"/>
      <point x="471.54545454545456" y="258.09090909090907" type="curve" smooth="yes"/>
      <point x="471.54545454545456" y="352.1818181818182"/>
      <point x="416.72727272727275" y="431.27272727272725"/>
      <point x="304.3636363636364" y="431.27272727272725" type="curve" smooth="yes"/>
      <point x="238.54545454545456" y="431.27272727272725"/>
      <point x="182.36363636363637" y="403.0"/>
      <point x="146.45454545454547" y="373.8181818181818" type="curve"/>
      <point x="186.27272727272728" y="565.9090909090909"/>
      <point x="280.90909090909093" y="686.4545454545455"/>
      <point x="390.45454545454544" y="686.4545454545455" type="curve" smooth="yes"/>
      <point x="458.27272727272725" y="686.4545454545455"/>
      <point x="473.45454545454544" y="633.9090909090909"/>
      <point x="473.45454545454544" y="574.0" type="curve"/>
      <point x="512.5454545454545" y="574.0"/>
      <point x="533.1818181818181" y="596.5454545454545"/>
      <point x="533.1818181818181" y="627.6363636363636" type="curve" smooth="yes"/>
      <point x="533.1818181818181" y="676.5454545454545"/>
      <point x="485.27272727272725" y="724.0"/>
      <point x="394.27272727272725" y="724.0" type="curve" smooth="yes"/>
      <point x="201.36363636363637" y="724.0"/>
      <point x="64.54545454545455" y="499.1818181818182"/>
      <point x="64.54545454545455" y="228.36363636363637" type="curve" smooth="yes"/>
      <point x="64.54545454545455" y="69.0909090909091"/>
      <point x="140.36363636363637" y="-10.0"/>
    </contour>
    <contour>
      <point x="247.63636363636363" y="31.363636363636363" type="curve" smooth="yes"/>
      <point x="173.27272727272728" y="31.363636363636363"/>
      <point x="126.9090909090909" y="89.18181818181819"/>
      <point x="126.9090909090909" y="208.1818181818182" type="curve" smooth="yes"/>
      <point x="126.9090909090909" y="242.54545454545453"/>
      <point x="130.0909090909091" y="280.8181818181818"/>
      <point x="138.63636363636363" y="328.1818181818182" type="curve"/>
      <point x="181.63636363636363" y="365.72727272727275"/>
      <point x="237.8181818181818" y="392.09090909090907"/>
      <point x="293.45454545454544" y="392.09090909090907" type="curve" smooth="yes"/>
      <point x="362.0" y="392.09090909090907"/>
      <point x="404.8181818181818" y="340.6363636363636"/>
      <point x="404.8181818181818" y="253.9090909090909" type="curve" smooth="yes"/>
      <point x="404.8181818181818" y="134.0909090909091"/>
      <point x="344.72727272727275" y="31.363636363636363"/>
    </contour>
  </outline>
</glyph>
<glyph name="seven" format="2">
  <advance width="537.1818181818181"/>
  <unicode hex="0037"/>
  <outline>
    <contour>
      <point x="124.36363636363636" y="0.0" type="line"/>
      <point x="178.45454545454547" y="0.0" type="line"/>
      <point x="552.1818181818181" y="688.1818181818181" type="line"/>
      <point x="557.7272727272727" y="714.0" type="line"/>
      <point x="136.63636363636363" y="714.0" type="line"/>
      <point x="95.45454545454545" y="549.3636363636364" type="line"/>
      <point x="127.45454545454545" y="549.3636363636364" type="line"/>
      <point x="144.1818181818182" y="607.0909090909091" type="line" smooth="yes"/>
      <point x="155.9090909090909" y="647.8181818181819"/>
      <point x="170.8181818181818" y="659.0"/>
      <point x="210.45454545454547" y="659.0" type="curve" smooth="yes"/>
      <point x="487.54545454545456" y="659.0" type="line"/>
    </contour>
  </outline>
</glyph>
<glyph name="eight" format="2">
  <advance width="537.1818181818181"/>
  <unicode hex="0038"/>
  <outline>
    <contour>
      <point x="231.0909090909091" y="-10.0" type="curve" smooth="yes"/>
      <point x="359.27272727272725" y="-10.0"/>
      <point x="469.1818181818182" y="52.81818181818182"/>
      <point x="469.1818181818182" y="193.36363636363637" type="curve" smooth="yes"/>
      <point x="469.1818181818182" y="278.45454545454544"/>
      <point x="419.45454545454544" y="333.3636363636364"/>
      <point x="330.3636363636364" y="379.6363636363636" type="curve"/>
      <point x="445.90909090909093" y="421.3636363636364"/>
      <point x="518.0" y="477.0"/>
      <point x="518.0" y="578.0" type="curve" smooth="yes"/>
      <point x="518.0" y="660.6363636363636"/>
      <point x="453.8181818181818" y="724.0"/>
      <point x="337.1818181818182" y="724.0" type="curve" smooth="yes"/>
      <point x="183.54545454545453" y="724.0"/>
      <point x="113.63636363636364" y="638.5454545454545"/>
      <point x="113.63636363636364" y="539.6363636363636" type="curve" smooth="yes"/>
      <point x="113.63636363636364" y="472.54545454545456"/>
      <point x="150.63636363636363" y="418.45454545454544"/>
      <point x="222.54545454545453" y="373.1818181818182" type="curve"/>
      <point x="103.81818181818181" y="330.1818181818182"/>
      <point x="15.90909090909091" y="269.45454545454544"/>
      <point x="15.90909090909091" y="157.45454545454547" type="curve" smooth="yes"/>
      <point x="15.90909090909091" y="60.63636363636363"/>
      <point x="92.36363636363636" y="-10.0"/>
    </contour>
    <contour>
      <point x="232.72727272727272" y="28.090909090909093" type="curve" smooth="yes"/>
      <point x="134.45454545454547" y="28.090909090909093"/>
      <point x="81.0" y="79.18181818181819"/>
      <point x="81.0" y="156.8181818181818" type="curve" smooth="yes"/>
      <point x="81.0" y="253.27272727272728"/>
      <point x="155.27272727272728" y="317.27272727272725"/>
      <point x="259.45454545454544" y="352.1818181818182" type="curve"/>
      <point x="359.54545454545456" y="304.3636363636364"/>
      <point x="404.6363636363636" y="260.0"/>
      <point x="404.6363636363636" y="179.36363636363637" type="curve" smooth="yes"/>
      <point x="404.6363636363636" y="78.63636363636364"/>
      <point x="330.45454545454544" y="28.090909090909093"/>
    </contour>
    <contour>
      <point x="292.3636363636364" y="399.54545454545456" type="curve"/>
      <point x="212.27272727272728" y="441.6363636363636"/>
      <point x="178.72727272727272" y="484.09090909090907"/>
      <point x="178.72727272727272" y="545.6363636363636" type="curve" smooth="yes"/>
      <point x="178.72727272727272" y="627.5454545454545"/>
      <point x="240.45454545454547" y="685.3636363636364"/>
      <point x="332.3636363636364" y="685.3636363636364" type="curve" smooth="yes"/>
      <point x="418.72727272727275" y="685.3636363636364"/>
      <point x="456.72727272727275" y="635.9090909090909"/>
      <point x="456.72727272727275" y="574.1818181818181" type="curve" smooth="yes"/>
      <point x="456.72727272727275" y="495.09090909090907"/>
      <point x="411.0" y="443.0"/>
    </contour>
  </outline>
</glyph>
<glyph name="nine" format="2">
  <advance width="537.1818181818181"/>
  <unicode hex="0039"/>
  <outline>
    <contour>
      <point x="185.0" y="-10.0" type="curve" smooth="yes"/>
      <point x="402.8181818181818" y="-10.0"/>
      <point x="501.8181818181818" y="307.0"/>
      <point x="501.8181818181818" y="520.1818181818181" type="curve" smooth="yes"/>
      <point x="501.8181818181818" y="649.3636363636364"/>
      <point x="430.3636363636364" y="724.0"/>
      <point x="322.90909090909093" y="724.0" type="curve" smooth="yes"/>
      <point x="185.8181818181818" y="724.0"/>
      <point x="76.63636363636364" y="617.0909090909091"/>
      <point x="76.63636363636364" y="450.09090909090907" type="curve" smooth="yes"/>
      <point x="76.63636363636364" y="353.09090909090907"/>
      <point x="138.54545454545453" y="281.8181818181818"/>
      <point x="247.45454545454547" y="281.8181818181818" type="curve" smooth="yes"/>
      <point x="317.45454545454544" y="281.8181818181818"/>
      <point x="378.27272727272725" y="318.90909090909093"/>
      <point x="414.54545454545456" y="357.54545454545456" type="curve"/>
      <point x="371.54545454545456" y="153.45454545454547"/>
      <point x="292.1818181818182" y="28.090909090909093"/>
      <point x="189.36363636363637" y="28.090909090909093" type="curve" smooth="yes"/>
      <point x="115.45454545454545" y="28.090909090909093"/>
      <point x="90.9090909090909" y="73.81818181818181"/>
      <point x="90.36363636363636" y="130.27272727272728" type="curve"/>
      <point x="61.54545454545455" y="130.27272727272728"/>
      <point x="45.90909090909091" y="111.18181818181819"/>
      <point x="45.90909090909091" y="84.54545454545455" type="curve" smooth="yes"/>
      <point x="45.90909090909091" y="40.09090909090909"/>
      <point x="76.0909090909091" y="-10.0"/>
    </contour>
    <contour>
      <point x="261.09090909090907" y="323.1818181818182" type="curve" smooth="yes"/>
      <point x="187.72727272727272" y="323.1818181818182"/>
      <point x="143.9090909090909" y="373.8181818181818"/>
      <point x="143.9090909090909" y="448.45454545454544" type="curve" smooth="yes"/>
      <point x="143.9090909090909" y="578.2727272727273"/>
      <point x="217.72727272727272" y="682.6363636363636"/>
      <point x="321.27272727272725" y="682.6363636363636" type="curve" smooth="yes"/>
      <point x="387.09090909090907" y="682.6363636363636"/>
      <point x="438.3636363636364" y="632.7272727272727"/>
      <point x="438.3636363636364" y="523.4545454545455" type="curve" smooth="yes"/>
      <point x="438.3636363636364" y="498.54545454545456"/>
      <point x="434.09090909090907" y="451.8181818181818"/>
      <point x="426.45454545454544" y="415.0" type="curve"/>
      <point x="392.8181818181818" y="372.1818181818182"/>
      <point x="333.8181818181818" y="323.1818181818182"/>
    </contour>
  </outline>
</glyph>
<glyph name="colon" format="2">
  <advance width="244.63636363636363"/>
  <unicode hex="003A"/>
  <outline>
    <contour>
      <point x="161.1818181818182" y="430.27272727272725" type="curve" smooth="yes"/>
      <point x="188.63636363636363" y="430.27272727272725"/>
      <point x="215.45454545454544" y="450.27272727272725"/>
      <point x="215.45454545454544" y="499.27272727272725" type="curve" smooth="yes"/>
      <point x="215.45454545454544" y="526.4545454545455"/>
      <point x="197.9090909090909" y="540.4545454545455"/>
      <point x="174.0" y="540.4545454545455" type="curve" smooth="yes"/>
      <point x="147.36363636363637" y="540.4545454545455"/>
      <point x="118.81818181818181" y="518.6363636363636"/>
      <point x="118.81818181818181" y="473.45454545454544" type="curve" smooth="yes"/>
      <point x="118.81818181818181" y="445.27272727272725"/>
      <point x="135.9090909090909" y="430.27272727272725"/>
    </contour>
    <contour>
      <point x="68.45454545454545" y="-6.636363636363637" type="curve" smooth="yes"/>
      <point x="95.9090909090909" y="-6.636363636363637"/>
      <point x="122.72727272727272" y="13.363636363636363"/>
      <point x="122.72727272727272" y="62.36363636363636" type="curve" smooth="yes"/>
      <point x="122.72727272727272" y="89.54545454545455"/>
      <point x="105.18181818181819" y="103.54545454545455"/>
      <point x="81.27272727272728" y="103.54545454545455" type="curve" smooth="yes"/>
      <point x="54.63636363636364" y="103.54545454545455"/>
      <point x="26.09090909090909" y="81.72727272727272"/>
      <point x="26.09090909090909" y="36.54545454545455" type="curve" smooth="yes"/>
      <point x="26.09090909090909" y="8.363636363636363"/>
      <point x="43.18181818181818" y="-6.636363636363637"/>
    </contour>
  </outline>
</glyph>
<glyph name="semicolon" format="2">
  <advance width="244.63636363636363"/>
  <unicode hex="003B"/>
  <outline>
    <contour>
      <point x="-25.727272727272727" y="-143.27272727272728" type="line"/>
      <point x="84.18181818181819" y="-118.72727272727273"/>
      <point x="124.36363636363637" y="-48.63636363636363"/>
      <point x="124.36363636363637" y="31.90909090909091" type="curve" smooth="yes"/>
      <point x="124.36363636363637" y="76.63636363636364"/>
      <point x="98.36363636363637" y="103.0"/>
      <point x="66.36363636363636" y="103.0" type="curve" smooth="yes"/>
      <point x="38.72727272727273" y="103.0"/>
      <point x="18.90909090909091" y="85.72727272727272"/>
      <point x="18.90909090909091" y="56.72727272727273" type="curve" smooth="yes"/>
      <point x="18.90909090909091" y="13.727272727272727"/>
      <point x="70.27272727272728" y="14.181818181818182"/>
      <point x="70.27272727272728" y="-20.90909090909091" type="curve" smooth="yes"/>
      <point x="70.27272727272728" y="-60.90909090909091"/>
      <point x="39.81818181818182" y="-94.9090909090909"/>
      <point x="-24.90909090909091" y="-111.27272727272727" type="curve"/>
    </contour>
    <contour>
      <point x="161.1818181818182" y="430.27272727272725" type="curve" smooth="yes"/>
      <point x="188.63636363636363" y="430.27272727272725"/>
      <point x="215.45454545454544" y="450.27272727272725"/>
      <point x="215.45454545454544" y="499.27272727272725" type="curve" smooth="yes"/>
      <point x="215.45454545454544" y="526.4545454545455"/>
      <point x="197.9090909090909" y="540.4545454545455"/>
      <point x="174.0" y="540.4545454545455" type="curve" smooth="yes"/>
      <point x="147.36363636363637" y="540.4545454545455"/>
      <point x="118.81818181818181" y="518.6363636363636"/>
      <point x="118.81818181818181" y="473.45454545454544" type="curve" smooth="yes"/>
      <point x="118.81818181818181" y="445.27272727272725"/>
      <point x="135.9090909090909" y="430.27272727272725"/>
    </contour>
  </outline>
</glyph>
<glyph name="equal" format="2">
  <advance width="559.0"/>
  <unicode hex="003D"/>
  <outline>
    <contour>
      <point x="65.9090909090909" y="437.3636363636364" type="line"/>
      <point x="492.1818181818182" y="437.3636363636364" type="line"/>
      <point x="492.1818181818182" y="482.27272727272725" type="line"/>
      <point x="65.9090909090909" y="482.27272727272725" type="line"/>
    </contour>
    <contour>
      <point x="65.9090909090909" y="231.72727272727272" type="line"/>
      <point x="492.1818181818182" y="231.72727272727272" type="line"/>
      <point x="492.1818181818182" y="276.6363636363636" type="line"/>
      <point x="65.9090909090909" y="276.6363636363636" type="line"/>
    </contour>
  </outline>
</glyph>
<glyph name="question" format="2">
  <advance width="471.3636363636364"/>
  <unicode hex="003F"/>
  <outline>
    <contour>
      <point x="172.54545454545456" y="185.0909090909091" type="line"/>
      <point x="213.45454545454544" y="185.0909090909091" type="line"/>
      <point x="243.27272727272728" y="319.27272727272725" type="line"/>
      <point x="386.45454545454544" y="373.90909090909093"/>
      <point x="485.1818181818182" y="446.54545454545456"/>
      <point x="485.1818181818182" y="566.1818181818181" type="curve" smooth="yes"/>
      <point x="485.1818181818182" y="669.3636363636364"/>
      <point x="416.72727272727275" y="724.0"/>
      <point x="312.09090909090907" y="724.0" type="curve" smooth="yes"/>
      <point x="188.27272727272728" y="724.0"/>
      <point x="122.81818181818181" y="657.0"/>
      <point x="122.81818181818181" y="586.0909090909091" type="curve" smooth="yes"/>
      <point x="122.81818181818181" y="558.0909090909091"/>
      <point x="139.1818181818182" y="541.5454545454545"/>
      <point x="170.72727272727272" y="541.5454545454545" type="curve"/>
      <point x="180.9090909090909" y="619.3636363636364"/>
      <point x="212.54545454545456" y="685.3636363636364"/>
      <point x="308.8181818181818" y="685.3636363636364" type="curve" smooth="yes"/>
      <point x="372.09090909090907" y="685.3636363636364"/>
      <point x="419.0" y="642.2727272727273"/>
      <point x="419.0" y="570.5454545454545" type="curve" smooth="yes"/>
      <point x="419.0" y="464.09090909090907"/>
      <point x="338.90909090909093" y="395.8181818181818"/>
      <point x="201.9090909090909" y="344.45454545454544" type="curve"/>
    </contour>
    <contour>
      <point x="166.54545454545456" y="-6.636363636363637" type="curve" smooth="yes"/>
      <point x="194.0" y="-6.636363636363637"/>
      <point x="220.8181818181818" y="13.363636363636363"/>
      <point x="220.8181818181818" y="62.36363636363636" type="curve" smooth="yes"/>
      <point x="220.8181818181818" y="89.54545454545455"/>
      <point x="203.27272727272728" y="103.54545454545455"/>
      <point x="179.36363636363637" y="103.54545454545455" type="curve" smooth="yes"/>
      <point x="152.72727272727272" y="103.54545454545455"/>
      <point x="124.18181818181819" y="81.72727272727272"/>
      <point x="124.18181818181819" y="36.54545454545455" type="curve" smooth="yes"/>
      <point x="124.18181818181819" y="8.363636363636363"/>
      <point x="141.27272727272728" y="-6.636363636363637"/>
    </contour>
  </outline>
</glyph>
<glyph name="bracketleft" format="2">
  <advance width="328.1818181818182"/>
  <unicode hex="005B"/>
  <outline>
    <contour>
      <point x="-4.545454545454545" y="-128.0" type="line"/>
      <point x="187.54545454545456" y="-128.0" type="line"/>
      <point x="194.72727272727272" y="-96.0" type="line"/>
      <point x="138.0909090909091" y="-96.0" type="line" smooth="yes"/>
      <point x="94.27272727272728" y="-96.0"/>
      <point x="76.0909090909091" y="-90.9090909090909"/>
      <point x="76.0909090909091" y="-65.54545454545455" type="curve" smooth="yes"/>
      <point x="76.0909090909091" y="-57.72727272727273"/>
      <point x="78.54545454545455" y="-42.81818181818181"/>
      <point x="81.45454545454545" y="-29.81818181818182" type="curve"/>
      <point x="228.45454545454544" y="658.7272727272727" type="line"/>
      <point x="241.45454545454544" y="721.7272727272727"/>
      <point x="264.54545454545456" y="728.0"/>
      <point x="315.0" y="728.0" type="curve" smooth="yes"/>
      <point x="368.90909090909093" y="728.0" type="line"/>
      <point x="376.0909090909091" y="760.0" type="line"/>
      <point x="184.0" y="760.0" type="line"/>
    </contour>
  </outline>
</glyph>
<glyph name="backslash" format="2">
  <advance width="288.0"/>
  <unicode hex="005C"/>
  <outline>
    <contour>
      <point x="162.27272727272728" y="-121.0" type="line"/>
      <point x="206.72727272727272" y="-121.0" type="line"/>
      <point x="163.27272727272728" y="760.0" type="line"/>
      <point x="119.36363636363636" y="760.0" type="line"/>
    </contour>
  </outline>
</glyph>
<glyph name="bracketright" format="2">
  <advance width="328.1818181818182"/>
  <unicode hex="005D"/>
  <outline>
    <contour>
      <point x="-40.63636363636364" y="-128.0" type="line"/>
      <point x="150.9090909090909" y="-128.0" type="line"/>
      <point x="339.45454545454544" y="760.0" type="line"/>
      <point x="147.36363636363637" y="760.0" type="line"/>
      <point x="140.1818181818182" y="728.0" type="line"/>
      <point x="196.8181818181818" y="728.0" type="line" smooth="yes"/>
      <point x="240.63636363636363" y="728.0"/>
      <point x="258.8181818181818" y="722.9090909090909"/>
      <point x="258.8181818181818" y="697.5454545454545" type="curve" smooth="yes"/>
      <point x="258.8181818181818" y="689.7272727272727"/>
      <point x="256.3636363636364" y="674.8181818181819"/>
      <point x="253.45454545454547" y="661.8181818181819" type="curve" smooth="yes"/>
      <point x="106.45454545454545" y="-26.727272727272727" type="line"/>
      <point x="93.45454545454545" y="-89.72727272727272"/>
      <point x="70.36363636363636" y="-96.0"/>
      <point x="20.454545454545453" y="-96.0" type="curve" smooth="yes"/>
      <point x="-33.45454545454545" y="-96.0" type="line"/>
    </contour>
  </outline>
</glyph>
<glyph name="underscore" format="2">
  <advance width="459.0"/>
  <unicode hex="005F"/>
  <outline>
    <contour>
      <point x="-88.27272727272727" y="-126.54545454545455" type="line"/>
      <point x="380.1818181818182" y="-126.54545454545455" type="line"/>
      <point x="389.54545454545456" y="-83.0" type="line"/>
      <point x="-78.9090909090909" y="-83.0" type="line"/>
    </contour>
  </outline>
</glyph>
<glyph name="braceleft" format="2">
  <advance width="419.8181818181818"/>
  <unicode hex="007B"/>
  <outline>
    <contour>
      <point x="228.36363636363637" y="-129.8181818181818" type="curve" smooth="yes"/>
      <point x="284.3636363636364" y="-129.8181818181818" type="line"/>
      <point x="291.54545454545456" y="-95.0" type="line"/>
      <point x="254.72727272727272" y="-95.0" type="line" smooth="yes"/>
      <point x="212.0" y="-95.0"/>
      <point x="191.0909090909091" y="-75.72727272727272"/>
      <point x="191.0909090909091" y="-30.636363636363637" type="curve" smooth="yes"/>
      <point x="191.0909090909091" y="-15.90909090909091"/>
      <point x="193.54545454545456" y="1.272727272727273"/>
      <point x="197.0" y="18.636363636363637" type="curve" smooth="yes"/>
      <point x="231.72727272727272" y="179.72727272727272" type="line" smooth="yes"/>
      <point x="235.0909090909091" y="196.1818181818182"/>
      <point x="237.54545454545456" y="210.72727272727272"/>
      <point x="237.54545454545456" y="226.1818181818182" type="curve" smooth="yes"/>
      <point x="237.54545454545456" y="271.45454545454544"/>
      <point x="211.63636363636363" y="305.8181818181818"/>
      <point x="154.9090909090909" y="313.09090909090907" type="curve"/>
      <point x="154.9090909090909" y="316.6363636363636" type="line"/>
      <point x="233.0" y="326.90909090909093"/>
      <point x="271.54545454545456" y="371.27272727272725"/>
      <point x="286.45454545454544" y="440.90909090909093" type="curve" smooth="yes"/>
      <point x="323.45454545454544" y="613.8181818181819" type="line" smooth="yes"/>
      <point x="341.6363636363636" y="697.2727272727273"/>
      <point x="365.8181818181818" y="725.1818181818181"/>
      <point x="431.6363636363636" y="725.1818181818181" type="curve" smooth="yes"/>
      <point x="459.3636363636364" y="725.1818181818181" type="line"/>
      <point x="466.54545454545456" y="760.0" type="line"/>
      <point x="418.27272727272725" y="760.0" type="line" smooth="yes"/>
      <point x="307.6363636363636" y="760.0"/>
      <point x="280.0" y="717.1818181818181"/>
      <point x="258.72727272727275" y="617.8181818181819" type="curve" smooth="yes"/>
      <point x="221.72727272727272" y="443.90909090909093" type="line" smooth="yes"/>
      <point x="203.27272727272728" y="358.27272727272725"/>
      <point x="151.36363636363637" y="336.90909090909093"/>
      <point x="78.54545454545455" y="333.0" type="curve"/>
      <point x="71.36363636363636" y="298.72727272727275" type="line"/>
      <point x="137.8181818181818" y="295.8181818181818"/>
      <point x="171.72727272727272" y="277.45454545454544"/>
      <point x="171.72727272727272" y="225.1818181818182" type="curve" smooth="yes"/>
      <point x="171.72727272727272" y="210.63636363636363"/>
      <point x="168.9090909090909" y="195.1818181818182"/>
      <point x="165.0" y="178.63636363636363" type="curve" smooth="yes"/>
      <point x="130.27272727272728" y="15.909090909090908" type="line" smooth="yes"/>
      <point x="126.81818181818181" y="-1.3636363636363635"/>
      <point x="124.36363636363636" y="-18.09090909090909"/>
      <point x="124.36363636363636" y="-33.36363636363636" type="curve" smooth="yes"/>
      <point x="124.36363636363636" y="-96.54545454545455"/>
      <point x="160.36363636363637" y="-129.8181818181818"/>
    </contour>
  </outline>
</glyph>
<glyph name="braceright" format="2">
  <advance width="419.8181818181818"/>
  <unicode hex="007D"/>
  <outline>
    <contour>
      <point x="-34.54545454545455" y="-129.8181818181818" type="line"/>
      <point x="13.727272727272727" y="-129.8181818181818" type="line" smooth="yes"/>
      <point x="124.36363636363636" y="-129.8181818181818"/>
      <point x="152.0" y="-87.0"/>
      <point x="173.27272727272728" y="12.363636363636363" type="curve" smooth="yes"/>
      <point x="210.27272727272728" y="186.8181818181818" type="line" smooth="yes"/>
      <point x="228.1818181818182" y="272.45454545454544"/>
      <point x="280.6363636363636" y="294.3636363636364"/>
      <point x="353.45454545454544" y="298.27272727272725" type="curve"/>
      <point x="360.6363636363636" y="332.54545454545456" type="line"/>
      <point x="294.1818181818182" y="335.45454545454544"/>
      <point x="260.27272727272725" y="353.27272727272725"/>
      <point x="260.27272727272725" y="405.54545454545456" type="curve" smooth="yes"/>
      <point x="260.27272727272725" y="420.09090909090907"/>
      <point x="263.09090909090907" y="435.54545454545456"/>
      <point x="267.0" y="452.09090909090907" type="curve" smooth="yes"/>
      <point x="301.72727272727275" y="614.2727272727273" type="line" smooth="yes"/>
      <point x="305.1818181818182" y="631.5454545454545"/>
      <point x="307.6363636363636" y="648.2727272727273"/>
      <point x="307.6363636363636" y="663.5454545454545" type="curve" smooth="yes"/>
      <point x="307.6363636363636" y="726.7272727272727"/>
      <point x="271.6363636363636" y="760.0"/>
      <point x="203.63636363636363" y="760.0" type="curve" smooth="yes"/>
      <point x="147.63636363636363" y="760.0" type="line"/>
      <point x="140.45454545454547" y="725.1818181818181" type="line"/>
      <point x="177.27272727272728" y="725.1818181818181" type="line" smooth="yes"/>
      <point x="220.0" y="725.1818181818181"/>
      <point x="240.9090909090909" y="705.9090909090909"/>
      <point x="240.9090909090909" y="660.8181818181819" type="curve" smooth="yes"/>
      <point x="240.9090909090909" y="646.0909090909091"/>
      <point x="238.45454545454544" y="628.9090909090909"/>
      <point x="235.0" y="611.5454545454545" type="curve" smooth="yes"/>
      <point x="200.27272727272728" y="451.0" type="line" smooth="yes"/>
      <point x="196.9090909090909" y="434.54545454545456"/>
      <point x="194.45454545454544" y="420.0"/>
      <point x="194.45454545454544" y="404.54545454545456" type="curve" smooth="yes"/>
      <point x="194.45454545454544" y="359.27272727272725"/>
      <point x="220.36363636363637" y="325.45454545454544"/>
      <point x="277.09090909090907" y="318.1818181818182" type="curve"/>
      <point x="277.09090909090907" y="314.6363636363636" type="line"/>
      <point x="199.0" y="304.3636363636364"/>
      <point x="160.45454545454544" y="259.45454545454544"/>
      <point x="145.54545454545453" y="189.8181818181818" type="curve" smooth="yes"/>
      <point x="108.54545454545455" y="16.363636363636363" type="line" smooth="yes"/>
      <point x="90.36363636363636" y="-67.0909090909091"/>
      <point x="66.18181818181819" y="-95.0"/>
      <point x="0.3636363636363633" y="-95.0" type="curve" smooth="yes"/>
      <point x="-27.363636363636363" y="-95.0" type="line"/>
    </contour>
  </outline>
</glyph>
<glyph name="twosuperior" format="2">
  <advance width="390.90909090909093"/>
  <unicode hex="00B2"/>
  <outline>
    <contour>
      <point x="62.0" y="386.45454545454544" type="line"/>
      <point x="356.3636363636364" y="386.45454545454544" type="line"/>
      <point x="380.72727272727275" y="493.6363636363636" type="line"/>
      <point x="352.1818181818182" y="493.6363636363636" type="line"/>
      <point x="346.45454545454544" y="477.1818181818182" type="line" smooth="yes"/>
      <point x="335.72727272727275" y="441.54545454545456"/>
      <point x="325.3636363636364" y="428.90909090909093"/>
      <point x="283.0" y="428.90909090909093" type="curve" smooth="yes"/>
      <point x="138.63636363636363" y="428.90909090909093" type="line"/>
      <point x="252.27272727272728" y="520.2727272727273" type="line" smooth="yes"/>
      <point x="368.90909090909093" y="614.4545454545455"/>
      <point x="403.0" y="659.0909090909091"/>
      <point x="403.0" y="726.7272727272727" type="curve" smooth="yes"/>
      <point x="403.0" y="785.0909090909091"/>
      <point x="357.90909090909093" y="824.4545454545455"/>
      <point x="279.72727272727275" y="824.4545454545455" type="curve" smooth="yes"/>
      <point x="185.63636363636363" y="824.4545454545455"/>
      <point x="135.45454545454547" y="770.1818181818181"/>
      <point x="135.45454545454547" y="724.7272727272727" type="curve" smooth="yes"/>
      <point x="135.45454545454547" y="700.3636363636364"/>
      <point x="152.1818181818182" y="685.8181818181819"/>
      <point x="182.1818181818182" y="685.8181818181819" type="curve"/>
      <point x="186.0" y="739.9090909090909"/>
      <point x="215.9090909090909" y="791.2727272727273"/>
      <point x="275.90909090909093" y="791.2727272727273" type="curve" smooth="yes"/>
      <point x="321.09090909090907" y="791.2727272727273"/>
      <point x="342.27272727272725" y="763.1818181818181"/>
      <point x="342.27272727272725" y="725.0909090909091" type="curve" smooth="yes"/>
      <point x="342.27272727272725" y="661.0"/>
      <point x="318.6363636363636" y="619.8181818181819"/>
      <point x="213.36363636363637" y="532.1818181818181" type="curve" smooth="yes"/>
      <point x="66.54545454545455" y="410.54545454545456" type="line"/>
    </contour>
  </outline>
</glyph>
<glyph name="threesuperior" format="2">
  <advance width="390.90909090909093"/>
  <unicode hex="00B3"/>
  <outline>
    <contour>
      <point x="209.54545454545453" y="380.0" type="curve" smooth="yes"/>
      <point x="319.90909090909093" y="380.0"/>
      <point x="395.3636363636364" y="437.09090909090907"/>
      <point x="395.3636363636364" y="519.8181818181819" type="curve" smooth="yes"/>
      <point x="395.3636363636364" y="571.6363636363636"/>
      <point x="360.3636363636364" y="601.6363636363636"/>
      <point x="306.6363636363636" y="611.3636363636364" type="curve"/>
      <point x="307.1818181818182" y="615.4545454545455" type="line"/>
      <point x="372.45454545454544" y="628.6363636363636"/>
      <point x="422.0" y="670.2727272727273"/>
      <point x="422.0" y="732.0909090909091" type="curve" smooth="yes"/>
      <point x="422.0" y="783.0"/>
      <point x="378.54545454545456" y="824.0"/>
      <point x="293.8181818181818" y="824.0" type="curve" smooth="yes"/>
      <point x="199.63636363636363" y="824.0"/>
      <point x="144.9090909090909" y="776.4545454545455"/>
      <point x="144.9090909090909" y="731.2727272727273" type="curve" smooth="yes"/>
      <point x="144.9090909090909" y="704.7272727272727"/>
      <point x="164.54545454545453" y="697.9090909090909"/>
      <point x="190.0" y="697.9090909090909" type="curve"/>
      <point x="199.9090909090909" y="752.0909090909091"/>
      <point x="233.45454545454547" y="790.8181818181819"/>
      <point x="291.72727272727275" y="790.8181818181819" type="curve" smooth="yes"/>
      <point x="333.27272727272725" y="790.8181818181819"/>
      <point x="358.6363636363636" y="769.4545454545455"/>
      <point x="358.6363636363636" y="732.9090909090909" type="curve" smooth="yes"/>
      <point x="358.6363636363636" y="671.2727272727273"/>
      <point x="306.90909090909093" y="628.1818181818181"/>
      <point x="235.36363636363637" y="628.1818181818181" type="curve" smooth="yes"/>
      <point x="199.63636363636363" y="628.1818181818181" type="line"/>
      <point x="193.0" y="594.4545454545455" type="line"/>
      <point x="226.0" y="594.4545454545455" type="line" smooth="yes"/>
      <point x="300.8181818181818" y="594.4545454545455"/>
      <point x="332.45454545454544" y="561.2727272727273"/>
      <point x="332.45454545454544" y="517.1818181818181" type="curve" smooth="yes"/>
      <point x="332.45454545454544" y="455.45454545454544"/>
      <point x="285.54545454545456" y="415.90909090909093"/>
      <point x="215.1818181818182" y="415.90909090909093" type="curve" smooth="yes"/>
      <point x="152.1818181818182" y="415.90909090909093"/>
      <point x="122.36363636363636" y="456.54545454545456"/>
      <point x="129.1818181818182" y="509.6363636363636" type="curve"/>
      <point x="101.72727272727273" y="509.6363636363636"/>
      <point x="83.54545454545455" y="488.45454545454544"/>
      <point x="83.54545454545455" y="458.3636363636364" type="curve" smooth="yes"/>
      <point x="83.54545454545455" y="410.90909090909093"/>
      <point x="131.0" y="380.0"/>
    </contour>
  </outline>
</glyph>
<glyph name="multiply" format="2">
  <advance width="559.0"/>
  <unicode hex="00D7"/>
  <outline>
    <contour>
      <point x="99.81818181818181" y="146.8181818181818" type="line"/>
      <point x="279.0" y="325.54545454545456" type="line"/>
      <point x="458.1818181818182" y="146.8181818181818" type="line"/>
      <point x="490.1818181818182" y="178.36363636363637" type="line"/>
      <point x="311.0" y="357.54545454545456" type="line"/>
      <point x="490.1818181818182" y="537.1818181818181" type="line"/>
      <point x="458.6363636363636" y="569.7272727272727" type="line"/>
      <point x="279.0" y="389.54545454545456" type="line"/>
      <point x="99.81818181818181" y="568.7272727272727" type="line"/>
      <point x="68.27272727272727" y="536.7272727272727" type="line"/>
      <point x="247.45454545454547" y="358.09090909090907" type="line"/>
      <point x="68.72727272727273" y="179.36363636363637" type="line"/>
    </contour>
  </outline>
</glyph>
<glyph name="udatta-deva" format="2">
  <unicode hex="0951"/>
  <anchor x="57.63636363636363" y="548.5454545454545" name="_vedic"/>
  <outline>
    <contour>
      <point x="114.45454545454545" y="909.7272727272727" type="line"/>
      <point x="155.1818181818182" y="909.7272727272727" type="line"/>
      <point x="195.27272727272728" y="1099.7272727272727" type="line"/>
      <point x="154.54545454545453" y="1099.7272727272727" type="line"/>
    </contour>
  </outline>
</glyph>
<glyph name="anudatta-deva" format="2">
  <unicode hex="0952"/>
  <anchor x="-59.0" y="0.0" name="_bottom"/>
  <outline>
    <contour>
      <point x="-361.27272727272725" y="-515.1818181818181" type="line"/>
      <point x="24.454545454545453" y="-515.1818181818181" type="line"/>
      <point x="34.36363636363636" y="-467.72727272727275" type="line"/>
      <point x="-351.3636363636364" y="-467.72727272727275" type="line"/>
    </contour>
  </outline>
</glyph>
<glyph name="danda-deva" format="2">
  <advance width="290.8181818181818"/>
  <unicode hex="0964"/>
  <outline>
    <contour>
      <point x="55.36363636363636" y="0.0" type="line"/>
      <point x="118.81818181818181" y="0.0" type="line"/>
      <point x="235.45454545454547" y="548.5454545454545" type="line"/>
      <point x="172.0" y="548.5454545454545" type="line"/>
    </contour>
  </outline>
</glyph>
<glyph name="dbldanda-deva" format="2">
  <advance width="519.0909090909091"/>
  <unicode hex="0965"/>
  <outline>
    <contour>
      <point x="283.1818181818182" y="0.0" type="line"/>
      <point x="347.0909090909091" y="0.0" type="line"/>
      <point x="463.72727272727275" y="548.5454545454545" type="line"/>
      <point x="399.8181818181818" y="548.5454545454545" type="line"/>
    </contour>
    <contour>
      <point x="55.36363636363636" y="0.0" type="line"/>
      <point x="118.81818181818181" y="0.0" type="line"/>
      <point x="235.45454545454547" y="548.5454545454545" type="line"/>
      <point x="172.0" y="548.5454545454545" type="line"/>
    </contour>
  </outline>
</glyph>
<glyph name="anusvara-tamil" format="2">
  <unicode hex="0B82"/>
  <note>
uni0B82
</note>
  <anchor x="57.63636363636363" y="548.5454545454545" name="_top"/>
  <outline>
    <contour>
      <point x="101.0" y="640.7272727272727" type="curve" smooth="yes"/>
      <point x="164.63636363636363" y="640.7272727272727"/>
      <point x="210.1818181818182" y="686.0"/>
      <point x="210.1818181818182" y="748.7272727272727" type="curve" smooth="yes"/>
      <point x="210.1818181818182" y="811.5454545454545"/>
      <point x="164.63636363636363" y="856.8181818181819"/>
      <point x="101.0" y="856.8181818181819" type="curve" smooth="yes"/>
      <point x="37.36363636363636" y="856.8181818181819"/>
      <point x="-8.181818181818182" y="811.5454545454545"/>
      <point x="-8.181818181818182" y="748.7272727272727" type="curve" smooth="yes"/>
      <point x="-8.181818181818182" y="686.0"/>
      <point x="37.36363636363636" y="640.7272727272727"/>
    </contour>
    <contour>
      <point x="101.0" y="681.0909090909091" type="curve" smooth="yes"/>
      <point x="62.18181818181818" y="681.0909090909091"/>
      <point x="35.72727272727273" y="709.3636363636364"/>
      <point x="35.72727272727273" y="748.7272727272727" type="curve" smooth="yes"/>
      <point x="35.72727272727273" y="788.1818181818181"/>
      <point x="62.18181818181818" y="816.4545454545455"/>
      <point x="101.0" y="816.4545454545455" type="curve" smooth="yes"/>
      <point x="139.8181818181818" y="816.4545454545455"/>
      <point x="166.27272727272728" y="788.1818181818181"/>
      <point x="166.27272727272728" y="748.7272727272727" type="curve" smooth="yes"/>
      <point x="166.27272727272728" y="709.3636363636364"/>
      <point x="139.8181818181818" y="681.0909090909091"/>
    </contour>
  </outline>
</glyph>
<glyph name="visarga-tamil" format="2">
  <advance width="866.7272727272727"/>
  <unicode hex="0B83"/>
  <note>
uni0B83
</note>
  <outline>
    <contour>
      <point x="171.1818181818182" y="0.0" type="curve" smooth="yes"/>
      <point x="276.45454545454544" y="0.0"/>
      <point x="362.90909090909093" y="88.18181818181819"/>
      <point x="362.90909090909093" y="217.63636363636363" type="curve" smooth="yes"/>
      <point x="362.90909090909093" y="314.1818181818182"/>
      <point x="303.90909090909093" y="365.8181818181818"/>
      <point x="220.27272727272728" y="365.8181818181818" type="curve" smooth="yes"/>
      <point x="108.9090909090909" y="365.8181818181818"/>
      <point x="36.18181818181818" y="258.90909090909093"/>
      <point x="36.18181818181818" y="151.36363636363637" type="curve" smooth="yes"/>
      <point x="36.18181818181818" y="64.0909090909091"/>
      <point x="83.45454545454545" y="0.0"/>
    </contour>
    <contour>
      <point x="167.27272727272728" y="38.54545454545455" type="curve" smooth="yes"/>
      <point x="107.36363636363636" y="38.54545454545455"/>
      <point x="74.63636363636364" y="83.63636363636364"/>
      <point x="74.63636363636364" y="153.36363636363637" type="curve" smooth="yes"/>
      <point x="74.63636363636364" y="238.0"/>
      <point x="126.63636363636364" y="328.27272727272725"/>
      <point x="213.36363636363637" y="328.27272727272725" type="curve" smooth="yes"/>
      <point x="272.8181818181818" y="328.27272727272725"/>
      <point x="310.27272727272725" y="289.09090909090907"/>
      <point x="310.27272727272725" y="221.0" type="curve" smooth="yes"/>
      <point x="310.27272727272725" y="118.18181818181819"/>
      <point x="252.63636363636363" y="38.54545454545455"/>
    </contour>
    <contour>
      <point x="597.8181818181819" y="0.0" type="curve" smooth="yes"/>
      <point x="703.0909090909091" y="0.0"/>
      <point x="789.5454545454545" y="88.18181818181819"/>
      <point x="789.5454545454545" y="217.63636363636363" type="curve" smooth="yes"/>
      <point x="789.5454545454545" y="314.1818181818182"/>
      <point x="730.5454545454545" y="365.8181818181818"/>
      <point x="646.9090909090909" y="365.8181818181818" type="curve" smooth="yes"/>
      <point x="535.5454545454545" y="365.8181818181818"/>
      <point x="462.8181818181818" y="258.90909090909093"/>
      <point x="462.8181818181818" y="151.36363636363637" type="curve" smooth="yes"/>
      <point x="462.8181818181818" y="64.0909090909091"/>
      <point x="510.09090909090907" y="0.0"/>
    </contour>
    <contour>
      <point x="593.9090909090909" y="38.54545454545455" type="curve" smooth="yes"/>
      <point x="534.0" y="38.54545454545455"/>
      <point x="501.27272727272725" y="83.63636363636364"/>
      <point x="501.27272727272725" y="153.36363636363637" type="curve" smooth="yes"/>
      <point x="501.27272727272725" y="238.0"/>
      <point x="553.2727272727273" y="328.27272727272725"/>
      <point x="640.0" y="328.27272727272725" type="curve" smooth="yes"/>
      <point x="699.4545454545455" y="328.27272727272725"/>
      <point x="736.9090909090909" y="289.09090909090907"/>
      <point x="736.9090909090909" y="221.0" type="curve" smooth="yes"/>
      <point x="736.9090909090909" y="118.18181818181819"/>
      <point x="679.2727272727273" y="38.54545454545455"/>
    </contour>
    <contour>
      <point x="464.0" y="408.3636363636364" type="curve" smooth="yes"/>
      <point x="569.2727272727273" y="408.3636363636364"/>
      <point x="655.7272727272727" y="496.54545454545456"/>
      <point x="655.7272727272727" y="626.0" type="curve" smooth="yes"/>
      <point x="655.7272727272727" y="722.5454545454545"/>
      <point x="596.7272727272727" y="774.1818181818181"/>
      <point x="513.0909090909091" y="774.1818181818181" type="curve" smooth="yes"/>
      <point x="401.72727272727275" y="774.1818181818181"/>
      <point x="329.0" y="667.2727272727273"/>
      <point x="329.0" y="559.7272727272727" type="curve" smooth="yes"/>
      <point x="329.0" y="472.45454545454544"/>
      <point x="376.27272727272725" y="408.3636363636364"/>
    </contour>
    <contour>
      <point x="460.09090909090907" y="446.90909090909093" type="curve" smooth="yes"/>
      <point x="400.1818181818182" y="446.90909090909093"/>
      <point x="367.45454545454544" y="492.0"/>
      <point x="367.45454545454544" y="561.7272727272727" type="curve" smooth="yes"/>
      <point x="367.45454545454544" y="646.3636363636364"/>
      <point x="419.45454545454544" y="736.6363636363636"/>
      <point x="506.1818181818182" y="736.6363636363636" type="curve" smooth="yes"/>
      <point x="565.6363636363636" y="736.6363636363636"/>
      <point x="603.0909090909091" y="697.4545454545455"/>
      <point x="603.0909090909091" y="629.3636363636364" type="curve" smooth="yes"/>
      <point x="603.0909090909091" y="526.5454545454545"/>
      <point x="545.4545454545455" y="446.90909090909093"/>
    </contour>
  </outline>
</glyph>
<glyph name="a-tamil" format="2">
  <advance width="1282.8181818181818"/>
  <unicode hex="0B85"/>
  <note>
uni0B85
</note>
  <anchor x="560.2727272727273" y="0.0" name="bottom"/>
  <anchor x="361.45454545454544" y="-109.72727272727273" name="nukta"/>
  <anchor x="684.1818181818181" y="548.5454545454545" name="top"/>
  <anchor x="684.1818181818181" y="548.5454545454545" name="vedic"/>
  <outline>
    <contour>
      <point x="1010.3636363636364" y="-182.63636363636363" type="line"/>
      <point x="1074.2727272727273" y="-182.63636363636363" type="line"/>
      <point x="1229.7272727272727" y="549.4545454545455" type="line"/>
      <point x="1165.8181818181818" y="549.4545454545455" type="line"/>
      <point x="1084.8181818181818" y="166.45454545454547" type="line"/>
      <point x="91.18181818181819" y="166.45454545454547" type="line" smooth="yes"/>
      <point x="34.90909090909091" y="166.45454545454547"/>
      <point x="3.0" y="137.0"/>
      <point x="3.0" y="87.27272727272727" type="curve" smooth="yes"/>
      <point x="3.0" y="0.7272727272727266"/>
      <point x="156.72727272727272" y="-108.81818181818181"/>
      <point x="385.09090909090907" y="-108.81818181818181" type="curve" smooth="yes"/>
      <point x="682.0909090909091" y="-108.81818181818181"/>
      <point x="927.2727272727273" y="15.09090909090909"/>
      <point x="927.2727272727273" y="296.27272727272725" type="curve" smooth="yes"/>
      <point x="927.2727272727273" y="470.72727272727275"/>
      <point x="804.8181818181819" y="556.2727272727273"/>
      <point x="645.5454545454545" y="556.2727272727273" type="curve" smooth="yes"/>
      <point x="514.1818181818181" y="556.2727272727273"/>
      <point x="409.1818181818182" y="483.0"/>
      <point x="409.1818181818182" y="372.8181818181818" type="curve" smooth="yes"/>
      <point x="409.1818181818182" y="307.72727272727275"/>
      <point x="457.1818181818182" y="256.54545454545456"/>
      <point x="538.9090909090909" y="256.54545454545456" type="curve" smooth="yes"/>
      <point x="627.7272727272727" y="256.54545454545456"/>
      <point x="688.6363636363636" y="307.0"/>
      <point x="688.6363636363636" y="401.1818181818182" type="curve" smooth="yes"/>
      <point x="688.6363636363636" y="458.27272727272725"/>
      <point x="651.2727272727273" y="507.6363636363636"/>
      <point x="601.6363636363636" y="527.1818181818181" type="curve"/>
      <point x="557.5454545454545" y="523.2727272727273" type="line"/>
      <point x="608.5454545454545" y="497.27272727272725"/>
      <point x="628.4545454545455" y="450.90909090909093"/>
      <point x="628.4545454545455" y="406.8181818181818" type="curve" smooth="yes"/>
      <point x="628.4545454545455" y="338.6363636363636"/>
      <point x="591.9090909090909" y="297.3636363636364"/>
      <point x="530.5454545454545" y="297.3636363636364" type="curve" smooth="yes"/>
      <point x="484.45454545454544" y="297.3636363636364"/>
      <point x="453.0" y="327.72727272727275"/>
      <point x="453.0" y="374.0" type="curve" smooth="yes"/>
      <point x="453.0" y="460.72727272727275"/>
      <point x="536.7272727272727" y="515.9090909090909"/>
      <point x="638.7272727272727" y="515.9090909090909" type="curve" smooth="yes"/>
      <point x="764.2727272727273" y="515.9090909090909"/>
      <point x="861.3636363636364" y="436.45454545454544"/>
      <point x="861.3636363636364" y="291.27272727272725" type="curve" smooth="yes"/>
      <point x="861.3636363636364" y="40.0"/>
      <point x="639.6363636363636" y="-67.54545454545455"/>
      <point x="387.72727272727275" y="-67.54545454545455" type="curve" smooth="yes"/>
      <point x="193.1818181818182" y="-67.54545454545455"/>
      <point x="46.90909090909091" y="21.727272727272727"/>
      <point x="46.90909090909091" y="88.72727272727272" type="curve" smooth="yes"/>
      <point x="46.90909090909091" y="113.0"/>
      <point x="60.36363636363637" y="126.54545454545455"/>
      <point x="89.0909090909091" y="126.54545454545455" type="curve" smooth="yes"/>
      <point x="1076.5454545454545" y="126.54545454545455" type="line"/>
    </contour>
  </outline>
</glyph>
<glyph name="aa-tamil" format="2">
  <advance width="1413.4545454545455"/>
  <unicode hex="0B86"/>
  <note>
uni0B86
</note>
  <anchor x="632.1818181818181" y="0.0" name="bottom"/>
  <anchor x="361.90909090909093" y="-109.72727272727273" name="nukta"/>
  <anchor x="756.1818181818181" y="548.5454545454545" name="top"/>
  <anchor x="756.0909090909091" y="548.5454545454545" name="vedic"/>
  <outline>
    <contour>
      <point x="860.5454545454545" y="-431.6363636363636" type="curve" smooth="yes"/>
      <point x="1076.5454545454545" y="-431.6363636363636"/>
      <point x="1303.1818181818182" y="-290.8181818181818"/>
      <point x="1303.1818181818182" y="-87.0909090909091" type="curve" smooth="yes"/>
      <point x="1303.1818181818182" y="-9.18181818181818"/>
      <point x="1257.090909090909" y="25.0"/>
      <point x="1202.6363636363637" y="25.0" type="curve" smooth="yes"/>
      <point x="1143.090909090909" y="25.0"/>
      <point x="1089.8181818181818" y="-25.81818181818182"/>
      <point x="1066.8181818181818" y="-109.54545454545455" type="curve"/>
      <point x="1085.6363636363637" y="-120.63636363636364" type="line"/>
      <point x="1099.4545454545455" y="-61.0"/>
      <point x="1138.2727272727273" y="-31.454545454545453"/>
      <point x="1177.2727272727273" y="-31.454545454545453" type="curve" smooth="yes"/>
      <point x="1212.3636363636363" y="-31.454545454545453"/>
      <point x="1237.1818181818182" y="-51.90909090909091"/>
      <point x="1237.1818181818182" y="-100.72727272727273" type="curve" smooth="yes"/>
      <point x="1237.1818181818182" y="-262.90909090909093"/>
      <point x="1034.7272727272727" y="-389.90909090909093"/>
      <point x="858.2727272727273" y="-389.90909090909093" type="curve" smooth="yes"/>
      <point x="756.0" y="-389.90909090909093"/>
      <point x="698.8181818181819" y="-354.0"/>
      <point x="698.8181818181819" y="-291.1818181818182" type="curve" smooth="yes"/>
      <point x="698.8181818181819" y="-238.27272727272728"/>
      <point x="743.2727272727273" y="-205.0"/>
      <point x="814.1818181818181" y="-189.8181818181818" type="curve"/>
      <point x="808.1818181818181" y="-149.0909090909091" type="line"/>
      <point x="714.0909090909091" y="-169.8181818181818"/>
      <point x="656.0909090909091" y="-217.1818181818182"/>
      <point x="656.0909090909091" y="-294.90909090909093" type="curve" smooth="yes"/>
      <point x="656.0909090909091" y="-375.90909090909093"/>
      <point x="728.0" y="-431.6363636363636"/>
    </contour>
    <component base="a-tamil"/>
  </outline>
</glyph>
<glyph name="i-tamil" format="2">
  <advance width="981.1818181818181"/>
  <unicode hex="0B87"/>
  <note>
uni0B87
</note>
  <anchor x="411.27272727272725" y="0.0" name="bottom"/>
  <anchor x="367.27272727272725" y="-253.45454545454547" name="nukta"/>
  <anchor x="549.0" y="812.1818181818181" name="top"/>
  <anchor x="516.0909090909091" y="548.5454545454545" name="vedic"/>
  <outline>
    <contour>
      <point x="126.81818181818181" y="-288.3636363636364" type="curve" smooth="yes"/>
      <point x="434.6363636363636" y="-288.3636363636364"/>
      <point x="740.5454545454545" y="27.272727272727273"/>
      <point x="740.5454545454545" y="333.6363636363636" type="curve" smooth="yes"/>
      <point x="740.5454545454545" y="477.6363636363636"/>
      <point x="650.4545454545455" y="555.3636363636364"/>
      <point x="508.1818181818182" y="555.3636363636364" type="curve" smooth="yes"/>
      <point x="384.90909090909093" y="555.3636363636364"/>
      <point x="284.6363636363636" y="477.90909090909093"/>
      <point x="284.6363636363636" y="369.90909090909093" type="curve" smooth="yes"/>
      <point x="284.6363636363636" y="301.45454545454544"/>
      <point x="336.1818181818182" y="256.1818181818182"/>
      <point x="406.90909090909093" y="256.1818181818182" type="curve" smooth="yes"/>
      <point x="495.0" y="256.1818181818182"/>
      <point x="558.4545454545455" y="307.72727272727275"/>
      <point x="558.4545454545455" y="399.3636363636364" type="curve" smooth="yes"/>
      <point x="558.4545454545455" y="450.8181818181818"/>
      <point x="530.4545454545455" y="506.54545454545456"/>
      <point x="475.1818181818182" y="525.1818181818181" type="curve"/>
      <point x="432.1818181818182" y="521.2727272727273" type="line"/>
      <point x="479.54545454545456" y="495.6363636363636"/>
      <point x="499.27272727272725" y="454.72727272727275"/>
      <point x="499.27272727272725" y="407.54545454545456" type="curve" smooth="yes"/>
      <point x="499.27272727272725" y="344.8181818181818"/>
      <point x="461.6363636363636" y="297.0"/>
      <point x="400.3636363636364" y="297.0" type="curve" smooth="yes"/>
      <point x="358.45454545454544" y="297.0"/>
      <point x="329.45454545454544" y="327.45454545454544"/>
      <point x="329.45454545454544" y="372.54545454545456" type="curve" smooth="yes"/>
      <point x="329.45454545454544" y="456.72727272727275"/>
      <point x="403.90909090909093" y="515.0"/>
      <point x="501.27272727272725" y="515.0" type="curve" smooth="yes"/>
      <point x="609.0" y="515.0"/>
      <point x="678.1818181818181" y="448.6363636363636"/>
      <point x="678.1818181818181" y="336.1818181818182" type="curve" smooth="yes"/>
      <point x="678.1818181818181" y="51.81818181818181"/>
      <point x="412.8181818181818" y="-247.0909090909091"/>
      <point x="138.27272727272728" y="-247.0909090909091" type="curve" smooth="yes"/>
      <point x="64.54545454545455" y="-247.0909090909091"/>
      <point x="17.363636363636363" y="-211.9090909090909"/>
      <point x="17.363636363636363" y="-152.36363636363637" type="curve" smooth="yes"/>
      <point x="17.363636363636363" y="-14.909090909090908"/>
      <point x="227.54545454545456" y="67.45454545454545"/>
      <point x="411.72727272727275" y="67.45454545454545" type="curve" smooth="yes"/>
      <point x="574.7272727272727" y="67.45454545454545"/>
      <point x="752.3636363636364" y="1.8181818181818183"/>
      <point x="752.3636363636364" y="-122.63636363636364" type="curve" smooth="yes"/>
      <point x="752.3636363636364" y="-209.0"/>
      <point x="691.0909090909091" y="-247.0909090909091"/>
      <point x="596.3636363636364" y="-247.0909090909091" type="curve" smooth="yes"/>
      <point x="385.3636363636364" y="-247.0909090909091"/>
      <point x="134.27272727272728" y="33.27272727272727"/>
      <point x="134.27272727272728" y="307.90909090909093" type="curve" smooth="yes"/>
      <point x="134.27272727272728" y="558.3636363636364"/>
      <point x="275.90909090909093" y="749.0"/>
      <point x="540.4545454545455" y="749.0" type="curve" smooth="yes"/>
      <point x="791.9090909090909" y="749.0"/>
      <point x="924.5454545454545" y="569.3636363636364"/>
      <point x="868.3636363636364" y="310.09090909090907" type="curve" smooth="yes"/>
      <point x="821.6363636363636" y="96.0" type="line"/>
      <point x="863.6363636363636" y="96.0" type="line"/>
      <point x="910.3636363636364" y="310.09090909090907" type="line" smooth="yes"/>
      <point x="976.3636363636364" y="612.4545454545455"/>
      <point x="834.8181818181819" y="812.1818181818181"/>
      <point x="549.0" y="812.1818181818181" type="curve" smooth="yes"/>
      <point x="258.90909090909093" y="812.1818181818181"/>
      <point x="86.63636363636364" y="597.0"/>
      <point x="86.63636363636364" y="316.3636363636364" type="curve" smooth="yes"/>
      <point x="86.63636363636364" y="14.272727272727273"/>
      <point x="355.54545454545456" y="-288.3636363636364"/>
      <point x="605.6363636363636" y="-288.3636363636364" type="curve" smooth="yes"/>
      <point x="718.1818181818181" y="-288.3636363636364"/>
      <point x="801.5454545454545" y="-235.1818181818182"/>
      <point x="801.5454545454545" y="-121.9090909090909" type="curve" smooth="yes"/>
      <point x="801.5454545454545" y="29.636363636363637"/>
      <point x="609.3636363636364" y="107.72727272727273"/>
      <point x="415.45454545454544" y="107.72727272727273" type="curve" smooth="yes"/>
      <point x="205.0909090909091" y="107.72727272727273"/>
      <point x="-33.36363636363636" y="14.454545454545455"/>
      <point x="-33.36363636363636" y="-162.27272727272728" type="curve" smooth="yes"/>
      <point x="-33.36363636363636" y="-240.36363636363637"/>
      <point x="30.545454545454547" y="-288.3636363636364"/>
    </contour>
  </outline>
</glyph>
<glyph name="ii-tamil" format="2">
  <advance width="742.8181818181819"/>
  <unicode hex="0B88"/>
  <note>
uni0B88
</note>
  <anchor x="332.54545454545456" y="0.0" name="bottom"/>
  <anchor x="333.0" y="0.0" name="nukta"/>
  <anchor x="451.6363636363636" y="548.5454545454545" name="top"/>
  <anchor x="451.6363636363636" y="548.5454545454545" name="vedic"/>
  <outline>
    <contour>
      <point x="53.54545454545455" y="0.0" type="line"/>
      <point x="97.63636363636364" y="0.0" type="line"/>
      <point x="205.45454545454547" y="508.6363636363636" type="line"/>
      <point x="489.1818181818182" y="508.6363636363636" type="line"/>
      <point x="380.3636363636364" y="0.0" type="line"/>
      <point x="444.27272727272725" y="0.0" type="line"/>
      <point x="552.0909090909091" y="508.6363636363636" type="line"/>
      <point x="741.4545454545455" y="508.6363636363636" type="line"/>
      <point x="750.2727272727273" y="548.5454545454545" type="line"/>
      <point x="170.1818181818182" y="548.5454545454545" type="line"/>
    </contour>
    <contour>
      <point x="291.8181818181818" y="218.27272727272728" type="curve" smooth="yes"/>
      <point x="316.8181818181818" y="218.27272727272728"/>
      <point x="337.09090909090907" y="239.1818181818182"/>
      <point x="337.09090909090907" y="262.6363636363636" type="curve" smooth="yes"/>
      <point x="337.09090909090907" y="286.09090909090907"/>
      <point x="316.8181818181818" y="306.45454545454544"/>
      <point x="291.8181818181818" y="306.45454545454544" type="curve" smooth="yes"/>
      <point x="266.8181818181818" y="306.45454545454544"/>
      <point x="247.0" y="286.09090909090907"/>
      <point x="247.0" y="262.6363636363636" type="curve" smooth="yes"/>
      <point x="247.0" y="239.1818181818182"/>
      <point x="266.8181818181818" y="218.27272727272728"/>
    </contour>
    <contour>
      <point x="640.1818181818181" y="218.27272727272728" type="curve" smooth="yes"/>
      <point x="665.1818181818181" y="218.27272727272728"/>
      <point x="685.4545454545455" y="239.1818181818182"/>
      <point x="685.4545454545455" y="262.6363636363636" type="curve" smooth="yes"/>
      <point x="685.4545454545455" y="286.09090909090907"/>
      <point x="665.1818181818181" y="306.45454545454544"/>
      <point x="640.1818181818181" y="306.45454545454544" type="curve" smooth="yes"/>
      <point x="615.1818181818181" y="306.45454545454544"/>
      <point x="595.3636363636364" y="286.09090909090907"/>
      <point x="595.3636363636364" y="262.6363636363636" type="curve" smooth="yes"/>
      <point x="595.3636363636364" y="239.1818181818182"/>
      <point x="615.1818181818181" y="218.27272727272728"/>
    </contour>
  </outline>
</glyph>
<glyph name="u-tamil" format="2">
  <advance width="1020.6363636363636"/>
  <unicode hex="0B89"/>
  <note>
uni0B89
</note>
  <anchor x="478.27272727272725" y="0.0" name="bottom"/>
  <anchor x="478.27272727272725" y="0.0" name="nukta"/>
  <anchor x="596.9090909090909" y="548.5454545454545" name="top"/>
  <anchor x="597.9090909090909" y="548.5454545454545" name="vedic"/>
  <outline>
    <contour>
      <point x="99.81818181818181" y="0.0" type="curve" smooth="yes"/>
      <point x="939.4545454545455" y="0.0" type="line"/>
      <point x="947.8181818181819" y="39.90909090909091" type="line"/>
      <point x="102.36363636363636" y="39.90909090909091" type="line" smooth="yes"/>
      <point x="72.81818181818181" y="39.90909090909091"/>
      <point x="54.54545454545455" y="58.18181818181818"/>
      <point x="54.54545454545455" y="86.0" type="curve" smooth="yes"/>
      <point x="54.54545454545455" y="120.36363636363636"/>
      <point x="82.18181818181819" y="140.0"/>
      <point x="121.0909090909091" y="140.0" type="curve" smooth="yes"/>
      <point x="364.8181818181818" y="140.0" type="line" smooth="yes"/>
      <point x="529.5454545454545" y="140.0"/>
      <point x="654.6363636363636" y="209.8181818181818"/>
      <point x="654.6363636363636" y="361.8181818181818" type="curve" smooth="yes"/>
      <point x="654.6363636363636" y="494.54545454545456"/>
      <point x="547.2727272727273" y="555.3636363636364"/>
      <point x="414.27272727272725" y="555.3636363636364" type="curve" smooth="yes"/>
      <point x="284.3636363636364" y="555.3636363636364"/>
      <point x="164.63636363636363" y="480.8181818181818"/>
      <point x="164.63636363636363" y="375.45454545454544" type="curve" smooth="yes"/>
      <point x="164.63636363636363" y="312.8181818181818"/>
      <point x="207.0909090909091" y="255.63636363636363"/>
      <point x="294.8181818181818" y="255.63636363636363" type="curve" smooth="yes"/>
      <point x="382.0" y="255.63636363636363"/>
      <point x="448.6363636363636" y="304.45454545454544"/>
      <point x="448.6363636363636" y="390.90909090909093" type="curve" smooth="yes"/>
      <point x="448.6363636363636" y="452.09090909090907"/>
      <point x="413.27272727272725" y="497.09090909090907"/>
      <point x="368.45454545454544" y="526.2727272727273" type="curve"/>
      <point x="325.90909090909093" y="522.3636363636364" type="line"/>
      <point x="368.8181818181818" y="484.09090909090907"/>
      <point x="388.90909090909093" y="447.45454545454544"/>
      <point x="388.90909090909093" y="398.8181818181818" type="curve" smooth="yes"/>
      <point x="388.90909090909093" y="333.54545454545456"/>
      <point x="345.1818181818182" y="296.45454545454544"/>
      <point x="287.09090909090907" y="296.45454545454544" type="curve" smooth="yes"/>
      <point x="233.45454545454547" y="296.45454545454544"/>
      <point x="208.45454545454547" y="334.8181818181818"/>
      <point x="208.45454545454547" y="377.90909090909093" type="curve" smooth="yes"/>
      <point x="208.45454545454547" y="457.45454545454544"/>
      <point x="306.45454545454544" y="515.0"/>
      <point x="405.27272727272725" y="515.0" type="curve" smooth="yes"/>
      <point x="508.27272727272725" y="515.0"/>
      <point x="590.7272727272727" y="469.0"/>
      <point x="590.7272727272727" y="359.8181818181818" type="curve" smooth="yes"/>
      <point x="590.7272727272727" y="239.72727272727272"/>
      <point x="496.27272727272725" y="179.8181818181818"/>
      <point x="362.8181818181818" y="179.8181818181818" type="curve" smooth="yes"/>
      <point x="127.72727272727273" y="179.8181818181818" type="line" smooth="yes"/>
      <point x="57.54545454545455" y="179.8181818181818"/>
      <point x="10.636363636363637" y="143.63636363636363"/>
      <point x="10.636363636363637" y="80.27272727272727" type="curve" smooth="yes"/>
      <point x="10.636363636363637" y="35.81818181818182"/>
      <point x="45.54545454545455" y="0.0"/>
    </contour>
  </outline>
</glyph>
<glyph name="uu-tamil" format="2">
  <advance width="1663.7272727272727"/>
  <unicode hex="0B8A"/>
  <note>
uni0B8A
</note>
  <anchor x="807.6363636363636" y="0.0" name="bottom"/>
  <anchor x="808.6363636363636" y="0.0" name="nukta"/>
  <anchor x="927.8181818181819" y="548.5454545454545" name="top"/>
  <anchor x="927.2727272727273" y="548.5454545454545" name="vedic"/>
  <outline>
    <contour>
      <point x="99.81818181818181" y="0.0" type="curve" smooth="yes"/>
      <point x="1585.7272727272727" y="0.0" type="line"/>
      <point x="1594.090909090909" y="39.90909090909091" type="line"/>
      <point x="102.36363636363636" y="39.90909090909091" type="line" smooth="yes"/>
      <point x="72.81818181818181" y="39.90909090909091"/>
      <point x="54.54545454545455" y="58.18181818181818"/>
      <point x="54.54545454545455" y="86.0" type="curve" smooth="yes"/>
      <point x="54.54545454545455" y="120.36363636363636"/>
      <point x="82.18181818181819" y="140.0"/>
      <point x="121.0909090909091" y="140.0" type="curve" smooth="yes"/>
      <point x="364.8181818181818" y="140.0" type="line" smooth="yes"/>
      <point x="529.5454545454545" y="140.0"/>
      <point x="654.6363636363636" y="209.8181818181818"/>
      <point x="654.6363636363636" y="361.8181818181818" type="curve" smooth="yes"/>
      <point x="654.6363636363636" y="494.54545454545456"/>
      <point x="547.2727272727273" y="555.3636363636364"/>
      <point x="414.27272727272725" y="555.3636363636364" type="curve" smooth="yes"/>
      <point x="284.3636363636364" y="555.3636363636364"/>
      <point x="164.63636363636363" y="480.8181818181818"/>
      <point x="164.63636363636363" y="375.45454545454544" type="curve" smooth="yes"/>
      <point x="164.63636363636363" y="312.8181818181818"/>
      <point x="207.0909090909091" y="255.63636363636363"/>
      <point x="294.8181818181818" y="255.63636363636363" type="curve" smooth="yes"/>
      <point x="382.0" y="255.63636363636363"/>
      <point x="448.6363636363636" y="304.45454545454544"/>
      <point x="448.6363636363636" y="390.90909090909093" type="curve" smooth="yes"/>
      <point x="448.6363636363636" y="452.09090909090907"/>
      <point x="413.27272727272725" y="497.09090909090907"/>
      <point x="368.45454545454544" y="526.2727272727273" type="curve"/>
      <point x="325.90909090909093" y="522.3636363636364" type="line"/>
      <point x="368.8181818181818" y="484.09090909090907"/>
      <point x="388.90909090909093" y="447.45454545454544"/>
      <point x="388.90909090909093" y="398.8181818181818" type="curve" smooth="yes"/>
      <point x="388.90909090909093" y="333.54545454545456"/>
      <point x="345.1818181818182" y="296.45454545454544"/>
      <point x="287.09090909090907" y="296.45454545454544" type="curve" smooth="yes"/>
      <point x="233.45454545454547" y="296.45454545454544"/>
      <point x="208.45454545454547" y="334.8181818181818"/>
      <point x="208.45454545454547" y="377.90909090909093" type="curve" smooth="yes"/>
      <point x="208.45454545454547" y="457.45454545454544"/>
      <point x="306.45454545454544" y="515.0"/>
      <point x="405.27272727272725" y="515.0" type="curve" smooth="yes"/>
      <point x="508.27272727272725" y="515.0"/>
      <point x="590.7272727272727" y="469.0"/>
      <point x="590.7272727272727" y="359.8181818181818" type="curve" smooth="yes"/>
      <point x="590.7272727272727" y="239.72727272727272"/>
      <point x="496.27272727272725" y="179.8181818181818"/>
      <point x="362.8181818181818" y="179.8181818181818" type="curve" smooth="yes"/>
      <point x="127.72727272727273" y="179.8181818181818" type="line" smooth="yes"/>
      <point x="57.54545454545455" y="179.8181818181818"/>
      <point x="10.636363636363637" y="143.63636363636363"/>
      <point x="10.636363636363637" y="80.27272727272727" type="curve" smooth="yes"/>
      <point x="10.636363636363637" y="35.81818181818182"/>
      <point x="45.54545454545455" y="0.0"/>
    </contour>
    <contour>
      <point x="896.7272727272727" y="103.45454545454545" type="curve" smooth="yes"/>
      <point x="987.1818181818181" y="103.45454545454545"/>
      <point x="1060.4545454545455" y="155.72727272727272"/>
      <point x="1060.4545454545455" y="258.09090909090907" type="curve" smooth="yes"/>
      <point x="1060.4545454545455" y="334.3636363636364"/>
      <point x="1008.3636363636364" y="381.8181818181818"/>
      <point x="936.0" y="381.8181818181818" type="curve" smooth="yes"/>
      <point x="855.2727272727273" y="381.8181818181818"/>
      <point x="797.1818181818181" y="316.72727272727275"/>
      <point x="766.5454545454545" y="238.36363636363637" type="curve"/>
      <point x="778.8181818181819" y="208.9090909090909" type="line"/>
      <point x="808.5454545454545" y="278.27272727272725"/>
      <point x="851.6363636363636" y="336.09090909090907"/>
      <point x="914.1818181818181" y="336.09090909090907" type="curve" smooth="yes"/>
      <point x="965.6363636363636" y="336.09090909090907"/>
      <point x="998.0909090909091" y="302.8181818181818"/>
      <point x="998.0909090909091" y="250.63636363636363" type="curve" smooth="yes"/>
      <point x="998.0909090909091" y="183.8181818181818"/>
      <point x="950.7272727272727" y="143.72727272727272"/>
      <point x="891.7272727272727" y="143.72727272727272" type="curve" smooth="yes"/>
      <point x="825.2727272727273" y="143.72727272727272"/>
      <point x="777.5454545454545" y="198.9090909090909"/>
      <point x="778.0" y="280.27272727272725" type="curve" smooth="yes"/>
      <point x="778.4545454545455" y="402.72727272727275"/>
      <point x="875.0909090909091" y="515.0"/>
      <point x="1015.3636363636364" y="515.0" type="curve" smooth="yes"/>
      <point x="1128.6363636363637" y="515.0"/>
      <point x="1221.090909090909" y="441.3636363636364"/>
      <point x="1191.2727272727273" y="303.27272727272725" type="curve"/>
      <point x="1223.6363636363637" y="303.72727272727275" type="line"/>
      <point x="1257.0" y="470.45454545454544"/>
      <point x="1151.3636363636363" y="555.8181818181819"/>
      <point x="1010.9090909090909" y="555.3636363636364" type="curve" smooth="yes"/>
      <point x="846.7272727272727" y="554.9090909090909"/>
      <point x="734.1818181818181" y="421.0"/>
      <point x="734.1818181818181" y="279.3636363636364" type="curve" smooth="yes"/>
      <point x="734.1818181818181" y="179.27272727272728"/>
      <point x="803.1818181818181" y="103.45454545454545"/>
    </contour>
    <contour>
      <point x="1149.5454545454545" y="107.0" type="line"/>
      <point x="1212.5454545454545" y="107.0" type="line"/>
      <point x="1298.3636363636363" y="509.72727272727275" type="line"/>
      <point x="1505.6363636363637" y="509.72727272727275" type="line"/>
      <point x="1420.2727272727273" y="107.0" type="line"/>
      <point x="1483.7272727272727" y="107.0" type="line"/>
      <point x="1569.090909090909" y="509.72727272727275" type="line"/>
      <point x="1694.090909090909" y="509.72727272727275" type="line"/>
      <point x="1702.3636363636363" y="548.5454545454545" type="line"/>
      <point x="1245.3636363636363" y="548.5454545454545" type="line"/>
      <point x="1212.4545454545455" y="394.45454545454544" type="line"/>
      <point x="1207.909090909091" y="382.72727272727275" type="line"/>
    </contour>
  </outline>
</glyph>
<glyph name="e-tamil" format="2">
  <advance width="871.6363636363636"/>
  <unicode hex="0B8E"/>
  <note>
uni0B8E
</note>
  <anchor x="410.0909090909091" y="0.0" name="bottom"/>
  <anchor x="411.0909090909091" y="0.0" name="nukta"/>
  <anchor x="528.6363636363636" y="548.5454545454545" name="top"/>
  <anchor x="529.7272727272727" y="548.5454545454545" name="vedic"/>
  <outline>
    <contour>
      <point x="239.63636363636363" y="-4.545454545454546" type="curve" smooth="yes"/>
      <point x="334.72727272727275" y="-4.545454545454546"/>
      <point x="409.45454545454544" y="55.90909090909091"/>
      <point x="409.45454545454544" y="161.0" type="curve" smooth="yes"/>
      <point x="409.45454545454544" y="234.45454545454547"/>
      <point x="359.1818181818182" y="293.90909090909093"/>
      <point x="274.45454545454544" y="293.90909090909093" type="curve" smooth="yes"/>
      <point x="179.9090909090909" y="293.90909090909093"/>
      <point x="114.72727272727273" y="219.45454545454547"/>
      <point x="88.0" y="127.54545454545455" type="curve"/>
      <point x="107.18181818181819" y="101.45454545454545" type="line"/>
      <point x="134.45454545454547" y="185.8181818181818"/>
      <point x="183.8181818181818" y="246.0"/>
      <point x="254.9090909090909" y="246.0" type="curve" smooth="yes"/>
      <point x="316.1818181818182" y="246.0"/>
      <point x="345.0" y="205.36363636363637"/>
      <point x="345.0" y="153.54545454545453" type="curve" smooth="yes"/>
      <point x="345.0" y="82.9090909090909"/>
      <point x="299.8181818181818" y="36.27272727272727"/>
      <point x="234.54545454545453" y="36.27272727272727" type="curve" smooth="yes"/>
      <point x="154.72727272727272" y="36.27272727272727"/>
      <point x="95.27272727272728" y="99.45454545454545"/>
      <point x="95.27272727272728" y="215.27272727272728" type="curve" smooth="yes"/>
      <point x="95.27272727272728" y="386.09090909090907"/>
      <point x="217.0" y="508.6363636363636"/>
      <point x="430.90909090909093" y="508.6363636363636" type="curve" smooth="yes"/>
      <point x="671.5454545454545" y="508.6363636363636" type="line"/>
      <point x="563.7272727272727" y="0.0" type="line"/>
      <point x="627.1818181818181" y="0.0" type="line"/>
      <point x="735.0" y="508.6363636363636" type="line"/>
      <point x="899.7272727272727" y="508.6363636363636" type="line"/>
      <point x="908.0" y="548.5454545454545" type="line"/>
      <point x="431.1818181818182" y="548.5454545454545" type="line" smooth="yes"/>
      <point x="186.27272727272728" y="548.5454545454545"/>
      <point x="51.36363636363637" y="404.72727272727275"/>
      <point x="51.36363636363637" y="211.63636363636363" type="curve" smooth="yes"/>
      <point x="51.36363636363637" y="77.36363636363636"/>
      <point x="132.54545454545453" y="-4.545454545454546"/>
    </contour>
  </outline>
</glyph>
<glyph name="ee-tamil" format="2">
  <advance width="871.0909090909091"/>
  <unicode hex="0B8F"/>
  <note>
uni0B8F
</note>
  <anchor x="409.54545454545456" y="0.0" name="bottom"/>
  <anchor x="369.54545454545456" y="-195.0" name="nukta"/>
  <anchor x="528.7272727272727" y="548.5454545454545" name="top"/>
  <anchor x="529.1818181818181" y="548.5454545454545" name="vedic"/>
  <outline>
    <contour>
      <point x="365.45454545454544" y="-225.45454545454547" type="line"/>
      <point x="628.2727272727273" y="6.272727272727273" type="line"/>
      <point x="735.4545454545455" y="508.6363636363636" type="line"/>
      <point x="899.1818181818181" y="508.6363636363636" type="line"/>
      <point x="908.0" y="548.5454545454545" type="line"/>
      <point x="431.1818181818182" y="548.5454545454545" type="line" smooth="yes"/>
      <point x="186.27272727272728" y="548.5454545454545"/>
      <point x="51.36363636363637" y="404.72727272727275"/>
      <point x="51.36363636363637" y="211.63636363636363" type="curve" smooth="yes"/>
      <point x="51.36363636363637" y="77.36363636363636"/>
      <point x="132.0909090909091" y="-4.545454545454546"/>
      <point x="239.1818181818182" y="-4.545454545454546" type="curve" smooth="yes"/>
      <point x="334.27272727272725" y="-4.545454545454546"/>
      <point x="409.45454545454544" y="55.90909090909091"/>
      <point x="409.45454545454544" y="161.0" type="curve" smooth="yes"/>
      <point x="409.45454545454544" y="234.0"/>
      <point x="359.1818181818182" y="293.90909090909093"/>
      <point x="274.45454545454544" y="293.90909090909093" type="curve" smooth="yes"/>
      <point x="179.9090909090909" y="293.90909090909093"/>
      <point x="114.72727272727273" y="219.45454545454547"/>
      <point x="88.0" y="127.54545454545455" type="curve"/>
      <point x="107.18181818181819" y="101.45454545454545" type="line"/>
      <point x="134.45454545454547" y="185.8181818181818"/>
      <point x="183.8181818181818" y="246.0"/>
      <point x="254.9090909090909" y="246.0" type="curve" smooth="yes"/>
      <point x="316.1818181818182" y="246.0"/>
      <point x="345.0" y="205.36363636363637"/>
      <point x="345.0" y="153.54545454545453" type="curve" smooth="yes"/>
      <point x="345.0" y="82.9090909090909"/>
      <point x="299.3636363636364" y="36.27272727272727"/>
      <point x="234.0909090909091" y="36.27272727272727" type="curve" smooth="yes"/>
      <point x="154.27272727272728" y="36.27272727272727"/>
      <point x="95.27272727272728" y="99.45454545454545"/>
      <point x="95.27272727272728" y="215.27272727272728" type="curve" smooth="yes"/>
      <point x="95.27272727272728" y="386.09090909090907"/>
      <point x="217.0" y="508.6363636363636"/>
      <point x="430.90909090909093" y="508.6363636363636" type="curve" smooth="yes"/>
      <point x="671.5454545454545" y="508.6363636363636" type="line"/>
      <point x="565.7272727272727" y="8.909090909090908" type="line"/>
      <point x="337.54545454545456" y="-192.36363636363637" type="line"/>
    </contour>
  </outline>
</glyph>
<glyph name="ai-tamil" format="2">
  <advance width="953.3636363636364"/>
  <unicode hex="0B90"/>
  <note>
uni0B90
</note>
  <anchor x="425.09090909090907" y="0.0" name="bottom"/>
  <anchor x="359.0" y="-287.8181818181818" name="nukta"/>
  <anchor x="546.4545454545455" y="548.5454545454545" name="top"/>
  <anchor x="546.3636363636364" y="548.5454545454545" name="vedic"/>
  <outline>
    <contour>
      <point x="172.9090909090909" y="-287.8181818181818" type="curve" smooth="yes"/>
      <point x="281.27272727272725" y="-287.8181818181818"/>
      <point x="361.6363636363636" y="-234.0909090909091"/>
      <point x="405.1818181818182" y="-163.9090909090909" type="curve"/>
      <point x="415.90909090909093" y="-231.8181818181818"/>
      <point x="479.6363636363636" y="-287.8181818181818"/>
      <point x="583.6363636363636" y="-287.8181818181818" type="curve" smooth="yes"/>
      <point x="723.9090909090909" y="-287.8181818181818"/>
      <point x="817.8181818181819" y="-206.63636363636363"/>
      <point x="817.8181818181819" y="-65.0909090909091" type="curve" smooth="yes"/>
      <point x="817.8181818181819" y="-15.272727272727273"/>
      <point x="801.8181818181819" y="34.27272727272727"/>
      <point x="778.1818181818181" y="77.81818181818181" type="curve"/>
      <point x="739.7272727272727" y="55.18181818181818" type="line"/>
      <point x="758.9090909090909" y="21.09090909090909"/>
      <point x="773.0909090909091" y="-25.272727272727273"/>
      <point x="773.0909090909091" y="-67.0" type="curve" smooth="yes"/>
      <point x="773.0909090909091" y="-179.36363636363637"/>
      <point x="693.5454545454545" y="-243.63636363636363"/>
      <point x="584.4545454545455" y="-243.63636363636363" type="curve" smooth="yes"/>
      <point x="479.09090909090907" y="-243.63636363636363"/>
      <point x="436.27272727272725" y="-175.9090909090909"/>
      <point x="456.6363636363636" y="-72.9090909090909" type="curve" smooth="yes"/>
      <point x="466.0" y="-26.0" type="line"/>
      <point x="404.90909090909093" y="-26.0" type="line"/>
      <point x="392.72727272727275" y="-79.54545454545455" type="line" smooth="yes"/>
      <point x="372.45454545454544" y="-168.72727272727272"/>
      <point x="288.27272727272725" y="-246.9090909090909"/>
      <point x="180.0909090909091" y="-246.9090909090909" type="curve" smooth="yes"/>
      <point x="95.54545454545455" y="-246.9090909090909"/>
      <point x="47.54545454545455" y="-200.9090909090909"/>
      <point x="47.54545454545455" y="-117.72727272727273" type="curve" smooth="yes"/>
      <point x="47.54545454545455" y="49.0"/>
      <point x="218.8181818181818" y="62.90909090909091"/>
      <point x="459.90909090909093" y="83.9090909090909" type="curve" smooth="yes"/>
      <point x="695.0" y="104.36363636363636"/>
      <point x="903.4545454545455" y="158.9090909090909"/>
      <point x="903.4545454545455" y="384.90909090909093" type="curve" smooth="yes"/>
      <point x="903.4545454545455" y="501.45454545454544"/>
      <point x="820.2727272727273" y="555.3636363636364"/>
      <point x="725.7272727272727" y="555.3636363636364" type="curve" smooth="yes"/>
      <point x="630.2727272727273" y="555.3636363636364"/>
      <point x="562.8181818181819" y="501.45454545454544"/>
      <point x="522.4545454545455" y="426.54545454545456" type="curve"/>
      <point x="502.6363636363636" y="505.45454545454544"/>
      <point x="432.1818181818182" y="555.3636363636364"/>
      <point x="327.3636363636364" y="555.3636363636364" type="curve" smooth="yes"/>
      <point x="180.27272727272728" y="555.3636363636364"/>
      <point x="69.81818181818181" y="453.90909090909093"/>
      <point x="69.81818181818181" y="312.3636363636364" type="curve" smooth="yes"/>
      <point x="69.81818181818181" y="232.0"/>
      <point x="122.27272727272727" y="159.63636363636363"/>
      <point x="208.9090909090909" y="159.63636363636363" type="curve" smooth="yes"/>
      <point x="286.45454545454544" y="159.63636363636363"/>
      <point x="357.09090909090907" y="207.1818181818182"/>
      <point x="357.09090909090907" y="297.09090909090907" type="curve" smooth="yes"/>
      <point x="357.09090909090907" y="360.1818181818182"/>
      <point x="313.0" y="405.6363636363636"/>
      <point x="247.0" y="405.6363636363636" type="curve" smooth="yes"/>
      <point x="178.63636363636363" y="405.6363636363636"/>
      <point x="122.72727272727273" y="358.90909090909093"/>
      <point x="91.36363636363636" y="265.1818181818182" type="curve"/>
      <point x="107.0909090909091" y="234.9090909090909" type="line"/>
      <point x="137.54545454545453" y="320.6363636363636"/>
      <point x="177.1818181818182" y="362.0"/>
      <point x="225.0909090909091" y="362.0" type="curve" smooth="yes"/>
      <point x="269.3636363636364" y="362.0"/>
      <point x="294.1818181818182" y="333.45454545454544"/>
      <point x="294.1818181818182" y="292.3636363636364" type="curve" smooth="yes"/>
      <point x="294.1818181818182" y="238.54545454545453"/>
      <point x="258.45454545454544" y="200.9090909090909"/>
      <point x="204.45454545454547" y="200.9090909090909" type="curve" smooth="yes"/>
      <point x="148.36363636363637" y="200.9090909090909"/>
      <point x="112.63636363636364" y="247.72727272727272"/>
      <point x="112.63636363636364" y="311.1818181818182" type="curve" smooth="yes"/>
      <point x="112.63636363636364" y="426.54545454545456"/>
      <point x="203.0" y="514.5454545454545"/>
      <point x="321.8181818181818" y="514.5454545454545" type="curve" smooth="yes"/>
      <point x="436.27272727272725" y="514.5454545454545"/>
      <point x="496.90909090909093" y="439.90909090909093"/>
      <point x="473.45454545454544" y="329.0" type="curve" smooth="yes"/>
      <point x="449.09090909090907" y="211.8181818181818" type="line"/>
      <point x="510.1818181818182" y="211.8181818181818" type="line"/>
      <point x="540.1818181818181" y="358.54545454545456" type="line" smooth="yes"/>
      <point x="555.6363636363636" y="434.09090909090907"/>
      <point x="617.3636363636364" y="515.0"/>
      <point x="714.6363636363636" y="515.0" type="curve" smooth="yes"/>
      <point x="796.0909090909091" y="515.0"/>
      <point x="839.1818181818181" y="462.3636363636364"/>
      <point x="839.1818181818181" y="383.6363636363636" type="curve" smooth="yes"/>
      <point x="839.1818181818181" y="178.72727272727272"/>
      <point x="665.0" y="136.72727272727272"/>
      <point x="427.27272727272725" y="116.81818181818181" type="curve" smooth="yes"/>
      <point x="173.9090909090909" y="95.81818181818181"/>
      <point x="-15.272727272727273" y="70.27272727272727"/>
      <point x="-15.272727272727273" y="-118.63636363636364" type="curve" smooth="yes"/>
      <point x="-15.272727272727273" y="-224.36363636363637"/>
      <point x="60.63636363636363" y="-287.8181818181818"/>
    </contour>
  </outline>
</glyph>
<glyph name="o-tamil" format="2">
  <advance width="972.9090909090909"/>
  <unicode hex="0B92"/>
  <note>
uni0B92
</note>
  <anchor x="432.1818181818182" y="0.0" name="bottom"/>
  <anchor x="359.1818181818182" y="-335.0" name="nukta"/>
  <anchor x="525.4545454545455" y="548.5454545454545" name="top"/>
  <anchor x="528.2727272727273" y="548.5454545454545" name="vedic"/>
  <outline>
    <contour>
      <point x="243.36363636363637" y="-325.72727272727275" type="curve" smooth="yes"/>
      <point x="420.1818181818182" y="-325.72727272727275"/>
      <point x="483.6363636363636" y="-139.63636363636363"/>
      <point x="660.1818181818181" y="-139.63636363636363" type="curve" smooth="yes"/>
      <point x="691.2727272727273" y="-139.63636363636363" type="line"/>
      <point x="699.5454545454545" y="-99.81818181818181" type="line"/>
      <point x="663.4545454545455" y="-99.81818181818181" type="line" smooth="yes"/>
      <point x="484.27272727272725" y="-99.81818181818181"/>
      <point x="452.54545454545456" y="98.36363636363636"/>
      <point x="588.8181818181819" y="220.72727272727272" type="curve"/>
      <point x="593.2727272727273" y="216.72727272727272" type="line"/>
      <point x="524.6363636363636" y="118.0"/>
      <point x="551.4545454545455" y="-5.0"/>
      <point x="675.0909090909091" y="-5.0" type="curve" smooth="yes"/>
      <point x="804.5454545454545" y="-5.0"/>
      <point x="901.0" y="90.0909090909091"/>
      <point x="901.0" y="237.72727272727272" type="curve" smooth="yes"/>
      <point x="901.0" y="455.45454545454544"/>
      <point x="708.4545454545455" y="555.3636363636364"/>
      <point x="495.54545454545456" y="555.3636363636364" type="curve" smooth="yes"/>
      <point x="239.1818181818182" y="555.3636363636364"/>
      <point x="48.45454545454545" y="397.72727272727275"/>
      <point x="48.45454545454545" y="210.27272727272728" type="curve" smooth="yes"/>
      <point x="48.45454545454545" y="76.0"/>
      <point x="125.54545454545455" y="-4.545454545454546"/>
      <point x="232.63636363636363" y="-4.545454545454546" type="curve" smooth="yes"/>
      <point x="327.72727272727275" y="-4.545454545454546"/>
      <point x="406.54545454545456" y="55.0"/>
      <point x="406.54545454545456" y="161.0" type="curve" smooth="yes"/>
      <point x="406.54545454545456" y="234.45454545454547"/>
      <point x="356.27272727272725" y="293.90909090909093"/>
      <point x="271.54545454545456" y="293.90909090909093" type="curve" smooth="yes"/>
      <point x="177.0" y="293.90909090909093"/>
      <point x="111.81818181818181" y="219.45454545454547"/>
      <point x="85.0909090909091" y="127.54545454545455" type="curve"/>
      <point x="104.27272727272728" y="101.45454545454545" type="line"/>
      <point x="131.54545454545453" y="185.8181818181818"/>
      <point x="180.9090909090909" y="246.0"/>
      <point x="252.0" y="246.0" type="curve" smooth="yes"/>
      <point x="313.27272727272725" y="246.0"/>
      <point x="342.09090909090907" y="205.36363636363637"/>
      <point x="342.09090909090907" y="153.54545454545453" type="curve" smooth="yes"/>
      <point x="342.09090909090907" y="82.9090909090909"/>
      <point x="292.8181818181818" y="36.27272727272727"/>
      <point x="227.54545454545453" y="36.27272727272727" type="curve" smooth="yes"/>
      <point x="147.72727272727272" y="36.27272727272727"/>
      <point x="92.36363636363636" y="98.0909090909091"/>
      <point x="92.36363636363636" y="213.9090909090909" type="curve" smooth="yes"/>
      <point x="92.36363636363636" y="376.90909090909093"/>
      <point x="263.8181818181818" y="515.0"/>
      <point x="490.72727272727275" y="515.0" type="curve" smooth="yes"/>
      <point x="678.3636363636364" y="515.0"/>
      <point x="838.1818181818181" y="420.8181818181818"/>
      <point x="838.1818181818181" y="241.36363636363637" type="curve" smooth="yes"/>
      <point x="838.1818181818181" y="127.63636363636364"/>
      <point x="774.6363636363636" y="36.27272727272727"/>
      <point x="675.4545454545455" y="36.27272727272727" type="curve" smooth="yes"/>
      <point x="567.9090909090909" y="36.27272727272727"/>
      <point x="577.3636363636364" y="167.63636363636363"/>
      <point x="660.9090909090909" y="258.1818181818182" type="curve"/>
      <point x="624.0909090909091" y="293.54545454545456" type="line"/>
      <point x="438.54545454545456" y="168.63636363636363"/>
      <point x="406.6363636363636" y="-48.54545454545455"/>
      <point x="564.0" y="-115.27272727272727" type="curve"/>
      <point x="563.0" y="-119.81818181818181" type="line"/>
      <point x="418.6363636363636" y="-142.54545454545453"/>
      <point x="363.90909090909093" y="-277.0"/>
      <point x="236.9090909090909" y="-277.0" type="curve" smooth="yes"/>
      <point x="182.27272727272728" y="-277.0"/>
      <point x="153.36363636363637" y="-240.54545454545453"/>
      <point x="153.36363636363637" y="-197.36363636363637" type="curve" smooth="yes"/>
      <point x="153.36363636363637" y="-148.27272727272728"/>
      <point x="180.72727272727272" y="-122.63636363636364"/>
      <point x="228.54545454545453" y="-86.72727272727273" type="curve"/>
      <point x="204.8181818181818" y="-55.90909090909091" type="line"/>
      <point x="146.0909090909091" y="-100.0909090909091"/>
      <point x="108.45454545454545" y="-134.36363636363637"/>
      <point x="108.45454545454545" y="-203.27272727272728" type="curve" smooth="yes"/>
      <point x="108.45454545454545" y="-270.72727272727275"/>
      <point x="156.54545454545453" y="-325.72727272727275"/>
    </contour>
  </outline>
</glyph>
<glyph name="oo-tamil" format="2">
  <advance width="972.9090909090909"/>
  <unicode hex="0B93"/>
  <note>
uni0B93
</note>
  <anchor x="419.72727272727275" y="0.0" name="bottom"/>
  <anchor x="352.54545454545456" y="-306.3636363636364" name="nukta"/>
  <anchor x="525.4545454545455" y="548.5454545454545" name="top"/>
  <anchor x="528.2727272727273" y="548.5454545454545" name="vedic"/>
  <outline>
    <contour>
      <point x="232.1818181818182" y="-333.45454545454544" type="curve" smooth="yes"/>
      <point x="409.3636363636364" y="-333.45454545454544"/>
      <point x="483.09090909090907" y="-139.63636363636363"/>
      <point x="659.6363636363636" y="-139.63636363636363" type="curve" smooth="yes"/>
      <point x="677.4545454545455" y="-139.63636363636363" type="line"/>
      <point x="685.7272727272727" y="-99.81818181818181" type="line"/>
      <point x="662.9090909090909" y="-99.81818181818181" type="line" smooth="yes"/>
      <point x="483.72727272727275" y="-99.81818181818181"/>
      <point x="451.45454545454544" y="98.36363636363636"/>
      <point x="588.2727272727273" y="220.1818181818182" type="curve"/>
      <point x="593.2727272727273" y="216.72727272727272" type="line"/>
      <point x="524.6363636363636" y="118.0"/>
      <point x="551.4545454545455" y="-5.0"/>
      <point x="675.0909090909091" y="-5.0" type="curve" smooth="yes"/>
      <point x="804.5454545454545" y="-5.0"/>
      <point x="901.0" y="90.0909090909091"/>
      <point x="901.0" y="237.72727272727272" type="curve" smooth="yes"/>
      <point x="901.0" y="455.45454545454544"/>
      <point x="708.4545454545455" y="555.3636363636364"/>
      <point x="495.54545454545456" y="555.3636363636364" type="curve" smooth="yes"/>
      <point x="239.1818181818182" y="555.3636363636364"/>
      <point x="48.45454545454545" y="397.72727272727275"/>
      <point x="48.45454545454545" y="210.27272727272728" type="curve" smooth="yes"/>
      <point x="48.45454545454545" y="76.0"/>
      <point x="125.54545454545455" y="-4.545454545454546"/>
      <point x="232.63636363636363" y="-4.545454545454546" type="curve" smooth="yes"/>
      <point x="327.72727272727275" y="-4.545454545454546"/>
      <point x="406.54545454545456" y="55.0"/>
      <point x="406.54545454545456" y="161.0" type="curve" smooth="yes"/>
      <point x="406.54545454545456" y="234.45454545454547"/>
      <point x="356.27272727272725" y="293.90909090909093"/>
      <point x="271.54545454545456" y="293.90909090909093" type="curve" smooth="yes"/>
      <point x="177.0" y="293.90909090909093"/>
      <point x="111.81818181818181" y="219.45454545454547"/>
      <point x="85.0909090909091" y="127.54545454545455" type="curve"/>
      <point x="104.27272727272728" y="101.45454545454545" type="line"/>
      <point x="131.54545454545453" y="185.8181818181818"/>
      <point x="180.9090909090909" y="246.0"/>
      <point x="252.0" y="246.0" type="curve" smooth="yes"/>
      <point x="313.27272727272725" y="246.0"/>
      <point x="342.09090909090907" y="205.36363636363637"/>
      <point x="342.09090909090907" y="153.54545454545453" type="curve" smooth="yes"/>
      <point x="342.09090909090907" y="82.9090909090909"/>
      <point x="292.8181818181818" y="36.27272727272727"/>
      <point x="227.54545454545453" y="36.27272727272727" type="curve" smooth="yes"/>
      <point x="147.72727272727272" y="36.27272727272727"/>
      <point x="92.36363636363636" y="98.0909090909091"/>
      <point x="92.36363636363636" y="213.9090909090909" type="curve" smooth="yes"/>
      <point x="92.36363636363636" y="376.90909090909093"/>
      <point x="263.8181818181818" y="515.0"/>
      <point x="490.72727272727275" y="515.0" type="curve" smooth="yes"/>
      <point x="678.3636363636364" y="515.0"/>
      <point x="838.1818181818181" y="420.8181818181818"/>
      <point x="838.1818181818181" y="241.36363636363637" type="curve" smooth="yes"/>
      <point x="838.1818181818181" y="127.63636363636364"/>
      <point x="774.6363636363636" y="36.27272727272727"/>
      <point x="675.4545454545455" y="36.27272727272727" type="curve" smooth="yes"/>
      <point x="567.9090909090909" y="36.27272727272727"/>
      <point x="577.3636363636364" y="167.63636363636363"/>
      <point x="660.9090909090909" y="258.1818181818182" type="curve"/>
      <point x="624.0909090909091" y="293.54545454545456" type="line"/>
      <point x="436.90909090909093" y="168.63636363636363"/>
      <point x="406.09090909090907" y="-48.54545454545455"/>
      <point x="563.4545454545455" y="-115.27272727272727" type="curve"/>
      <point x="562.4545454545455" y="-119.81818181818181" type="line"/>
      <point x="418.09090909090907" y="-142.54545454545453"/>
      <point x="347.09090909090907" y="-284.72727272727275"/>
      <point x="224.63636363636363" y="-284.72727272727275" type="curve" smooth="yes"/>
      <point x="169.54545454545453" y="-284.72727272727275"/>
      <point x="138.1818181818182" y="-253.0"/>
      <point x="138.1818181818182" y="-206.72727272727272" type="curve" smooth="yes"/>
      <point x="138.1818181818182" y="-154.0909090909091"/>
      <point x="176.54545454545453" y="-122.18181818181819"/>
      <point x="222.45454545454547" y="-122.18181818181819" type="curve" smooth="yes"/>
      <point x="258.54545454545456" y="-122.18181818181819"/>
      <point x="285.1818181818182" y="-141.0909090909091"/>
      <point x="294.0" y="-169.0909090909091" type="curve"/>
      <point x="316.45454545454544" y="-159.0"/>
      <point x="341.0" y="-141.45454545454547"/>
      <point x="341.0" y="-111.72727272727273" type="curve" smooth="yes"/>
      <point x="341.0" y="-78.36363636363636"/>
      <point x="303.45454545454544" y="-59.72727272727273"/>
      <point x="256.6363636363636" y="-59.72727272727273" type="curve" smooth="yes"/>
      <point x="162.9090909090909" y="-59.72727272727273"/>
      <point x="93.27272727272727" y="-127.72727272727273"/>
      <point x="93.27272727272727" y="-212.45454545454547" type="curve" smooth="yes"/>
      <point x="93.27272727272727" y="-284.72727272727275"/>
      <point x="153.8181818181818" y="-333.45454545454544"/>
    </contour>
  </outline>
</glyph>
<glyph name="ka-tamil" format="2">
  <advance width="805.6363636363636"/>
  <unicode hex="0B95"/>
  <note>
uni0B95
</note>
  <anchor x="337.54545454545456" y="0.0" name="bottom"/>
  <anchor x="571.5454545454545" y="548.5454545454545" name="imatra"/>
  <anchor x="339.8181818181818" y="0.0" name="nukta"/>
  <anchor x="463.1818181818182" y="548.5454545454545" name="top"/>
  <anchor x="473.1818181818182" y="548.5454545454545" name="vedic"/>
  <outline>
    <contour>
      <point x="211.36363636363637" y="-4.0" type="curve" smooth="yes"/>
      <point x="330.90909090909093" y="-4.0"/>
      <point x="400.90909090909093" y="57.09090909090909"/>
      <point x="428.90909090909093" y="185.27272727272728" type="curve" smooth="yes"/>
      <point x="447.1818181818182" y="268.45454545454544" type="line"/>
      <point x="535.5454545454545" y="268.45454545454544" type="line" smooth="yes"/>
      <point x="620.6363636363636" y="268.45454545454544"/>
      <point x="659.0" y="228.1818181818182"/>
      <point x="659.0" y="162.0909090909091" type="curve" smooth="yes"/>
      <point x="659.0" y="85.54545454545455"/>
      <point x="598.9090909090909" y="37.36363636363636"/>
      <point x="520.1818181818181" y="37.36363636363636" type="curve" smooth="yes"/>
      <point x="479.27272727272725" y="37.36363636363636" type="line"/>
      <point x="471.45454545454544" y="-2.0" type="line"/>
      <point x="524.4545454545455" y="-2.0" type="line" smooth="yes"/>
      <point x="635.9090909090909" y="-2.0"/>
      <point x="722.4545454545455" y="58.72727272727273"/>
      <point x="722.4545454545455" y="167.63636363636363" type="curve" smooth="yes"/>
      <point x="722.4545454545455" y="255.45454545454547"/>
      <point x="662.3636363636364" y="308.8181818181818"/>
      <point x="542.8181818181819" y="308.8181818181818" type="curve" smooth="yes"/>
      <point x="455.45454545454544" y="308.8181818181818" type="line"/>
      <point x="498.0909090909091" y="508.6363636363636" type="line"/>
      <point x="675.5454545454545" y="508.6363636363636" type="line"/>
      <point x="683.8181818181819" y="548.5454545454545" type="line"/>
      <point x="222.0909090909091" y="548.5454545454545" type="line"/>
      <point x="166.0" y="285.09090909090907" type="line"/>
      <point x="210.0909090909091" y="285.09090909090907" type="line"/>
      <point x="257.3636363636364" y="508.6363636363636" type="line"/>
      <point x="434.6363636363636" y="508.6363636363636" type="line"/>
      <point x="392.0" y="308.8181818181818" type="line"/>
      <point x="243.0909090909091" y="308.8181818181818" type="line" smooth="yes"/>
      <point x="122.36363636363636" y="308.8181818181818"/>
      <point x="35.81818181818182" y="246.72727272727272"/>
      <point x="35.81818181818182" y="142.0909090909091" type="curve" smooth="yes"/>
      <point x="35.81818181818182" y="52.54545454545455"/>
      <point x="107.72727272727273" y="-4.0"/>
    </contour>
    <contour>
      <point x="209.63636363636363" y="36.27272727272727" type="curve" smooth="yes"/>
      <point x="136.45454545454547" y="36.27272727272727"/>
      <point x="86.72727272727273" y="75.9090909090909"/>
      <point x="86.72727272727273" y="147.72727272727272" type="curve" smooth="yes"/>
      <point x="86.72727272727273" y="222.63636363636363"/>
      <point x="144.9090909090909" y="268.45454545454544"/>
      <point x="240.0" y="268.45454545454544" type="curve" smooth="yes"/>
      <point x="383.72727272727275" y="268.45454545454544" type="line"/>
      <point x="364.90909090909093" y="180.0909090909091" type="line" smooth="yes"/>
      <point x="344.45454545454544" y="82.63636363636364"/>
      <point x="292.45454545454544" y="36.27272727272727"/>
    </contour>
  </outline>
</glyph>
<glyph name="ja-tamil" format="2">
  <advance width="953.3636363636364"/>
  <unicode hex="0B9C"/>
  <note>
uni0B9C
</note>
  <anchor x="426.1818181818182" y="0.0" name="bottom"/>
  <anchor x="360.09090909090907" y="-287.8181818181818" name="nukta"/>
  <anchor x="538.3636363636364" y="548.5454545454545" name="top"/>
  <anchor x="536.9090909090909" y="548.5454545454545" name="vedic"/>
  <outline>
    <contour>
      <point x="151.0909090909091" y="-287.8181818181818" type="curve" smooth="yes"/>
      <point x="358.1818181818182" y="-287.8181818181818"/>
      <point x="438.90909090909093" y="-8.363636363636363"/>
      <point x="635.1818181818181" y="-8.363636363636363" type="curve" smooth="yes"/>
      <point x="707.0909090909091" y="-8.363636363636363"/>
      <point x="745.6363636363636" y="-53.0"/>
      <point x="745.6363636363636" y="-113.36363636363636" type="curve" smooth="yes"/>
      <point x="745.6363636363636" y="-195.0"/>
      <point x="689.5454545454545" y="-250.1818181818182"/>
      <point x="607.0" y="-250.1818181818182" type="curve" smooth="yes"/>
      <point x="570.3636363636364" y="-250.1818181818182"/>
      <point x="537.4545454545455" y="-239.0"/>
      <point x="505.8181818181818" y="-218.0909090909091" type="curve"/>
      <point x="484.3636363636364" y="-248.9090909090909" type="line"/>
      <point x="521.0909090909091" y="-274.45454545454544"/>
      <point x="561.5454545454545" y="-287.8181818181818"/>
      <point x="615.0909090909091" y="-287.8181818181818" type="curve" smooth="yes"/>
      <point x="720.0909090909091" y="-287.8181818181818"/>
      <point x="810.0" y="-224.9090909090909"/>
      <point x="810.0" y="-112.45454545454545" type="curve" smooth="yes"/>
      <point x="810.0" y="-16.727272727272727"/>
      <point x="741.1818181818181" y="32.0"/>
      <point x="645.3636363636364" y="32.0" type="curve" smooth="yes"/>
      <point x="419.54545454545456" y="32.0"/>
      <point x="331.90909090909093" y="-248.0"/>
      <point x="160.1818181818182" y="-248.0" type="curve" smooth="yes"/>
      <point x="84.45454545454545" y="-248.0"/>
      <point x="49.36363636363636" y="-198.1818181818182"/>
      <point x="49.36363636363636" y="-121.36363636363636" type="curve" smooth="yes"/>
      <point x="49.36363636363636" y="37.27272727272727"/>
      <point x="214.1818181818182" y="63.45454545454545"/>
      <point x="455.27272727272725" y="85.0" type="curve" smooth="yes"/>
      <point x="697.4545454545455" y="106.54545454545455"/>
      <point x="904.5454545454545" y="160.0"/>
      <point x="904.5454545454545" y="384.90909090909093" type="curve" smooth="yes"/>
      <point x="904.5454545454545" y="501.45454545454544"/>
      <point x="821.3636363636364" y="555.3636363636364"/>
      <point x="726.8181818181819" y="555.3636363636364" type="curve" smooth="yes"/>
      <point x="631.3636363636364" y="555.3636363636364"/>
      <point x="563.9090909090909" y="501.45454545454544"/>
      <point x="523.5454545454545" y="426.54545454545456" type="curve"/>
      <point x="503.72727272727275" y="505.45454545454544"/>
      <point x="433.27272727272725" y="555.3636363636364"/>
      <point x="328.45454545454544" y="555.3636363636364" type="curve" smooth="yes"/>
      <point x="181.36363636363637" y="555.3636363636364"/>
      <point x="70.9090909090909" y="453.90909090909093"/>
      <point x="70.9090909090909" y="312.3636363636364" type="curve" smooth="yes"/>
      <point x="70.9090909090909" y="232.0"/>
      <point x="123.36363636363636" y="159.63636363636363"/>
      <point x="210.0" y="159.63636363636363" type="curve" smooth="yes"/>
      <point x="287.54545454545456" y="159.63636363636363"/>
      <point x="358.1818181818182" y="207.1818181818182"/>
      <point x="358.1818181818182" y="297.09090909090907" type="curve" smooth="yes"/>
      <point x="358.1818181818182" y="360.1818181818182"/>
      <point x="314.09090909090907" y="405.6363636363636"/>
      <point x="248.0909090909091" y="405.6363636363636" type="curve" smooth="yes"/>
      <point x="179.72727272727272" y="405.6363636363636"/>
      <point x="123.81818181818181" y="358.90909090909093"/>
      <point x="92.45454545454545" y="265.1818181818182" type="curve"/>
      <point x="108.18181818181819" y="234.9090909090909" type="line"/>
      <point x="138.63636363636363" y="320.6363636363636"/>
      <point x="178.27272727272728" y="362.0"/>
      <point x="226.1818181818182" y="362.0" type="curve" smooth="yes"/>
      <point x="270.45454545454544" y="362.0"/>
      <point x="295.27272727272725" y="333.45454545454544"/>
      <point x="295.27272727272725" y="292.3636363636364" type="curve" smooth="yes"/>
      <point x="295.27272727272725" y="238.54545454545453"/>
      <point x="259.54545454545456" y="200.9090909090909"/>
      <point x="205.54545454545453" y="200.9090909090909" type="curve" smooth="yes"/>
      <point x="149.45454545454547" y="200.9090909090909"/>
      <point x="113.72727272727273" y="247.72727272727272"/>
      <point x="113.72727272727273" y="311.1818181818182" type="curve" smooth="yes"/>
      <point x="113.72727272727273" y="426.54545454545456"/>
      <point x="204.0909090909091" y="514.5454545454545"/>
      <point x="322.90909090909093" y="514.5454545454545" type="curve" smooth="yes"/>
      <point x="437.3636363636364" y="514.5454545454545"/>
      <point x="498.0" y="439.90909090909093"/>
      <point x="474.54545454545456" y="329.0" type="curve" smooth="yes"/>
      <point x="450.1818181818182" y="211.8181818181818" type="line"/>
      <point x="511.27272727272725" y="211.8181818181818" type="line"/>
      <point x="541.2727272727273" y="358.54545454545456" type="line" smooth="yes"/>
      <point x="556.7272727272727" y="434.09090909090907"/>
      <point x="618.4545454545455" y="515.0"/>
      <point x="715.7272727272727" y="515.0" type="curve" smooth="yes"/>
      <point x="797.1818181818181" y="515.0"/>
      <point x="840.2727272727273" y="462.3636363636364"/>
      <point x="840.2727272727273" y="383.6363636363636" type="curve" smooth="yes"/>
      <point x="840.2727272727273" y="179.8181818181818"/>
      <point x="667.4545454545455" y="138.9090909090909"/>
      <point x="422.6363636363636" y="117.9090909090909" type="curve" smooth="yes"/>
      <point x="169.27272727272728" y="96.36363636363636"/>
      <point x="-13.454545454545455" y="59.45454545454545"/>
      <point x="-13.454545454545455" y="-122.27272727272727" type="curve" smooth="yes"/>
      <point x="-13.454545454545455" y="-222.0909090909091"/>
      <point x="46.36363636363636" y="-287.8181818181818"/>
    </contour>
  </outline>
</glyph>
<glyph name="nya-tamil" format="2">
  <advance width="1237.6363636363637"/>
  <unicode hex="0B9E"/>
  <note>
uni0B9E
</note>
  <anchor x="596.2727272727273" y="0.0" name="bottom"/>
  <anchor x="1056.3636363636363" y="548.5454545454545" name="imatra"/>
  <anchor x="537.4545454545455" y="-333.0" name="nukta"/>
  <anchor x="722.5454545454545" y="548.5454545454545" name="top"/>
  <anchor x="679.5454545454545" y="548.5454545454545" name="vedic"/>
  <outline>
    <contour>
      <point x="537.4545454545455" y="-333.0" type="curve" smooth="yes"/>
      <point x="885.8181818181819" y="-333.0"/>
      <point x="1153.2727272727273" y="-121.45454545454545"/>
      <point x="1153.2727272727273" y="167.8181818181818" type="curve" smooth="yes"/>
      <point x="1153.2727272727273" y="275.90909090909093"/>
      <point x="1099.3636363636363" y="337.27272727272725"/>
      <point x="1010.9090909090909" y="337.27272727272725" type="curve" smooth="yes"/>
      <point x="921.0909090909091" y="337.27272727272725"/>
      <point x="868.2727272727273" y="273.6363636363636"/>
      <point x="848.2727272727273" y="179.0909090909091" type="curve" smooth="yes"/>
      <point x="841.4545454545455" y="147.0909090909091" type="line"/>
      <point x="864.3636363636364" y="147.0909090909091" type="line"/>
      <point x="871.1818181818181" y="180.72727272727272" type="line" smooth="yes"/>
      <point x="884.4545454545455" y="242.8181818181818"/>
      <point x="918.1818181818181" y="294.1818181818182"/>
      <point x="989.0" y="294.1818181818182" type="curve" smooth="yes"/>
      <point x="1049.8181818181818" y="294.1818181818182"/>
      <point x="1087.2727272727273" y="252.1818181818182"/>
      <point x="1087.2727272727273" y="168.36363636363637" type="curve" smooth="yes"/>
      <point x="1087.2727272727273" y="-93.36363636363636"/>
      <point x="849.8181818181819" y="-291.72727272727275"/>
      <point x="538.7272727272727" y="-291.72727272727275" type="curve" smooth="yes"/>
      <point x="277.90909090909093" y="-291.72727272727275"/>
      <point x="84.0909090909091" y="-126.72727272727273"/>
      <point x="84.0909090909091" y="145.1818181818182" type="curve" smooth="yes"/>
      <point x="84.0909090909091" y="351.3636363636364"/>
      <point x="187.8181818181818" y="504.72727272727275"/>
      <point x="357.45454545454544" y="630.1818181818181" type="curve"/>
      <point x="333.3636363636364" y="663.8181818181819" type="line"/>
      <point x="153.8181818181818" y="530.4545454545455"/>
      <point x="39.36363636363637" y="364.0"/>
      <point x="39.36363636363637" y="140.54545454545453" type="curve" smooth="yes"/>
      <point x="39.36363636363637" y="-150.45454545454547"/>
      <point x="254.27272727272728" y="-333.0"/>
    </contour>
    <component base="e-tamil" xOffset="210.54545454545453"/>
  </outline>
</glyph>
<glyph name="tta-tamil" format="2">
  <advance width="874.8181818181819"/>
  <unicode hex="0B9F"/>
  <note>
uni0B9F
</note>
  <anchor x="428.3636363636364" y="0.0" name="bottom"/>
  <anchor x="428.3636363636364" y="0.0" name="nukta"/>
  <anchor x="531.8181818181819" y="548.5454545454545" name="top"/>
  <anchor x="532.2727272727273" y="548.5454545454545" name="vedic"/>
  <outline>
    <contour>
      <point x="53.54545454545455" y="0.0" type="line"/>
      <point x="799.0909090909091" y="0.0" type="line"/>
      <point x="807.9090909090909" y="39.90909090909091" type="line"/>
      <point x="125.27272727272728" y="39.90909090909091" type="line"/>
      <point x="233.0909090909091" y="548.5454545454545" type="line"/>
      <point x="170.1818181818182" y="548.5454545454545" type="line"/>
    </contour>
  </outline>
</glyph>
<glyph name="nna-tamil" format="2">
  <advance width="1660.4545454545455"/>
  <unicode hex="0BA3"/>
  <note>
uni0BA3
</note>
  <anchor x="829.9090909090909" y="0.0" name="bottom"/>
  <anchor x="1583.1818181818182" y="548.5454545454545" name="imatra"/>
  <anchor x="829.9090909090909" y="0.0" name="nukta"/>
  <anchor x="928.6363636363636" y="548.5454545454545" name="top"/>
  <anchor x="909.8181818181819" y="548.5454545454545" name="vedic"/>
  <outline>
    <contour>
      <point x="632.4545454545455" y="-5.0" type="curve" smooth="yes"/>
      <point x="732.0909090909091" y="-5.0"/>
      <point x="824.6363636363636" y="66.45454545454545"/>
      <point x="824.6363636363636" y="216.45454545454547" type="curve" smooth="yes"/>
      <point x="824.6363636363636" y="428.54545454545456"/>
      <point x="652.6363636363636" y="555.3636363636364"/>
      <point x="449.72727272727275" y="555.3636363636364" type="curve" smooth="yes"/>
      <point x="221.45454545454547" y="555.3636363636364"/>
      <point x="49.36363636363637" y="399.09090909090907"/>
      <point x="49.36363636363637" y="211.63636363636363" type="curve" smooth="yes"/>
      <point x="49.36363636363637" y="77.36363636363636"/>
      <point x="130.54545454545453" y="-4.545454545454546"/>
      <point x="237.63636363636363" y="-4.545454545454546" type="curve" smooth="yes"/>
      <point x="332.72727272727275" y="-4.545454545454546"/>
      <point x="407.45454545454544" y="55.0"/>
      <point x="407.45454545454544" y="161.0" type="curve" smooth="yes"/>
      <point x="407.45454545454544" y="234.45454545454547"/>
      <point x="357.1818181818182" y="293.90909090909093"/>
      <point x="272.45454545454544" y="293.90909090909093" type="curve" smooth="yes"/>
      <point x="177.9090909090909" y="293.90909090909093"/>
      <point x="112.72727272727273" y="219.45454545454547"/>
      <point x="86.0" y="127.54545454545455" type="curve"/>
      <point x="105.18181818181819" y="101.45454545454545" type="line"/>
      <point x="132.45454545454547" y="185.8181818181818"/>
      <point x="181.8181818181818" y="246.0"/>
      <point x="252.9090909090909" y="246.0" type="curve" smooth="yes"/>
      <point x="314.1818181818182" y="246.0"/>
      <point x="343.0" y="205.36363636363637"/>
      <point x="343.0" y="153.54545454545453" type="curve" smooth="yes"/>
      <point x="343.0" y="82.9090909090909"/>
      <point x="297.8181818181818" y="36.27272727272727"/>
      <point x="232.54545454545453" y="36.27272727272727" type="curve" smooth="yes"/>
      <point x="152.72727272727272" y="36.27272727272727"/>
      <point x="93.27272727272728" y="99.45454545454545"/>
      <point x="93.27272727272728" y="215.27272727272728" type="curve" smooth="yes"/>
      <point x="93.27272727272728" y="378.27272727272725"/>
      <point x="246.0909090909091" y="515.0"/>
      <point x="444.90909090909093" y="515.0" type="curve" smooth="yes"/>
      <point x="625.4545454545455" y="515.0"/>
      <point x="760.1818181818181" y="391.72727272727275"/>
      <point x="760.1818181818181" y="219.54545454545453" type="curve" smooth="yes"/>
      <point x="760.1818181818181" y="97.81818181818181"/>
      <point x="697.5454545454545" y="37.90909090909091"/>
      <point x="624.7272727272727" y="37.90909090909091" type="curve" smooth="yes"/>
      <point x="566.4545454545455" y="37.90909090909091"/>
      <point x="532.4545454545455" y="89.0"/>
      <point x="532.4545454545455" y="171.9090909090909" type="curve" smooth="yes"/>
      <point x="532.4545454545455" y="338.90909090909093"/>
      <point x="698.9090909090909" y="515.0"/>
      <point x="901.2727272727273" y="515.0" type="curve" smooth="yes"/>
      <point x="1087.3636363636363" y="515.0"/>
      <point x="1190.1818181818182" y="391.3636363636364"/>
      <point x="1190.1818181818182" y="224.0909090909091" type="curve" smooth="yes"/>
      <point x="1190.1818181818182" y="100.72727272727272"/>
      <point x="1126.0" y="37.90909090909091"/>
      <point x="1052.6363636363637" y="37.90909090909091" type="curve" smooth="yes"/>
      <point x="992.4545454545455" y="37.90909090909091"/>
      <point x="962.4545454545455" y="84.9090909090909"/>
      <point x="962.4545454545455" y="168.9090909090909" type="curve" smooth="yes"/>
      <point x="962.4545454545455" y="348.45454545454544"/>
      <point x="1143.090909090909" y="508.6363636363636"/>
      <point x="1343.4545454545455" y="508.6363636363636" type="curve" smooth="yes"/>
      <point x="1688.5454545454545" y="508.6363636363636" type="line"/>
      <point x="1697.3636363636363" y="548.5454545454545" type="line"/>
      <point x="1350.2727272727273" y="548.5454545454545" type="line" smooth="yes"/>
      <point x="1120.909090909091" y="548.5454545454545"/>
      <point x="919.6363636363636" y="371.3636363636364"/>
      <point x="919.6363636363636" y="163.63636363636363" type="curve" smooth="yes"/>
      <point x="919.6363636363636" y="67.36363636363636"/>
      <point x="962.9090909090909" y="-5.0"/>
      <point x="1060.3636363636363" y="-5.0" type="curve" smooth="yes"/>
      <point x="1161.0" y="-5.0"/>
      <point x="1254.6363636363637" y="69.36363636363636"/>
      <point x="1254.6363636363637" y="221.0" type="curve" smooth="yes"/>
      <point x="1254.6363636363637" y="428.6363636363636"/>
      <point x="1116.3636363636363" y="555.3636363636364"/>
      <point x="906.0909090909091" y="555.3636363636364" type="curve" smooth="yes"/>
      <point x="676.0909090909091" y="555.3636363636364"/>
      <point x="489.6363636363636" y="360.90909090909093"/>
      <point x="489.6363636363636" y="166.63636363636363" type="curve" smooth="yes"/>
      <point x="489.6363636363636" y="70.36363636363636"/>
      <point x="536.3636363636364" y="-5.0"/>
    </contour>
    <contour>
      <point x="1354.8181818181818" y="0.0" type="line"/>
      <point x="1417.8181818181818" y="0.0" type="line"/>
      <point x="1530.8181818181818" y="528.5454545454545" type="line"/>
      <point x="1467.3636363636363" y="528.5454545454545" type="line"/>
    </contour>
  </outline>
</glyph>
<glyph name="ta-tamil" format="2">
  <advance width="806.5454545454545"/>
  <unicode hex="0BA4"/>
  <note>
uni0BA4
</note>
  <anchor x="320.8181818181818" y="0.0" name="bottom"/>
  <anchor x="616.2727272727273" y="548.5454545454545" name="imatra"/>
  <anchor x="292.1818181818182" y="-135.9090909090909" name="nukta"/>
  <anchor x="459.1818181818182" y="548.5454545454545" name="top"/>
  <anchor x="441.6363636363636" y="548.5454545454545" name="vedic"/>
  <outline>
    <contour>
      <point x="52.27272727272727" y="-228.0909090909091" type="curve"/>
      <point x="64.0909090909091" y="-174.0909090909091"/>
      <point x="91.63636363636364" y="-135.45454545454547"/>
      <point x="167.72727272727272" y="-135.45454545454547" type="curve" smooth="yes"/>
      <point x="361.8181818181818" y="-135.45454545454547" type="line" smooth="yes"/>
      <point x="571.0909090909091" y="-135.45454545454547"/>
      <point x="709.6363636363636" y="-52.0"/>
      <point x="709.6363636363636" y="124.18181818181819" type="curve" smooth="yes"/>
      <point x="709.6363636363636" y="243.45454545454547"/>
      <point x="627.9090909090909" y="308.8181818181818"/>
      <point x="498.8181818181818" y="308.8181818181818" type="curve" smooth="yes"/>
      <point x="456.90909090909093" y="308.8181818181818" type="line"/>
      <point x="499.54545454545456" y="508.6363636363636" type="line"/>
      <point x="673.3636363636364" y="508.6363636363636" type="line"/>
      <point x="681.6363636363636" y="548.5454545454545" type="line"/>
      <point x="223.54545454545453" y="548.5454545454545" type="line"/>
      <point x="167.45454545454547" y="285.09090909090907" type="line"/>
      <point x="211.54545454545456" y="285.09090909090907" type="line"/>
      <point x="258.8181818181818" y="508.6363636363636" type="line"/>
      <point x="436.09090909090907" y="508.6363636363636" type="line"/>
      <point x="393.45454545454544" y="308.8181818181818" type="line"/>
      <point x="244.54545454545453" y="308.8181818181818" type="line" smooth="yes"/>
      <point x="123.81818181818181" y="308.8181818181818"/>
      <point x="37.27272727272727" y="246.72727272727272"/>
      <point x="37.27272727272727" y="142.0909090909091" type="curve" smooth="yes"/>
      <point x="37.27272727272727" y="52.54545454545455"/>
      <point x="109.18181818181819" y="-4.0"/>
      <point x="212.8181818181818" y="-4.0" type="curve" smooth="yes"/>
      <point x="332.3636363636364" y="-4.0"/>
      <point x="402.3636363636364" y="57.09090909090909"/>
      <point x="430.3636363636364" y="185.27272727272728" type="curve" smooth="yes"/>
      <point x="448.6363636363636" y="268.45454545454544" type="line"/>
      <point x="491.54545454545456" y="268.45454545454544" type="line" smooth="yes"/>
      <point x="585.9090909090909" y="268.45454545454544"/>
      <point x="646.1818181818181" y="217.54545454545453"/>
      <point x="646.1818181818181" y="120.45454545454545" type="curve" smooth="yes"/>
      <point x="646.1818181818181" y="-18.545454545454547"/>
      <point x="538.3636363636364" y="-98.27272727272727"/>
      <point x="353.54545454545456" y="-98.27272727272727" type="curve" smooth="yes"/>
      <point x="141.0" y="-98.27272727272727" type="line" smooth="yes"/>
      <point x="54.54545454545455" y="-98.27272727272727"/>
      <point x="-4.454545454545455" y="-122.81818181818181"/>
      <point x="-4.454545454545455" y="-178.45454545454547" type="curve" smooth="yes"/>
      <point x="-4.454545454545455" y="-210.8181818181818"/>
      <point x="15.181818181818182" y="-228.0909090909091"/>
    </contour>
    <contour>
      <point x="211.0909090909091" y="36.27272727272727" type="curve" smooth="yes"/>
      <point x="137.9090909090909" y="36.27272727272727"/>
      <point x="88.18181818181819" y="75.9090909090909"/>
      <point x="88.18181818181819" y="147.72727272727272" type="curve" smooth="yes"/>
      <point x="88.18181818181819" y="222.63636363636363"/>
      <point x="146.36363636363637" y="268.45454545454544"/>
      <point x="241.45454545454547" y="268.45454545454544" type="curve" smooth="yes"/>
      <point x="385.1818181818182" y="268.45454545454544" type="line"/>
      <point x="366.3636363636364" y="180.0909090909091" type="line" smooth="yes"/>
      <point x="345.90909090909093" y="82.63636363636364"/>
      <point x="293.90909090909093" y="36.27272727272727"/>
    </contour>
  </outline>
</glyph>
<glyph name="nnna-tamil" format="2">
  <advance width="1254.8181818181818"/>
  <unicode hex="0BA9"/>
  <note>
uni0BA9
</note>
  <anchor x="581.8181818181819" y="0.0" name="bottom"/>
  <anchor x="1177.5454545454545" y="548.5454545454545" name="imatra"/>
  <anchor x="582.7272727272727" y="0.0" name="nukta"/>
  <anchor x="710.1818181818181" y="548.5454545454545" name="top"/>
  <anchor x="707.0" y="548.5454545454545" name="vedic"/>
  <outline>
    <contour>
      <point x="237.63636363636363" y="-4.545454545454546" type="curve" smooth="yes"/>
      <point x="332.72727272727275" y="-4.545454545454546"/>
      <point x="407.45454545454544" y="55.0"/>
      <point x="407.45454545454544" y="161.0" type="curve" smooth="yes"/>
      <point x="407.45454545454544" y="234.45454545454547"/>
      <point x="357.1818181818182" y="293.90909090909093"/>
      <point x="272.45454545454544" y="293.90909090909093" type="curve" smooth="yes"/>
      <point x="177.9090909090909" y="293.90909090909093"/>
      <point x="112.72727272727273" y="219.45454545454547"/>
      <point x="86.0" y="127.54545454545455" type="curve"/>
      <point x="105.18181818181819" y="101.45454545454545" type="line"/>
      <point x="132.45454545454547" y="185.8181818181818"/>
      <point x="181.8181818181818" y="246.0"/>
      <point x="252.9090909090909" y="246.0" type="curve" smooth="yes"/>
      <point x="314.1818181818182" y="246.0"/>
      <point x="343.0" y="205.36363636363637"/>
      <point x="343.0" y="153.54545454545453" type="curve" smooth="yes"/>
      <point x="343.0" y="82.9090909090909"/>
      <point x="297.8181818181818" y="36.27272727272727"/>
      <point x="232.54545454545453" y="36.27272727272727" type="curve" smooth="yes"/>
      <point x="152.72727272727272" y="36.27272727272727"/>
      <point x="93.27272727272728" y="99.45454545454545"/>
      <point x="93.27272727272728" y="215.27272727272728" type="curve" smooth="yes"/>
      <point x="93.27272727272728" y="378.27272727272725"/>
      <point x="239.36363636363637" y="515.0"/>
      <point x="436.8181818181818" y="515.0" type="curve" smooth="yes"/>
      <point x="624.7272727272727" y="515.0"/>
      <point x="763.4545454545455" y="393.54545454545456"/>
      <point x="763.4545454545455" y="221.36363636363637" type="curve" smooth="yes"/>
      <point x="763.4545454545455" y="99.63636363636364"/>
      <point x="698.3636363636364" y="37.90909090909091"/>
      <point x="625.9090909090909" y="37.90909090909091" type="curve" smooth="yes"/>
      <point x="565.2727272727273" y="37.90909090909091"/>
      <point x="535.7272727272727" y="84.9090909090909"/>
      <point x="535.7272727272727" y="168.9090909090909" type="curve" smooth="yes"/>
      <point x="535.7272727272727" y="348.45454545454544"/>
      <point x="737.0" y="508.6363636363636"/>
      <point x="937.3636363636364" y="508.6363636363636" type="curve" smooth="yes"/>
      <point x="1282.909090909091" y="508.6363636363636" type="line"/>
      <point x="1291.7272727272727" y="548.5454545454545" type="line"/>
      <point x="944.1818181818181" y="548.5454545454545" type="line" smooth="yes"/>
      <point x="711.6363636363636" y="548.5454545454545"/>
      <point x="492.90909090909093" y="371.3636363636364"/>
      <point x="492.90909090909093" y="163.63636363636363" type="curve" smooth="yes"/>
      <point x="492.90909090909093" y="67.36363636363636"/>
      <point x="535.7272727272727" y="-5.0"/>
      <point x="633.6363636363636" y="-5.0" type="curve" smooth="yes"/>
      <point x="733.3636363636364" y="-5.0"/>
      <point x="827.9090909090909" y="68.27272727272727"/>
      <point x="827.9090909090909" y="218.27272727272728" type="curve" smooth="yes"/>
      <point x="827.9090909090909" y="430.8181818181818"/>
      <point x="652.8181818181819" y="555.3636363636364"/>
      <point x="441.6363636363636" y="555.3636363636364" type="curve" smooth="yes"/>
      <point x="214.27272727272728" y="555.3636363636364"/>
      <point x="49.36363636363637" y="399.09090909090907"/>
      <point x="49.36363636363637" y="211.63636363636363" type="curve" smooth="yes"/>
      <point x="49.36363636363637" y="77.36363636363636"/>
      <point x="130.54545454545453" y="-4.545454545454546"/>
    </contour>
    <contour>
      <point x="949.1818181818181" y="0.0" type="line"/>
      <point x="1012.1818181818181" y="0.0" type="line"/>
      <point x="1125.1818181818182" y="528.5454545454545" type="line"/>
      <point x="1061.7272727272727" y="528.5454545454545" type="line"/>
    </contour>
  </outline>
</glyph>
<glyph name="pa-tamil" format="2">
  <advance width="878.1818181818181"/>
  <unicode hex="0BAA"/>
  <note>
uni0BAA
</note>
  <anchor x="382.54545454545456" y="0.0" name="bottom"/>
  <anchor x="814.1818181818181" y="548.5454545454545" name="imatra"/>
  <anchor x="382.54545454545456" y="0.0" name="nukta"/>
  <anchor x="492.8181818181818" y="548.5454545454545" name="top"/>
  <anchor x="491.45454545454544" y="548.5454545454545" name="vedic"/>
  <outline>
    <contour>
      <point x="53.54545454545455" y="0.0" type="line"/>
      <point x="708.0" y="0.0" type="line"/>
      <point x="824.6363636363636" y="548.5454545454545" type="line"/>
      <point x="761.1818181818181" y="548.5454545454545" type="line"/>
      <point x="652.9090909090909" y="39.90909090909091" type="line"/>
      <point x="125.27272727272728" y="39.90909090909091" type="line"/>
      <point x="233.0909090909091" y="548.5454545454545" type="line"/>
      <point x="170.1818181818182" y="548.5454545454545" type="line"/>
    </contour>
  </outline>
</glyph>
<glyph name="ya-tamil" format="2">
  <advance width="943.1818181818181"/>
  <unicode hex="0BAF"/>
  <note>
uni0BAF
</note>
  <anchor x="427.3636363636364" y="0.0" name="bottom"/>
  <anchor x="879.6363636363636" y="548.5454545454545" name="imatra"/>
  <anchor x="427.3636363636364" y="0.0" name="nukta"/>
  <anchor x="533.2727272727273" y="548.5454545454545" name="top"/>
  <anchor x="531.3636363636364" y="548.5454545454545" name="vedic"/>
  <outline>
    <contour>
      <point x="192.9090909090909" y="-5.0" type="curve" smooth="yes"/>
      <point x="258.54545454545456" y="-5.0"/>
      <point x="300.72727272727275" y="33.90909090909091"/>
      <point x="322.90909090909093" y="65.9090909090909" type="curve"/>
      <point x="308.90909090909093" y="0.0" type="line"/>
      <point x="773.0" y="0.0" type="line"/>
      <point x="889.0909090909091" y="548.5454545454545" type="line"/>
      <point x="825.1818181818181" y="548.5454545454545" type="line"/>
      <point x="716.9090909090909" y="39.90909090909091" type="line"/>
      <point x="375.90909090909093" y="39.90909090909091" type="line"/>
      <point x="483.72727272727275" y="548.5454545454545" type="line"/>
      <point x="421.3636363636364" y="548.5454545454545" type="line"/>
      <point x="336.90909090909093" y="151.36363636363637" type="line" smooth="yes"/>
      <point x="323.90909090909093" y="90.9090909090909"/>
      <point x="278.45454545454544" y="40.09090909090909"/>
      <point x="215.36363636363637" y="40.09090909090909" type="curve" smooth="yes"/>
      <point x="158.9090909090909" y="40.09090909090909"/>
      <point x="128.0909090909091" y="83.27272727272728"/>
      <point x="142.0" y="149.27272727272728" type="curve" smooth="yes"/>
      <point x="226.45454545454547" y="548.5454545454545" type="line"/>
      <point x="164.0909090909091" y="548.5454545454545" type="line"/>
      <point x="81.27272727272727" y="160.8181818181818" type="line" smooth="yes"/>
      <point x="59.63636363636364" y="60.27272727272727"/>
      <point x="109.54545454545455" y="-5.0"/>
    </contour>
  </outline>
</glyph>
<glyph name="ra-tamil" format="2">
  <advance width="655.5454545454545"/>
  <unicode hex="0BB0"/>
  <note>
uni0BB0
</note>
  <anchor x="285.54545454545456" y="0.0" name="bottom"/>
  <anchor x="633.9090909090909" y="548.5454545454545" name="imatra"/>
  <anchor x="244.8181818181818" y="-183.54545454545456" name="nukta"/>
  <anchor x="426.3636363636364" y="548.5454545454545" name="top"/>
  <anchor x="432.0" y="548.5454545454545" name="vedic"/>
  <outline>
    <contour>
      <point x="134.63636363636363" y="-224.9090909090909" type="line"/>
      <point x="397.45454545454544" y="6.818181818181818" type="line"/>
      <point x="503.0" y="508.6363636363636" type="line"/>
      <point x="683.6363636363636" y="508.6363636363636" type="line"/>
      <point x="691.9090909090909" y="548.5454545454545" type="line"/>
      <point x="170.1818181818182" y="548.5454545454545" type="line"/>
      <point x="53.54545454545455" y="0.0" type="line"/>
      <point x="97.63636363636364" y="0.0" type="line"/>
      <point x="205.45454545454547" y="508.6363636363636" type="line"/>
      <point x="440.09090909090907" y="508.6363636363636" type="line"/>
      <point x="333.72727272727275" y="9.454545454545455" type="line"/>
      <point x="106.72727272727272" y="-191.8181818181818" type="line"/>
    </contour>
  </outline>
</glyph>
<glyph name="rra-tamil" format="2">
  <advance width="842.8181818181819"/>
  <unicode hex="0BB1"/>
  <note>
uni0BB1
</note>
  <anchor x="361.90909090909093" y="0.0" name="bottom"/>
  <anchor x="326.09090909090907" y="-168.0909090909091" name="nukta"/>
  <anchor x="455.6363636363636" y="548.5454545454545" name="top"/>
  <anchor x="476.09090909090907" y="548.5454545454545" name="vedic"/>
  <outline>
    <contour>
      <point x="57.72727272727273" y="-228.0909090909091" type="curve"/>
      <point x="69.54545454545455" y="-174.0909090909091"/>
      <point x="97.0909090909091" y="-137.0"/>
      <point x="173.1818181818182" y="-137.0" type="curve" smooth="yes"/>
      <point x="316.3636363636364" y="-137.0" type="line" smooth="yes"/>
      <point x="608.8181818181819" y="-137.0"/>
      <point x="775.1818181818181" y="23.272727272727273"/>
      <point x="775.1818181818181" y="329.0" type="curve" smooth="yes"/>
      <point x="775.1818181818181" y="470.45454545454544"/>
      <point x="707.8181818181819" y="555.3636363636364"/>
      <point x="588.5454545454545" y="555.3636363636364" type="curve" smooth="yes"/>
      <point x="498.3636363636364" y="555.3636363636364"/>
      <point x="443.72727272727275" y="497.45454545454544"/>
      <point x="421.1818181818182" y="459.6363636363636" type="curve"/>
      <point x="412.54545454545456" y="497.3636363636364"/>
      <point x="376.3636363636364" y="554.8181818181819"/>
      <point x="295.27272727272725" y="554.8181818181819" type="curve" smooth="yes"/>
      <point x="211.27272727272728" y="554.8181818181819"/>
      <point x="154.0" y="493.8181818181818"/>
      <point x="135.45454545454547" y="405.1818181818182" type="curve" smooth="yes"/>
      <point x="49.36363636363636" y="0.0" type="line"/>
      <point x="93.45454545454545" y="0.0" type="line"/>
      <point x="179.45454545454547" y="406.09090909090907" type="line" smooth="yes"/>
      <point x="192.9090909090909" y="470.45454545454544"/>
      <point x="232.54545454545453" y="514.4545454545455"/>
      <point x="292.54545454545456" y="514.4545454545455" type="curve" smooth="yes"/>
      <point x="359.45454545454544" y="514.4545454545455"/>
      <point x="389.3636363636364" y="458.0"/>
      <point x="375.0" y="389.09090909090907" type="curve" smooth="yes"/>
      <point x="292.09090909090907" y="0.0" type="line"/>
      <point x="355.54545454545456" y="0.0" type="line"/>
      <point x="438.45454545454544" y="388.09090909090907" type="line" smooth="yes"/>
      <point x="454.90909090909093" y="463.3636363636364"/>
      <point x="511.6363636363636" y="515.0"/>
      <point x="582.7272727272727" y="515.0" type="curve" smooth="yes"/>
      <point x="658.8181818181819" y="515.0"/>
      <point x="711.7272727272727" y="458.3636363636364"/>
      <point x="711.7272727272727" y="335.6363636363636" type="curve" smooth="yes"/>
      <point x="711.7272727272727" y="57.09090909090909"/>
      <point x="572.0" y="-95.72727272727272"/>
      <point x="314.8181818181818" y="-95.72727272727272" type="curve" smooth="yes"/>
      <point x="146.45454545454547" y="-95.72727272727272" type="line" smooth="yes"/>
      <point x="60.0" y="-95.72727272727272"/>
      <point x="1.0" y="-122.81818181818181"/>
      <point x="1.0" y="-178.45454545454547" type="curve" smooth="yes"/>
      <point x="1.0" y="-210.8181818181818"/>
      <point x="20.636363636363637" y="-228.0909090909091"/>
    </contour>
  </outline>
</glyph>
<glyph name="la-tamil" format="2">
  <advance width="1015.7272727272727"/>
  <unicode hex="0BB2"/>
  <note>
uni0BB2
</note>
  <anchor x="452.09090909090907" y="0.0" name="bottom"/>
  <anchor x="452.09090909090907" y="0.0" name="nukta"/>
  <anchor x="587.0909090909091" y="548.5454545454545" name="top"/>
  <anchor x="567.0" y="548.5454545454545" name="vedic"/>
  <outline>
    <contour>
      <point x="239.1818181818182" y="-4.545454545454546" type="curve" smooth="yes"/>
      <point x="334.27272727272725" y="-4.545454545454546"/>
      <point x="409.0" y="55.0"/>
      <point x="409.0" y="161.0" type="curve" smooth="yes"/>
      <point x="409.0" y="234.45454545454547"/>
      <point x="358.72727272727275" y="293.90909090909093"/>
      <point x="274.0" y="293.90909090909093" type="curve" smooth="yes"/>
      <point x="179.45454545454547" y="293.90909090909093"/>
      <point x="114.27272727272728" y="219.45454545454547"/>
      <point x="87.54545454545455" y="127.54545454545455" type="curve"/>
      <point x="106.72727272727272" y="101.45454545454545" type="line"/>
      <point x="134.0" y="185.8181818181818"/>
      <point x="183.36363636363637" y="246.0"/>
      <point x="254.45454545454547" y="246.0" type="curve" smooth="yes"/>
      <point x="315.72727272727275" y="246.0"/>
      <point x="344.54545454545456" y="205.36363636363637"/>
      <point x="344.54545454545456" y="153.54545454545453" type="curve" smooth="yes"/>
      <point x="344.54545454545456" y="82.9090909090909"/>
      <point x="299.3636363636364" y="36.27272727272727"/>
      <point x="234.0909090909091" y="36.27272727272727" type="curve" smooth="yes"/>
      <point x="154.27272727272728" y="36.27272727272727"/>
      <point x="94.81818181818181" y="99.45454545454545"/>
      <point x="94.81818181818181" y="215.27272727272728" type="curve" smooth="yes"/>
      <point x="94.81818181818181" y="378.27272727272725"/>
      <point x="214.54545454545453" y="515.0"/>
      <point x="394.72727272727275" y="515.0" type="curve" smooth="yes"/>
      <point x="527.7272727272727" y="515.0"/>
      <point x="597.1818181818181" y="428.54545454545456"/>
      <point x="569.7272727272727" y="301.90909090909093" type="curve" smooth="yes"/>
      <point x="543.9090909090909" y="182.0" type="line" smooth="yes"/>
      <point x="521.2727272727273" y="78.18181818181819"/>
      <point x="570.1818181818181" y="-1.8181818181818181"/>
      <point x="681.4545454545455" y="-1.8181818181818181" type="curve" smooth="yes"/>
      <point x="842.9090909090909" y="-1.8181818181818181"/>
      <point x="962.9090909090909" y="153.45454545454547"/>
      <point x="962.9090909090909" y="344.45454545454544" type="curve" smooth="yes"/>
      <point x="962.9090909090909" y="428.27272727272725"/>
      <point x="938.4545454545455" y="495.72727272727275"/>
      <point x="897.3636363636364" y="554.0909090909091" type="curve"/>
      <point x="861.5454545454545" y="528.3636363636364" type="line"/>
      <point x="894.3636363636364" y="481.72727272727275"/>
      <point x="921.3636363636364" y="412.72727272727275"/>
      <point x="921.3636363636364" y="343.45454545454544" type="curve" smooth="yes"/>
      <point x="921.3636363636364" y="183.8181818181818"/>
      <point x="822.0909090909091" y="41.27272727272727"/>
      <point x="690.0909090909091" y="41.27272727272727" type="curve" smooth="yes"/>
      <point x="613.6363636363636" y="41.27272727272727"/>
      <point x="590.0" y="100.27272727272728"/>
      <point x="607.3636363636364" y="180.54545454545453" type="curve" smooth="yes"/>
      <point x="632.6363636363636" y="299.90909090909093" type="line" smooth="yes"/>
      <point x="665.8181818181819" y="455.27272727272725"/>
      <point x="576.1818181818181" y="555.3636363636364"/>
      <point x="399.54545454545456" y="555.3636363636364" type="curve" smooth="yes"/>
      <point x="189.45454545454547" y="555.3636363636364"/>
      <point x="50.90909090909091" y="399.09090909090907"/>
      <point x="50.90909090909091" y="211.63636363636363" type="curve" smooth="yes"/>
      <point x="50.90909090909091" y="77.36363636363636"/>
      <point x="132.0909090909091" y="-4.545454545454546"/>
    </contour>
  </outline>
</glyph>
<glyph name="llla-tamil" format="2">
  <advance width="897.5454545454545"/>
  <unicode hex="0BB4"/>
  <note>
uni0BB4
</note>
  <anchor x="396.27272727272725" y="0.0" name="bottom"/>
  <anchor x="329.8181818181818" y="-312.72727272727275" name="nukta"/>
  <anchor x="534.1818181818181" y="548.5454545454545" name="top"/>
  <anchor x="530.4545454545455" y="548.5454545454545" name="vedic"/>
  <anchor x="849.6363636363636" y="548.5454545454545" name="imatra"/>
  <outline>
    <contour>
      <point x="210.36363636363637" y="-348.0" type="curve" smooth="yes"/>
      <point x="389.3636363636364" y="-348.0"/>
      <point x="435.3636363636364" y="-161.9090909090909"/>
      <point x="608.3636363636364" y="-161.9090909090909" type="curve" smooth="yes"/>
      <point x="668.9090909090909" y="-161.9090909090909" type="line"/>
      <point x="677.7272727272727" y="-122.0" type="line"/>
      <point x="607.6363636363636" y="-122.0" type="line" smooth="yes"/>
      <point x="504.27272727272725" y="-122.0"/>
      <point x="432.0" y="-81.63636363636364"/>
      <point x="451.3636363636364" y="8.818181818181818" type="curve" smooth="yes"/>
      <point x="465.27272727272725" y="73.72727272727272" type="line"/>
      <point x="402.27272727272725" y="73.72727272727272" type="line"/>
      <point x="387.90909090909093" y="8.818181818181818" type="line" smooth="yes"/>
      <point x="369.6363636363636" y="-72.63636363636364"/>
      <point x="433.54545454545456" y="-129.0"/>
      <point x="519.7272727272727" y="-138.54545454545453" type="curve"/>
      <point x="518.7272727272727" y="-143.54545454545453" type="line"/>
      <point x="368.54545454545456" y="-159.54545454545453"/>
      <point x="331.90909090909093" y="-304.6363636363636"/>
      <point x="203.0909090909091" y="-304.6363636363636" type="curve" smooth="yes"/>
      <point x="142.72727272727272" y="-304.6363636363636"/>
      <point x="106.0" y="-264.72727272727275"/>
      <point x="106.0" y="-212.72727272727272" type="curve" smooth="yes"/>
      <point x="106.0" y="-156.36363636363637"/>
      <point x="143.8181818181818" y="-115.72727272727273"/>
      <point x="203.8181818181818" y="-115.72727272727273" type="curve" smooth="yes"/>
      <point x="239.0909090909091" y="-115.72727272727273"/>
      <point x="272.27272727272725" y="-131.0909090909091"/>
      <point x="298.1818181818182" y="-159.0" type="curve"/>
      <point x="328.0" y="-129.54545454545453" type="line"/>
      <point x="293.3636363636364" y="-90.9090909090909"/>
      <point x="250.1818181818182" y="-75.36363636363636"/>
      <point x="202.27272727272728" y="-75.36363636363636" type="curve" smooth="yes"/>
      <point x="120.18181818181819" y="-75.36363636363636"/>
      <point x="61.63636363636364" y="-138.72727272727272"/>
      <point x="61.63636363636364" y="-219.36363636363637" type="curve" smooth="yes"/>
      <point x="61.63636363636364" y="-291.54545454545456"/>
      <point x="121.54545454545455" y="-348.0"/>
    </contour>
    <component base="ma-tamil"/>
  </outline>
</glyph>
<glyph name="va-tamil" format="2">
  <advance width="1131.090909090909"/>
  <unicode hex="0BB5"/>
  <note>
uni0BB5
</note>
  <anchor x="534.9090909090909" y="0.0" name="bottom"/>
  <anchor x="1023.2727272727273" y="548.5454545454545" name="imatra"/>
  <anchor x="534.9090909090909" y="0.0" name="nukta"/>
  <anchor x="611.3636363636364" y="548.5454545454545" name="top"/>
  <anchor x="603.5454545454545" y="548.5454545454545" name="vedic"/>
  <outline>
    <contour>
      <point x="237.1818181818182" y="-4.545454545454546" type="curve" smooth="yes"/>
      <point x="332.27272727272725" y="-4.545454545454546"/>
      <point x="407.0" y="55.0"/>
      <point x="407.0" y="161.0" type="curve" smooth="yes"/>
      <point x="407.0" y="234.45454545454547"/>
      <point x="356.72727272727275" y="293.90909090909093"/>
      <point x="272.0" y="293.90909090909093" type="curve" smooth="yes"/>
      <point x="177.45454545454547" y="293.90909090909093"/>
      <point x="112.27272727272728" y="219.45454545454547"/>
      <point x="85.54545454545455" y="127.54545454545455" type="curve"/>
      <point x="104.72727272727272" y="101.45454545454545" type="line"/>
      <point x="132.0" y="185.8181818181818"/>
      <point x="181.36363636363637" y="246.0"/>
      <point x="252.45454545454547" y="246.0" type="curve" smooth="yes"/>
      <point x="313.72727272727275" y="246.0"/>
      <point x="342.54545454545456" y="205.36363636363637"/>
      <point x="342.54545454545456" y="153.54545454545453" type="curve" smooth="yes"/>
      <point x="342.54545454545456" y="82.9090909090909"/>
      <point x="297.3636363636364" y="36.27272727272727"/>
      <point x="232.0909090909091" y="36.27272727272727" type="curve" smooth="yes"/>
      <point x="152.27272727272728" y="36.27272727272727"/>
      <point x="92.81818181818181" y="99.45454545454545"/>
      <point x="92.81818181818181" y="215.27272727272728" type="curve" smooth="yes"/>
      <point x="92.81818181818181" y="372.8181818181818"/>
      <point x="242.63636363636363" y="515.0"/>
      <point x="420.27272727272725" y="515.0" type="curve" smooth="yes"/>
      <point x="558.6363636363636" y="515.0"/>
      <point x="663.9090909090909" y="441.0"/>
      <point x="663.9090909090909" y="298.8181818181818" type="curve" smooth="yes"/>
      <point x="663.9090909090909" y="184.54545454545453"/>
      <point x="602.1818181818181" y="105.63636363636364"/>
      <point x="527.0" y="32.09090909090909" type="curve"/>
      <point x="534.0909090909091" y="0.0" type="line"/>
      <point x="960.9090909090909" y="0.0" type="line"/>
      <point x="1077.5454545454545" y="548.5454545454545" type="line"/>
      <point x="1014.0909090909091" y="548.5454545454545" type="line"/>
      <point x="905.2727272727273" y="39.90909090909091" type="line"/>
      <point x="592.2727272727273" y="39.90909090909091" type="line"/>
      <point x="659.0" y="97.45454545454545"/>
      <point x="729.0" y="180.54545454545453"/>
      <point x="729.0" y="307.27272727272725" type="curve" smooth="yes"/>
      <point x="729.0" y="474.3636363636364"/>
      <point x="593.0909090909091" y="555.3636363636364"/>
      <point x="427.27272727272725" y="555.3636363636364" type="curve" smooth="yes"/>
      <point x="215.36363636363637" y="555.3636363636364"/>
      <point x="48.90909090909091" y="390.90909090909093"/>
      <point x="48.90909090909091" y="211.63636363636363" type="curve" smooth="yes"/>
      <point x="48.90909090909091" y="77.36363636363636"/>
      <point x="130.0909090909091" y="-4.545454545454546"/>
    </contour>
  </outline>
</glyph>
<glyph name="sha-tamil" format="2">
  <advance width="1108.1818181818182"/>
  <unicode hex="0BB6"/>
  <note>
uni0BB6
</note>
  <anchor x="506.09090909090907" y="0.0" name="bottom"/>
  <anchor x="914.0909090909091" y="548.5454545454545" name="imatra"/>
  <anchor x="506.09090909090907" y="0.0" name="nukta"/>
  <anchor x="625.1818181818181" y="548.5454545454545" name="top"/>
  <anchor x="630.5454545454545" y="548.5454545454545" name="vedic"/>
  <outline>
    <contour>
      <point x="253.0909090909091" y="-6.818181818181818" type="curve" smooth="yes"/>
      <point x="353.27272727272725" y="-6.818181818181818"/>
      <point x="435.3636363636364" y="41.72727272727273"/>
      <point x="465.90909090909093" y="185.54545454545453" type="curve" smooth="yes"/>
      <point x="534.4545454545455" y="508.6363636363636" type="line"/>
      <point x="692.3636363636364" y="508.6363636363636" type="line"/>
      <point x="620.9090909090909" y="171.1818181818182" type="line" smooth="yes"/>
      <point x="598.5454545454545" y="63.0"/>
      <point x="639.5454545454545" y="-6.818181818181818"/>
      <point x="743.5454545454545" y="-6.818181818181818" type="curve" smooth="yes"/>
      <point x="927.7272727272727" y="-6.818181818181818"/>
      <point x="1061.0" y="212.1818181818182"/>
      <point x="1061.0" y="407.09090909090907" type="curve" smooth="yes"/>
      <point x="1061.0" y="502.8181818181818"/>
      <point x="1016.2727272727273" y="548.5454545454545"/>
      <point x="922.6363636363636" y="548.5454545454545" type="curve" smooth="yes"/>
      <point x="499.8181818181818" y="548.5454545454545" type="line"/>
      <point x="424.0" y="190.54545454545453" type="line" smooth="yes"/>
      <point x="398.09090909090907" y="67.81818181818181"/>
      <point x="331.54545454545456" y="36.27272727272727"/>
      <point x="261.8181818181818" y="36.27272727272727" type="curve" smooth="yes"/>
      <point x="170.63636363636363" y="36.27272727272727"/>
      <point x="134.72727272727272" y="106.81818181818181"/>
      <point x="154.45454545454547" y="204.63636363636363" type="curve" smooth="yes"/>
      <point x="227.54545454545456" y="548.5454545454545" type="line"/>
      <point x="164.0909090909091" y="548.5454545454545" type="line"/>
      <point x="92.63636363636364" y="208.45454545454547" type="line" smooth="yes"/>
      <point x="65.54545454545455" y="87.0"/>
      <point x="129.8181818181818" y="-6.818181818181818"/>
    </contour>
    <contour>
      <point x="755.4545454545455" y="36.27272727272727" type="curve" smooth="yes"/>
      <point x="682.4545454545455" y="36.27272727272727"/>
      <point x="666.7272727272727" y="91.18181818181819"/>
      <point x="683.9090909090909" y="168.8181818181818" type="curve" smooth="yes"/>
      <point x="755.9090909090909" y="508.6363636363636" type="line"/>
      <point x="911.2727272727273" y="508.6363636363636" type="line" smooth="yes"/>
      <point x="984.6363636363636" y="508.6363636363636"/>
      <point x="1016.0" y="477.09090909090907"/>
      <point x="1016.0" y="404.3636363636364" type="curve" smooth="yes"/>
      <point x="1016.0" y="244.72727272727272"/>
      <point x="901.3636363636364" y="36.27272727272727"/>
    </contour>
  </outline>
</glyph>
<glyph name="sa-tamil" format="2">
  <advance width="1284.1818181818182"/>
  <unicode hex="0BB8"/>
  <note>
uni0BB8
</note>
  <anchor x="598.8181818181819" y="0.0" name="bottom"/>
  <anchor x="598.8181818181819" y="0.0" name="nukta"/>
  <anchor x="701.4545454545455" y="548.5454545454545" name="top"/>
  <anchor x="704.2727272727273" y="548.5454545454545" name="vedic"/>
  <outline>
    <contour>
      <point x="520.0909090909091" y="0.0" type="line"/>
      <point x="583.0909090909091" y="0.0" type="line"/>
      <point x="670.6363636363636" y="409.27272727272725" type="line" smooth="yes"/>
      <point x="684.4545454545455" y="472.8181818181818"/>
      <point x="720.4545454545455" y="514.4545454545455"/>
      <point x="779.5454545454545" y="514.4545454545455" type="curve" smooth="yes"/>
      <point x="839.3636363636364" y="514.4545454545455"/>
      <point x="874.0909090909091" y="471.27272727272725"/>
      <point x="859.5454545454545" y="404.0" type="curve" smooth="yes"/>
      <point x="812.3636363636364" y="182.0" type="line" smooth="yes"/>
      <point x="790.2727272727273" y="78.18181818181819"/>
      <point x="838.6363636363636" y="-1.8181818181818181"/>
      <point x="949.9090909090909" y="-1.8181818181818181" type="curve" smooth="yes"/>
      <point x="1111.3636363636363" y="-1.8181818181818181"/>
      <point x="1231.3636363636363" y="153.45454545454547"/>
      <point x="1231.3636363636363" y="344.45454545454544" type="curve" smooth="yes"/>
      <point x="1231.3636363636363" y="428.27272727272725"/>
      <point x="1209.6363636363637" y="494.6363636363636"/>
      <point x="1169.6363636363637" y="553.5454545454545" type="curve"/>
      <point x="1132.7272727272727" y="528.9090909090909" type="line"/>
      <point x="1165.0" y="481.72727272727275"/>
      <point x="1189.8181818181818" y="412.72727272727275"/>
      <point x="1189.8181818181818" y="343.45454545454544" type="curve" smooth="yes"/>
      <point x="1189.8181818181818" y="183.8181818181818"/>
      <point x="1090.5454545454545" y="41.27272727272727"/>
      <point x="958.5454545454545" y="41.27272727272727" type="curve" smooth="yes"/>
      <point x="882.0909090909091" y="41.27272727272727"/>
      <point x="858.4545454545455" y="99.72727272727272"/>
      <point x="875.8181818181819" y="180.54545454545453" type="curve" smooth="yes"/>
      <point x="920.9090909090909" y="393.0" type="line" smooth="yes"/>
      <point x="942.1818181818182" y="491.72727272727275"/>
      <point x="885.1818181818182" y="555.3636363636364"/>
      <point x="790.2727272727273" y="555.3636363636364" type="curve" smooth="yes"/>
      <point x="698.9090909090909" y="555.3636363636364"/>
      <point x="648.5454545454545" y="490.09090909090907"/>
      <point x="632.5454545454545" y="415.27272727272725" type="curve" smooth="yes"/>
      <point x="618.0909090909091" y="347.27272727272725" type="line"/>
      <point x="593.7272727272727" y="347.27272727272725" type="line"/>
    </contour>
    <contour>
      <point x="239.72727272727272" y="-4.545454545454546" type="curve" smooth="yes"/>
      <point x="334.8181818181818" y="-4.545454545454546"/>
      <point x="409.54545454545456" y="55.0"/>
      <point x="409.54545454545456" y="161.0" type="curve" smooth="yes"/>
      <point x="409.54545454545456" y="234.45454545454547"/>
      <point x="359.27272727272725" y="293.90909090909093"/>
      <point x="274.54545454545456" y="293.90909090909093" type="curve" smooth="yes"/>
      <point x="180.0" y="293.90909090909093"/>
      <point x="114.81818181818181" y="219.45454545454547"/>
      <point x="88.0909090909091" y="127.54545454545455" type="curve"/>
      <point x="107.27272727272728" y="101.45454545454545" type="line"/>
      <point x="134.54545454545453" y="185.8181818181818"/>
      <point x="183.9090909090909" y="246.0"/>
      <point x="255.0" y="246.0" type="curve" smooth="yes"/>
      <point x="316.27272727272725" y="246.0"/>
      <point x="345.09090909090907" y="205.36363636363637"/>
      <point x="345.09090909090907" y="153.54545454545453" type="curve" smooth="yes"/>
      <point x="345.09090909090907" y="82.9090909090909"/>
      <point x="299.90909090909093" y="36.27272727272727"/>
      <point x="234.63636363636363" y="36.27272727272727" type="curve" smooth="yes"/>
      <point x="154.8181818181818" y="36.27272727272727"/>
      <point x="95.36363636363636" y="99.45454545454545"/>
      <point x="95.36363636363636" y="215.27272727272728" type="curve" smooth="yes"/>
      <point x="95.36363636363636" y="376.90909090909093"/>
      <point x="208.27272727272728" y="515.0"/>
      <point x="389.3636363636364" y="515.0" type="curve" smooth="yes"/>
      <point x="513.5454545454545" y="515.0"/>
      <point x="614.0" y="440.09090909090907"/>
      <point x="582.4545454545455" y="294.8181818181818" type="curve"/>
      <point x="627.0" y="296.6363636363636" type="line"/>
      <point x="661.3636363636364" y="468.6363636363636"/>
      <point x="543.0909090909091" y="555.3636363636364"/>
      <point x="394.1818181818182" y="555.3636363636364" type="curve" smooth="yes"/>
      <point x="183.1818181818182" y="555.3636363636364"/>
      <point x="51.45454545454545" y="397.72727272727275"/>
      <point x="51.45454545454545" y="211.63636363636363" type="curve" smooth="yes"/>
      <point x="51.45454545454545" y="77.36363636363636"/>
      <point x="132.63636363636363" y="-4.545454545454546"/>
    </contour>
  </outline>
</glyph>
<glyph name="aaMatra-tamil" format="2">
  <advance width="678.5454545454545"/>
  <unicode hex="0BBE"/>
  <note>
uni0BBE
</note>
  <anchor x="315.8181818181818" y="0.0" name="bottom"/>
  <anchor x="314.8181818181818" y="0.0" name="nukta"/>
  <anchor x="425.45454545454544" y="548.5454545454545" name="top"/>
  <anchor x="425.45454545454544" y="548.5454545454545" name="vedic"/>
  <outline>
    <contour>
      <point x="53.54545454545455" y="0.0" type="line"/>
      <point x="97.63636363636364" y="0.0" type="line"/>
      <point x="205.45454545454547" y="508.6363636363636" type="line"/>
      <point x="457.6363636363636" y="508.6363636363636" type="line"/>
      <point x="348.8181818181818" y="0.0" type="line"/>
      <point x="412.72727272727275" y="0.0" type="line"/>
      <point x="520.5454545454545" y="508.6363636363636" type="line"/>
      <point x="706.6363636363636" y="508.6363636363636" type="line"/>
      <point x="715.4545454545455" y="548.5454545454545" type="line"/>
      <point x="170.1818181818182" y="548.5454545454545" type="line"/>
    </contour>
  </outline>
</glyph>
<glyph name="iMatra-tamil" format="2">
  <advance width="227.9090909090909"/>
  <unicode hex="0BBF"/>
  <note>
uni0BBF
</note>
  <anchor x="-22.545454545454547" y="818.5454545454545" name="top"/>
  <outline>
    <contour>
      <point x="23.909090909090907" y="0.0" type="line"/>
      <point x="69.81818181818181" y="0.0" type="line"/>
      <point x="184.45454545454547" y="538.0909090909091" type="line" smooth="yes"/>
      <point x="220.45454545454547" y="706.7272727272727"/>
      <point x="138.1818181818182" y="818.5454545454545"/>
      <point x="-22.545454545454547" y="818.5454545454545" type="curve" smooth="yes"/>
      <point x="-150.45454545454547" y="818.5454545454545"/>
      <point x="-238.27272727272728" y="737.0909090909091"/>
      <point x="-238.27272727272728" y="635.7272727272727" type="curve" smooth="yes"/>
      <point x="-238.27272727272728" y="560.0"/>
      <point x="-187.72727272727272" y="508.6363636363636"/>
      <point x="-125.18181818181819" y="508.6363636363636" type="curve" smooth="yes"/>
      <point x="-118.81818181818181" y="508.6363636363636" type="line"/>
      <point x="-111.0" y="548.5454545454545" type="line"/>
      <point x="-115.54545454545455" y="548.5454545454545" type="line" smooth="yes"/>
      <point x="-161.1818181818182" y="548.5454545454545"/>
      <point x="-191.63636363636363" y="581.7272727272727"/>
      <point x="-191.63636363636363" y="628.9090909090909" type="curve" smooth="yes"/>
      <point x="-191.63636363636363" y="704.5454545454545"/>
      <point x="-119.0909090909091" y="756.9090909090909"/>
      <point x="-27.636363636363637" y="756.9090909090909" type="curve" smooth="yes"/>
      <point x="99.27272727272727" y="756.9090909090909"/>
      <point x="167.36363636363637" y="674.1818181818181"/>
      <point x="136.45454545454547" y="528.6363636363636" type="curve" smooth="yes"/>
    </contour>
  </outline>
</glyph>
<glyph name="iiMatra-tamil" format="2">
  <unicode hex="0BC0"/>
  <note>
uni0BC0
</note>
  <anchor x="57.63636363636363" y="548.5454545454545" name="_imatra"/>
  <anchor x="121.36363636363636" y="877.4545454545455" name="top"/>
  <outline>
    <contour>
      <point x="34.81818181818182" y="512.2727272727273" type="curve" smooth="yes"/>
      <point x="50.36363636363637" y="512.2727272727273" type="line"/>
      <point x="57.63636363636363" y="548.5454545454545" type="line"/>
      <point x="42.54545454545455" y="548.5454545454545" type="line" smooth="yes"/>
      <point x="-26.272727272727273" y="548.5454545454545"/>
      <point x="-73.27272727272727" y="591.0909090909091"/>
      <point x="-73.27272727272727" y="668.5454545454545" type="curve" smooth="yes"/>
      <point x="-73.27272727272727" y="764.1818181818181"/>
      <point x="2.5454545454545454" y="838.0"/>
      <point x="116.54545454545455" y="838.0" type="curve" smooth="yes"/>
      <point x="184.27272727272728" y="838.0"/>
      <point x="237.9090909090909" y="807.1818181818181"/>
      <point x="237.9090909090909" y="741.8181818181819" type="curve" smooth="yes"/>
      <point x="237.9090909090909" y="687.0"/>
      <point x="199.54545454545453" y="651.0"/>
      <point x="144.0" y="651.0" type="curve" smooth="yes"/>
      <point x="48.81818181818182" y="651.0"/>
      <point x="42.72727272727273" y="758.9090909090909"/>
      <point x="110.54545454545455" y="852.8181818181819" type="curve"/>
      <point x="79.0909090909091" y="856.8181818181819" type="line"/>
      <point x="-12.545454545454547" y="738.1818181818181"/>
      <point x="13.909090909090908" y="611.0909090909091"/>
      <point x="147.45454545454547" y="611.0909090909091" type="curve" smooth="yes"/>
      <point x="233.1818181818182" y="611.0909090909091"/>
      <point x="295.3636363636364" y="662.3636363636364"/>
      <point x="295.3636363636364" y="745.2727272727273" type="curve" smooth="yes"/>
      <point x="295.3636363636364" y="831.0909090909091"/>
      <point x="218.54545454545453" y="877.4545454545455"/>
      <point x="121.36363636363636" y="877.4545454545455" type="curve" smooth="yes"/>
      <point x="-18.454545454545453" y="877.4545454545455"/>
      <point x="-118.54545454545455" y="782.2727272727273"/>
      <point x="-118.54545454545455" y="664.8181818181819" type="curve" smooth="yes"/>
      <point x="-118.54545454545455" y="568.5454545454545"/>
      <point x="-53.72727272727273" y="512.2727272727273"/>
    </contour>
  </outline>
</glyph>
<glyph name="uuMatra-tamil" format="2">
  <advance width="876.9090909090909"/>
  <unicode hex="0BC2"/>
  <note>
uni0BC2
</note>
  <anchor x="554.5454545454545" y="780.5454545454545" name="top"/>
  <outline>
    <contour>
      <point x="385.27272727272725" y="0.45454545454545453" type="curve" smooth="yes"/>
      <point x="656.1818181818181" y="0.45454545454545453"/>
      <point x="858.9090909090909" y="196.9090909090909"/>
      <point x="858.9090909090909" y="462.8181818181818" type="curve" smooth="yes"/>
      <point x="858.9090909090909" y="673.0909090909091"/>
      <point x="732.6363636363636" y="780.0"/>
      <point x="555.0909090909091" y="780.0" type="curve" smooth="yes"/>
      <point x="365.3636363636364" y="780.0"/>
      <point x="261.54545454545456" y="656.1818181818181"/>
      <point x="233.54545454545453" y="525.7272727272727" type="curve" smooth="yes"/>
      <point x="209.9090909090909" y="416.1818181818182" type="line" smooth="yes"/>
      <point x="185.45454545454547" y="304.0"/>
      <point x="234.45454545454547" y="220.8181818181818"/>
      <point x="347.54545454545456" y="220.8181818181818" type="curve" smooth="yes"/>
      <point x="443.0" y="220.8181818181818"/>
      <point x="515.7272727272727" y="275.27272727272725"/>
      <point x="538.8181818181819" y="381.27272727272725" type="curve" smooth="yes"/>
      <point x="575.1818181818181" y="548.5454545454545" type="line"/>
      <point x="-189.54545454545453" y="548.5454545454545" type="line"/>
      <point x="-166.54545454545453" y="508.6363636363636" type="line"/>
      <point x="503.45454545454544" y="508.6363636363636" type="line"/>
      <point x="474.3636363636364" y="377.0" type="line" smooth="yes"/>
      <point x="458.54545454545456" y="306.45454545454544"/>
      <point x="411.45454545454544" y="262.09090909090907"/>
      <point x="344.1818181818182" y="262.09090909090907" type="curve" smooth="yes"/>
      <point x="266.6363636363636" y="262.09090909090907"/>
      <point x="233.63636363636363" y="322.45454545454544"/>
      <point x="253.45454545454547" y="413.0" type="curve" smooth="yes"/>
      <point x="277.6363636363636" y="525.7272727272727" type="line" smooth="yes"/>
      <point x="301.54545454545456" y="637.2727272727273"/>
      <point x="389.45454545454544" y="740.1818181818181"/>
      <point x="547.1818181818181" y="740.1818181818181" type="curve" smooth="yes"/>
      <point x="705.0909090909091" y="740.1818181818181"/>
      <point x="797.6363636363636" y="648.7272727272727"/>
      <point x="797.6363636363636" y="470.09090909090907" type="curve" smooth="yes"/>
      <point x="797.6363636363636" y="231.0"/>
      <point x="624.7272727272727" y="40.81818181818182"/>
      <point x="387.3636363636364" y="40.81818181818182" type="curve" smooth="yes"/>
      <point x="261.6363636363636" y="40.81818181818182"/>
      <point x="159.0909090909091" y="83.36363636363636"/>
      <point x="89.81818181818181" y="181.36363636363637" type="curve"/>
      <point x="54.36363636363636" y="156.27272727272728" type="line"/>
      <point x="128.72727272727272" y="53.0"/>
      <point x="236.0" y="0.45454545454545453"/>
    </contour>
  </outline>
</glyph>
<glyph name="eMatra-tamil" format="2">
  <advance width="830.4545454545455"/>
  <unicode hex="0BC6"/>
  <note>
uni0BC6
</note>
  <outline>
    <contour>
      <point x="283.54545454545456" y="-4.545454545454546" type="curve" smooth="yes"/>
      <point x="380.0" y="-4.545454545454546"/>
      <point x="456.72727272727275" y="57.0"/>
      <point x="456.72727272727275" y="162.0909090909091" type="curve" smooth="yes"/>
      <point x="456.72727272727275" y="237.72727272727272"/>
      <point x="405.54545454545456" y="299.8181818181818"/>
      <point x="317.6363636363636" y="299.8181818181818" type="curve" smooth="yes"/>
      <point x="223.0909090909091" y="299.8181818181818"/>
      <point x="158.36363636363637" y="225.36363636363637"/>
      <point x="131.63636363636363" y="133.45454545454547" type="curve"/>
      <point x="149.72727272727272" y="107.36363636363636" type="line"/>
      <point x="177.0" y="191.72727272727272"/>
      <point x="227.0" y="251.9090909090909"/>
      <point x="298.09090909090907" y="251.9090909090909" type="curve" smooth="yes"/>
      <point x="362.09090909090907" y="251.9090909090909"/>
      <point x="392.27272727272725" y="206.45454545454547"/>
      <point x="392.27272727272725" y="154.63636363636363" type="curve" smooth="yes"/>
      <point x="392.27272727272725" y="84.0"/>
      <point x="345.09090909090907" y="36.27272727272727"/>
      <point x="278.45454545454544" y="36.27272727272727" type="curve" smooth="yes"/>
      <point x="197.27272727272728" y="36.27272727272727"/>
      <point x="125.45454545454545" y="107.54545454545455"/>
      <point x="125.45454545454545" y="272.6363636363636" type="curve" smooth="yes"/>
      <point x="125.45454545454545" y="529.0"/>
      <point x="279.27272727272725" y="753.0909090909091"/>
      <point x="512.0" y="753.0909090909091" type="curve" smooth="yes"/>
      <point x="670.8181818181819" y="753.0909090909091"/>
      <point x="766.2727272727273" y="650.7272727272727"/>
      <point x="726.7272727272727" y="466.0" type="curve" smooth="yes"/>
      <point x="626.4545454545455" y="0.0" type="line"/>
      <point x="671.9090909090909" y="0.0" type="line"/>
      <point x="772.5454545454545" y="470.09090909090907" type="line" smooth="yes"/>
      <point x="817.9090909090909" y="682.4545454545455"/>
      <point x="711.1818181818181" y="815.8181818181819"/>
      <point x="519.3636363636364" y="815.8181818181819" type="curve" smooth="yes"/>
      <point x="244.8181818181818" y="815.8181818181819"/>
      <point x="81.54545454545455" y="552.7272727272727"/>
      <point x="81.54545454545455" y="269.0" type="curve" smooth="yes"/>
      <point x="81.54545454545455" y="87.63636363636364"/>
      <point x="175.0909090909091" y="-4.545454545454546"/>
    </contour>
  </outline>
</glyph>
<glyph name="eeMatra-tamil" format="2">
  <advance width="609.2727272727273"/>
  <unicode hex="0BC7"/>
  <note>
uni0BC7
</note>
  <outline>
    <contour>
      <point x="343.09090909090907" y="-4.545454545454546" type="curve" smooth="yes"/>
      <point x="447.0" y="-4.545454545454546"/>
      <point x="529.0909090909091" y="52.72727272727273"/>
      <point x="529.0909090909091" y="165.27272727272728" type="curve" smooth="yes"/>
      <point x="529.0909090909091" y="247.45454545454547"/>
      <point x="469.54545454545456" y="298.27272727272725"/>
      <point x="394.1818181818182" y="298.27272727272725" type="curve" smooth="yes"/>
      <point x="289.3636363636364" y="298.27272727272725"/>
      <point x="217.8181818181818" y="213.45454545454547"/>
      <point x="185.72727272727272" y="88.27272727272728" type="curve"/>
      <point x="208.72727272727272" y="67.0909090909091" type="line"/>
      <point x="241.27272727272728" y="180.9090909090909"/>
      <point x="293.27272727272725" y="249.8181818181818"/>
      <point x="372.45454545454544" y="249.8181818181818" type="curve" smooth="yes"/>
      <point x="428.27272727272725" y="249.8181818181818"/>
      <point x="465.09090909090907" y="214.36363636363637"/>
      <point x="465.09090909090907" y="155.63636363636363" type="curve" smooth="yes"/>
      <point x="465.09090909090907" y="81.81818181818181"/>
      <point x="411.0" y="36.27272727272727"/>
      <point x="340.6363636363636" y="36.27272727272727" type="curve" smooth="yes"/>
      <point x="224.0909090909091" y="36.27272727272727"/>
      <point x="123.9090909090909" y="162.0"/>
      <point x="123.9090909090909" y="338.1818181818182" type="curve" smooth="yes"/>
      <point x="123.9090909090909" y="531.0909090909091"/>
      <point x="272.1818181818182" y="775.0"/>
      <point x="465.0" y="775.0" type="curve" smooth="yes"/>
      <point x="537.7272727272727" y="775.0"/>
      <point x="576.2727272727273" y="735.9090909090909"/>
      <point x="576.2727272727273" y="674.9090909090909" type="curve" smooth="yes"/>
      <point x="576.2727272727273" y="603.6363636363636"/>
      <point x="530.3636363636364" y="561.4545454545455"/>
      <point x="466.6363636363636" y="561.4545454545455" type="curve" smooth="yes"/>
      <point x="384.6363636363636" y="561.4545454545455"/>
      <point x="354.90909090909093" y="645.5454545454545"/>
      <point x="361.8181818181818" y="767.8181818181819" type="curve"/>
      <point x="332.72727272727275" y="749.9090909090909" type="line"/>
      <point x="320.6363636363636" y="618.5454545454545"/>
      <point x="363.8181818181818" y="513.5454545454545"/>
      <point x="478.54545454545456" y="513.5454545454545" type="curve" smooth="yes"/>
      <point x="564.1818181818181" y="513.5454545454545"/>
      <point x="638.7272727272727" y="572.8181818181819"/>
      <point x="638.7272727272727" y="671.0" type="curve" smooth="yes"/>
      <point x="638.7272727272727" y="765.2727272727273"/>
      <point x="575.3636363636364" y="815.8181818181819"/>
      <point x="474.45454545454544" y="815.8181818181819" type="curve" smooth="yes"/>
      <point x="249.27272727272728" y="815.8181818181819"/>
      <point x="79.54545454545455" y="558.0909090909091"/>
      <point x="79.54545454545455" y="334.09090909090907" type="curve" smooth="yes"/>
      <point x="79.54545454545455" y="139.0"/>
      <point x="196.8181818181818" y="-4.545454545454546"/>
    </contour>
  </outline>
</glyph>
<glyph name="aiMatra-tamil" format="2">
  <advance width="1243.090909090909"/>
  <unicode hex="0BC8"/>
  <note>
uni0BC8
</note>
  <outline>
    <contour>
      <point x="974.0" y="-5.363636363636363" type="line"/>
      <point x="1102.1818181818182" y="65.72727272727273"/>
      <point x="1183.7272727272727" y="157.8181818181818"/>
      <point x="1183.7272727272727" y="297.1818181818182" type="curve" smooth="yes"/>
      <point x="1183.7272727272727" y="454.0"/>
      <point x="1071.5454545454545" y="555.3636363636364"/>
      <point x="890.0909090909091" y="555.3636363636364" type="curve" smooth="yes"/>
      <point x="667.8181818181819" y="555.3636363636364"/>
      <point x="489.1818181818182" y="355.27272727272725"/>
      <point x="489.1818181818182" y="169.9090909090909" type="curve" smooth="yes"/>
      <point x="489.1818181818182" y="73.63636363636364"/>
      <point x="529.0909090909091" y="-5.0"/>
      <point x="628.3636363636364" y="-5.0" type="curve" smooth="yes"/>
      <point x="725.9090909090909" y="-5.0"/>
      <point x="830.0" y="76.54545454545455"/>
      <point x="830.0" y="226.54545454545453" type="curve" smooth="yes"/>
      <point x="830.0" y="445.72727272727275"/>
      <point x="670.5454545454545" y="555.3636363636364"/>
      <point x="463.27272727272725" y="555.3636363636364" type="curve" smooth="yes"/>
      <point x="229.1818181818182" y="555.3636363636364"/>
      <point x="48.90909090909091" y="394.0"/>
      <point x="48.90909090909091" y="212.0909090909091" type="curve" smooth="yes"/>
      <point x="48.90909090909091" y="73.36363636363636"/>
      <point x="123.54545454545455" y="-4.545454545454546"/>
      <point x="230.1818181818182" y="-4.545454545454546" type="curve" smooth="yes"/>
      <point x="325.27272727272725" y="-4.545454545454546"/>
      <point x="407.0" y="55.0"/>
      <point x="407.0" y="161.0" type="curve" smooth="yes"/>
      <point x="407.0" y="234.45454545454547"/>
      <point x="356.72727272727275" y="293.90909090909093"/>
      <point x="272.0" y="293.90909090909093" type="curve" smooth="yes"/>
      <point x="177.45454545454547" y="293.90909090909093"/>
      <point x="112.27272727272728" y="219.45454545454547"/>
      <point x="85.54545454545455" y="127.54545454545455" type="curve"/>
      <point x="104.72727272727272" y="101.45454545454545" type="line"/>
      <point x="132.0" y="185.8181818181818"/>
      <point x="181.36363636363637" y="246.0"/>
      <point x="252.45454545454547" y="246.0" type="curve" smooth="yes"/>
      <point x="313.72727272727275" y="246.0"/>
      <point x="342.54545454545456" y="205.36363636363637"/>
      <point x="342.54545454545456" y="153.54545454545453" type="curve" smooth="yes"/>
      <point x="342.54545454545456" y="82.9090909090909"/>
      <point x="290.3636363636364" y="36.27272727272727"/>
      <point x="225.0909090909091" y="36.27272727272727" type="curve" smooth="yes"/>
      <point x="145.72727272727272" y="36.27272727272727"/>
      <point x="92.81818181818181" y="95.45454545454545"/>
      <point x="92.81818181818181" y="215.72727272727272" type="curve" smooth="yes"/>
      <point x="92.81818181818181" y="373.1818181818182"/>
      <point x="254.36363636363637" y="515.0"/>
      <point x="458.45454545454544" y="515.0" type="curve" smooth="yes"/>
      <point x="642.0" y="515.0"/>
      <point x="765.5454545454545" y="408.90909090909093"/>
      <point x="765.5454545454545" y="229.63636363636363" type="curve" smooth="yes"/>
      <point x="765.5454545454545" y="107.9090909090909"/>
      <point x="691.9090909090909" y="37.90909090909091"/>
      <point x="620.6363636363636" y="37.90909090909091" type="curve" smooth="yes"/>
      <point x="559.1818181818181" y="37.90909090909091"/>
      <point x="532.0" y="92.27272727272728"/>
      <point x="532.0" y="175.1818181818182" type="curve" smooth="yes"/>
      <point x="532.0" y="332.72727272727275"/>
      <point x="688.4545454545455" y="515.0"/>
      <point x="884.7272727272727" y="515.0" type="curve" smooth="yes"/>
      <point x="1032.5454545454545" y="515.0"/>
      <point x="1117.6363636363637" y="427.6363636363636"/>
      <point x="1117.6363636363637" y="298.09090909090907" type="curve" smooth="yes"/>
      <point x="1117.6363636363637" y="183.9090909090909"/>
      <point x="1054.909090909091" y="92.45454545454545"/>
      <point x="955.8181818181819" y="24.81818181818182" type="curve"/>
    </contour>
  </outline>
</glyph>
<glyph name="halant-tamil" format="2">
  <unicode hex="0BCD"/>
  <note>
uni0BCD
</note>
  <anchor x="57.63636363636363" y="548.5454545454545" name="_top"/>
  <outline>
    <contour>
      <point x="87.72727272727273" y="636.0909090909091" type="curve" smooth="yes"/>
      <point x="115.81818181818181" y="636.0909090909091"/>
      <point x="138.27272727272728" y="659.0909090909091"/>
      <point x="138.27272727272728" y="685.6363636363636" type="curve" smooth="yes"/>
      <point x="138.27272727272728" y="712.1818181818181"/>
      <point x="115.81818181818181" y="735.1818181818181"/>
      <point x="87.72727272727273" y="735.1818181818181" type="curve" smooth="yes"/>
      <point x="59.63636363636363" y="735.1818181818181"/>
      <point x="37.18181818181818" y="712.1818181818181"/>
      <point x="37.18181818181818" y="685.6363636363636" type="curve" smooth="yes"/>
      <point x="37.18181818181818" y="659.0909090909091"/>
      <point x="59.63636363636363" y="636.0909090909091"/>
    </contour>
  </outline>
</glyph>
